<svg width="512" height="440" viewBox="0 0 512 440" fill="none" xmlns="http://www.w3.org/2000/svg">
<path d="M310.371 63.6742H201.646C197.345 63.6742 193.859 60.1872 193.859 55.8852C193.859 51.5832 197.345 48.0962 201.646 48.0962H310.371C314.672 48.0962 318.158 51.5832 318.158 55.8852C318.158 60.1872 314.672 63.6742 310.371 63.6742Z" fill="#9B9B9B"/>
<path d="M383.485 371.134C383.238 371.134 382.988 371.122 382.738 371.098L340.384 367.062C336.102 366.654 332.962 362.852 333.37 358.569C333.778 354.286 337.596 351.149 341.861 351.554L384.215 355.59C388.497 355.998 391.637 359.8 391.229 364.083C390.844 368.114 387.453 371.134 383.485 371.134Z" fill="#FFBF00"/>
<path d="M128.502 371.134C124.534 371.134 121.143 368.115 120.759 364.083C120.352 359.801 123.491 355.998 127.773 355.59L170.127 351.554C174.413 351.14 178.21 354.287 178.618 358.569C179.025 362.851 175.886 366.654 171.604 367.062L129.25 371.098C128.999 371.123 128.748 371.134 128.502 371.134Z" fill="#FFBF00"/>
<path fill-rule="evenodd" clip-rule="evenodd" d="M128.515 314.76V404.45C128.515 424.008 112.527 440 93.015 440H49.078C29.556 440 13.578 424.007 13.578 404.45C13.578 400.081 13.578 395.712 13.568 391.343C13.558 386.15 13.548 380.966 13.527 375.773C13.506 368.395 13.476 361.007 13.455 353.618C13.434 348.435 13.414 343.241 13.393 338.058C13.259 303.724 13.166 269.368 13.578 235.178L82.845 279.739C91.838 299.019 128.515 314.76 128.515 314.76Z" fill="#838383"/>
<path fill-rule="evenodd" clip-rule="evenodd" d="M204.873 379.21H307.144C328.616 379.21 346.147 361.606 346.178 340.122L346.24 314.756C286.106 314.756 225.941 314.756 165.807 314.756V340.122C165.807 347.077 167.638 353.627 170.865 359.309C177.599 371.168 190.352 379.21 204.873 379.21Z" fill="#ECECEC"/>
<path fill-rule="evenodd" clip-rule="evenodd" d="M498.618 338.058C498.608 343.241 498.587 348.435 498.566 353.618C498.535 361.006 498.514 368.395 498.484 375.773C498.474 380.966 498.463 386.16 498.453 391.343C498.443 395.712 498.443 400.081 498.443 404.45C498.443 424.008 482.455 440 462.912 440H419.006C399.453 440 383.475 424.007 383.475 404.45V314.76H427.32C445.441 314.76 467.631 301.282 476.594 282.002L498.413 235.179C498.824 269.369 498.752 303.724 498.618 338.058Z" fill="#838383"/>
<path fill-rule="evenodd" clip-rule="evenodd" d="M433.991 345.834C442.803 345.834 452.453 343.164 461.452 338.911C474.608 332.702 470.978 342.947 470.916 364.059C470.792 390.635 470.699 401.502 470.699 427.985C470.699 432.021 469.892 435.933 468.465 439.566C485.376 436.896 498.439 422.118 498.439 404.452C498.439 368.127 498.718 331.615 498.718 295.166C498.718 275.141 498.656 255.146 498.408 235.183L383.477 314.757V345.835H433.991V345.834Z" fill="#595959"/>
<path fill-rule="evenodd" clip-rule="evenodd" d="M241.456 314.756H270.53H346.241H383.476H427.32C445.441 314.756 467.627 301.282 476.594 282.001L498.407 235.182L507.436 215.84C520.841 187.121 501.509 174.082 490.587 174.082H423.968H88.049H21.43C10.477 174.082 -8.823 187.122 4.55 215.84L13.579 235.182L35.392 282.001C44.39 301.281 66.576 314.756 84.697 314.756H128.51H129.875H241.456Z" fill="#FE636E"/>
<path fill-rule="evenodd" clip-rule="evenodd" d="M310.372 104.443H347.917V37.288V0.248047H331.596C319.929 0.248047 310.372 9.81104 310.372 21.515V37.287V55.884V104.443Z" fill="#ECECEC"/>
<path fill-rule="evenodd" clip-rule="evenodd" d="M201.646 104.443V55.885V37.008V21.236C201.646 9.562 192.089 0 180.391 0H164.07V37.008V104.442H201.646V104.443Z" fill="#ECECEC"/>
<path fill-rule="evenodd" clip-rule="evenodd" d="M78.337 37.008V0H63.567C35.641 0 35.641 37.008 63.567 37.008H78.337Z" fill="#ECECEC"/>
<path fill-rule="evenodd" clip-rule="evenodd" d="M448.45 37.288C476.345 37.288 476.376 0.249023 448.45 0.249023H433.68V37.288H448.45Z" fill="#ECECEC"/>
<path fill-rule="evenodd" clip-rule="evenodd" d="M476.594 282.001L498.407 235.182L507.436 215.84C520.841 187.121 501.509 174.082 490.587 174.082H423.968C434.89 174.082 454.19 187.122 440.817 215.84L434.921 228.476H435.169C448.015 228.476 458.534 239.001 458.534 251.855C458.534 264.709 448.015 275.233 435.169 275.233H413.107L409.973 282.001C400.975 301.281 378.82 314.756 360.699 314.756H383.474H427.318C445.441 314.756 467.626 301.281 476.594 282.001Z" fill="#FB2A39"/>
<path fill-rule="evenodd" clip-rule="evenodd" d="M201.646 104.443C201.646 76.718 201.646 48.993 201.646 21.237C201.646 9.56298 192.089 0.000976562 180.391 0.000976562H164.07V0.124977C174.62 1.36698 182.874 10.402 182.874 21.237V104.443H201.646Z" fill="#CECECE"/>
<path fill-rule="evenodd" clip-rule="evenodd" d="M347.917 104.443V37.288V0.248047H331.596C330.479 0.248047 329.393 0.341044 328.307 0.496044H329.145V37.535V104.442H347.917V104.443Z" fill="#CECECE"/>
<path fill-rule="evenodd" clip-rule="evenodd" d="M78.337 0H164.07V37.008H78.337V0Z" fill="#9B9B9B"/>
<path fill-rule="evenodd" clip-rule="evenodd" d="M145.111 275.233C157.957 275.233 168.476 264.708 168.476 251.855C168.476 239.002 157.957 228.476 145.111 228.476H91.028C78.182 228.476 67.663 239.001 67.663 251.855C67.663 264.709 78.182 275.233 91.028 275.233H145.111Z" fill="#A6E7F0"/>
<path fill-rule="evenodd" clip-rule="evenodd" d="M381.087 275.233H435.17C448.016 275.233 458.535 264.708 458.535 251.855C458.535 239.002 448.016 228.476 435.17 228.476H381.087C368.241 228.476 357.722 239.001 357.722 251.855C357.722 264.709 368.241 275.233 381.087 275.233Z" fill="#A6E7F0"/>
<path fill-rule="evenodd" clip-rule="evenodd" d="M84.698 345.834H100.275V404.451C100.275 424.011 84.295 440 64.747 440H93.014C112.531 440 128.511 424.011 128.511 404.451C128.511 374.553 128.511 344.654 128.511 314.756H84.698C66.577 314.756 44.391 301.282 35.393 282.001L13.58 235.182C13.487 243.316 13.332 255.735 13.208 273.898C13.393 330.341 59.409 345.834 84.698 345.834Z" fill="#595959"/>
<path fill-rule="evenodd" clip-rule="evenodd" d="M458.535 251.854C458.535 239 448.016 228.475 435.17 228.475H434.922H413.109C425.986 228.475 436.474 239 436.474 251.854C436.474 264.708 425.986 275.232 413.109 275.232H435.171C448.016 275.233 458.535 264.708 458.535 251.854Z" fill="#6BD9E7"/>
<path fill-rule="evenodd" clip-rule="evenodd" d="M168.476 251.73C168.476 238.876 157.957 228.383 145.111 228.383H144.863H123.05C135.896 228.383 146.415 238.877 146.415 251.73C146.415 264.615 135.896 275.109 123.05 275.109H145.112C157.957 275.109 168.476 264.615 168.476 251.73Z" fill="#6BD9E7"/>
<path fill-rule="evenodd" clip-rule="evenodd" d="M347.917 0.248047H433.681V37.287H347.917V0.248047Z" fill="#9B9B9B"/>
<path fill-rule="evenodd" clip-rule="evenodd" d="M165.808 314.756H346.179V340.122H165.808V314.756Z" fill="#CECECE"/>
<path fill-rule="evenodd" clip-rule="evenodd" d="M300.163 203.017L423.969 174.081V139.557C423.969 120.246 408.175 104.443 388.875 104.443H347.917H310.372H256.009H201.646H164.07H123.112C103.843 104.443 88.049 120.246 88.049 139.557V174.081L211.855 203.017L245.087 210.624C253.341 212.518 259.236 212.363 266.714 210.655L300.163 203.017Z" fill="#FFD659"/>
<path fill-rule="evenodd" clip-rule="evenodd" d="M423.969 139.557C423.969 120.246 408.175 104.443 388.875 104.443H347.917H329.144C348.444 104.443 364.207 120.494 364.207 139.806V188.053L423.969 174.082V139.557Z" fill="#FFBF00"/>
<path d="M310.371 269.299H201.646C197.345 269.299 193.859 265.812 193.859 261.51C193.859 257.208 197.345 253.721 201.646 253.721H310.371C314.672 253.721 318.158 257.208 318.158 261.51C318.158 265.812 314.672 269.299 310.371 269.299Z" fill="#838383"/>
<path d="M128.515 391.342H108.097C103.791 391.342 100.309 387.859 100.309 383.552C100.309 379.255 103.791 375.772 108.097 375.772H128.515V391.342Z" fill="#444444"/>
<path d="M128.515 338.048V353.628H108.097C103.791 353.628 100.309 350.135 100.309 345.838C100.309 341.531 103.791 338.048 108.097 338.048H128.515Z" fill="#444444"/>
<path d="M41.784 383.552C41.784 387.859 38.302 391.342 33.996 391.342H13.567C13.557 386.149 13.547 380.965 13.526 375.772H33.996C38.302 375.772 41.784 379.255 41.784 383.552Z" fill="#444444"/>
<path d="M41.784 345.838C41.784 350.135 38.302 353.628 33.996 353.628H13.578C13.537 353.628 13.496 353.628 13.455 353.618C13.434 348.435 13.414 343.241 13.393 338.058C13.455 338.048 13.517 338.048 13.578 338.048H33.996C38.302 338.048 41.784 341.531 41.784 345.838Z" fill="#444444"/>
<path d="M411.681 383.552C411.681 387.859 408.199 391.342 403.893 391.342H383.475V375.772H403.893C408.199 375.772 411.681 379.255 411.681 383.552Z" fill="#444444"/>
<path d="M411.681 345.838C411.681 350.135 408.199 353.628 403.893 353.628H383.475V338.048H403.893C408.199 338.048 411.681 341.531 411.681 345.838Z" fill="#444444"/>
<path d="M498.484 375.772C498.474 380.965 498.463 386.159 498.453 391.342H477.994C473.688 391.342 470.206 387.859 470.206 383.552C470.206 379.255 473.688 375.772 477.994 375.772H498.484Z" fill="#444444"/>
<path d="M498.618 338.058C498.608 343.241 498.587 348.435 498.566 353.618C498.525 353.628 498.484 353.628 498.442 353.628H477.993C473.687 353.628 470.205 350.135 470.205 345.838C470.205 341.531 473.687 338.048 477.993 338.048H498.442C498.505 338.048 498.556 338.048 498.618 338.058Z" fill="#444444"/>
<path d="M288.621 166.005H223.398C219.097 166.005 215.611 162.518 215.611 158.216C215.611 153.914 219.097 150.427 223.398 150.427H288.621C292.922 150.427 296.408 153.914 296.408 158.216C296.407 162.518 292.922 166.005 288.621 166.005Z" fill="#838383"/>
</svg>
