<svg width="512" height="342" viewBox="0 0 512 342" fill="none" xmlns="http://www.w3.org/2000/svg">
<path d="M154.119 94.517C151.51 94.517 148.966 93.197 147.511 90.805L110.784 28.373C108.566 24.728 109.723 19.975 113.369 17.757C117.015 15.538 121.768 16.697 123.985 20.342L160.712 82.774C162.93 86.419 161.773 91.172 158.127 93.39C156.873 94.153 155.487 94.517 154.119 94.517Z" fill="#E2DEE2"/>
<path d="M358.147 94.3181C355.186 94.3181 352.361 92.6061 351.082 89.7262L338.994 62.5112C334.64 52.7082 339.019 41.0722 348.756 36.5722L396.71 14.4082C408.244 9.07715 422.136 13.1082 429.024 23.7832C436.578 35.4862 433.297 51.2992 421.71 59.0302L408.844 67.6152C405.294 69.9832 400.497 69.0252 398.129 65.4762C395.76 61.9272 396.718 57.1292 400.267 54.7612L413.133 46.1761C417.74 43.1021 419.044 36.8152 416.04 32.1622C413.302 27.9182 407.776 26.3152 403.193 28.4352L355.239 50.5992C353.122 51.5772 352.171 54.1072 353.117 56.2382L365.205 83.4532C366.937 87.3532 365.18 91.9182 361.279 93.6512C360.26 94.1032 359.195 94.3181 358.147 94.3181Z" fill="#ACA6D6"/>
<path d="M424.423 166.773C376.056 166.773 336.846 205.983 336.846 254.35C336.846 302.717 376.056 341.927 424.423 341.927C472.79 341.927 512 302.717 512 254.35C512 205.982 472.79 166.773 424.423 166.773ZM424.423 315.142C390.902 315.142 363.631 287.871 363.631 254.35C363.631 220.829 390.902 193.558 424.423 193.558C457.944 193.558 485.215 220.829 485.215 254.35C485.215 287.871 457.944 315.142 424.423 315.142Z" fill="#918291"/>
<path d="M424.423 166.773C419.869 166.773 415.397 167.122 411.03 167.792C453.04 174.239 485.214 210.536 485.214 254.35C485.214 298.163 453.04 334.461 411.03 340.908C415.396 341.578 419.869 341.927 424.423 341.927C472.79 341.927 512 302.717 512 254.35C512 205.982 472.79 166.773 424.423 166.773Z" fill="#7A6D79"/>
<path d="M87.577 166.773C39.21 166.773 0 205.982 0 254.35C0 302.717 39.21 341.927 87.577 341.927C135.944 341.927 175.154 302.717 175.154 254.35C175.154 205.982 135.944 166.773 87.577 166.773ZM87.577 315.142C54.056 315.142 26.785 287.871 26.785 254.35C26.785 220.829 54.056 193.558 87.577 193.558C121.098 193.558 148.369 220.829 148.369 254.35C148.369 287.871 121.098 315.142 87.577 315.142Z" fill="#918291"/>
<path d="M87.577 166.773C83.023 166.773 78.551 167.122 74.184 167.792C115.187 174.084 146.796 208.819 148.289 251.218C148.342 252.255 148.369 253.3 148.369 254.35C148.369 255.4 148.342 256.445 148.289 257.482C146.796 299.88 115.187 334.615 74.184 340.907C78.55 341.577 83.023 341.926 87.577 341.926C135.944 341.926 175.154 302.716 175.154 254.349C175.154 205.982 135.944 166.773 87.577 166.773Z" fill="#7A6D79"/>
<path d="M151.038 33.1862H86.026C76.882 33.1862 69.47 25.7732 69.47 16.6302C69.47 7.48622 76.883 0.0742188 86.026 0.0742188H103.956C108.577 0.0742188 113.163 0.884225 117.504 2.46622L125.73 5.46422C128.369 6.42622 131.156 6.91822 133.965 6.91822H151.039C158.293 6.91822 164.173 12.7982 164.173 20.0522C164.173 27.3062 158.292 33.1862 151.038 33.1862Z" fill="#ACA6D6"/>
<path d="M150.603 6.91822H133.965C131.156 6.91822 128.369 6.42622 125.73 5.46422L117.504 2.46622C113.162 0.883225 108.576 0.0742188 103.955 0.0742188H86.0259C84.7759 0.0742188 83.5629 0.224221 82.3929 0.487221C85.0829 0.875221 87.7319 1.53222 90.2949 2.46722L98.521 5.46522C101.16 6.42722 103.947 6.91922 106.756 6.91922H123.394C130.626 6.91922 136.829 12.5772 136.962 19.8072C137.097 27.1732 131.166 33.1872 123.83 33.1872H151.039C158.375 33.1872 164.306 27.1732 164.171 19.8072C164.038 12.5762 157.834 6.91822 150.603 6.91822Z" fill="#978ECB"/>
<path d="M436.861 245.565L376.472 108.953C376.369 108.685 365.325 83.7552 365.202 83.4562C363.152 78.4902 357.98 75.1323 352.613 75.2563H307.141L252.078 83.1473L203.969 75.2563H140.592C135.214 75.2253 130.074 78.6863 128.147 83.7143C127.931 84.1163 99.271 172.011 84.076 218.585C78.637 235.264 74.918 246.647 74.846 246.822C72.698 253.497 75.392 258.783 79.853 261.708L87.578 271.2L95.306 262.068C96.995 260.879 98.533 259.133 99.612 256.866L108.986 251.573L105.144 240.311L111.624 220.459L141.468 129.092C142.416 126.197 146.351 125.795 147.865 128.443L223.439 260.986C227.436 269.217 238.562 271.545 244.815 264.561L355.972 145.606C358.393 143.01 362.689 143.741 364.121 146.997L412.364 256.392C419.255 272.442 444.093 261.306 436.861 245.565ZM344.814 115.298L237.748 231.997L167.067 108.046C165.542 105.368 167.469 102.04 170.559 102.04H186.867L241.343 91.2643L290.04 102.04H338.984C342.116 102.04 344.959 103.884 346.216 106.748C346.669 107.778 346.896 108.87 346.896 109.952C346.895 111.888 346.174 113.804 344.814 115.298Z" fill="#FD4755"/>
<path d="M436.864 245.562L376.474 108.95C376.371 108.682 365.327 83.7523 365.204 83.4533C363.154 78.4873 357.982 75.1293 352.615 75.2533H323.33C328.697 75.1293 333.869 78.4883 335.919 83.4533C335.988 83.6203 344.208 102.122 351.236 117.938C352.851 121.573 352.143 125.818 349.437 128.734L224.752 263.111C229.487 269.55 239.147 270.893 244.817 264.559L355.967 145.61C358.395 143.011 362.689 143.74 364.124 146.994L412.366 256.389C419.258 272.44 444.095 261.303 436.864 245.562Z" fill="#EF3349"/>
<path d="M307.137 75.2534L290.037 102.037H186.864L203.964 75.2534H307.137Z" fill="#ACA6D6"/>
<path d="M242.806 281.631C242.806 285.896 239.345 289.357 235.08 289.357H100.96C89.3191 289.357 79.8521 279.89 79.8521 268.249V261.707C84.3851 264.725 90.6901 265.23 95.3051 262.068V268.249C95.3051 271.36 97.8501 273.905 100.961 273.905H235.08C239.344 273.905 242.806 277.366 242.806 281.631Z" fill="#E2DEE2"/>
<path d="M227.724 236.087L99.611 256.866C99.869 256.32 100.095 255.743 100.301 255.135L105.143 240.311L225.252 220.83C229.465 220.15 233.432 223.014 234.112 227.227C234.801 231.441 231.937 235.407 227.724 236.087Z" fill="#E2DEE2"/>
<path d="M235.078 289.355C254.411 289.355 270.083 273.683 270.083 254.35C270.083 235.017 254.411 219.345 235.078 219.345C215.745 219.345 200.073 235.017 200.073 254.35C200.073 273.683 215.745 289.355 235.078 289.355Z" fill="#DCF5F8"/>
<path d="M235.078 219.345C230.32 219.345 225.785 220.298 221.649 222.018C234.317 227.285 243.226 239.775 243.226 254.35C243.226 268.924 234.317 281.415 221.649 286.682C225.785 288.402 230.319 289.355 235.078 289.355C254.411 289.355 270.083 273.682 270.083 254.35C270.083 235.017 254.41 219.345 235.078 219.345Z" fill="#C0ECED"/>
<path d="M274.587 293.859C273.073 295.363 271.095 296.115 269.117 296.115C267.139 296.115 265.161 295.363 263.657 293.859L229.61 259.811C226.602 256.793 226.602 251.899 229.61 248.881C232.628 245.873 237.522 245.873 240.54 248.881L243.105 251.446L274.587 282.928C277.595 285.948 277.595 290.841 274.587 293.859Z" fill="#ACA6D6"/>
<path d="M274.587 293.859C273.073 295.363 271.095 296.115 269.117 296.115C267.139 296.115 265.161 295.363 263.657 293.859L239.623 269.825C241.931 265.158 243.229 259.904 243.229 254.352C243.229 253.373 243.188 252.405 243.105 251.447L274.587 282.929C277.595 285.948 277.595 290.841 274.587 293.859Z" fill="#978ECB"/>
</svg>
