<svg width="428" height="512" viewBox="0 0 428 512" fill="none" xmlns="http://www.w3.org/2000/svg">
<path d="M345.526 298.992L318.753 272.219L147.024 443.948L117.45 499.933L120.679 503.162L154.708 486.862C167.174 480.891 178.536 472.846 188.31 463.072L346.642 304.741L345.526 298.992Z" fill="#DBEDFF"/>
<path d="M136.98 469.134C142.951 456.668 150.996 445.306 160.77 435.532L319.101 277.201L324.196 277.663L305.097 258.564L300.002 258.102L141.67 416.433C131.896 426.207 123.852 437.569 117.88 450.035L93.5333 500.86C90.3693 507.465 97.2773 514.372 103.881 511.208L120.677 503.162L136.98 469.134Z" fill="#B5DCFF"/>
<path d="M382.732 291.944L313.404 222.616L313.566 229.03L323.643 241.899L316.419 266.97L318.24 284.817L324.221 296.82C342.038 308.172 365.15 307.838 382.661 295.822L382.732 291.944Z" fill="#B5DCFF"/>
<path d="M328.02 241.182L331.898 241.109L312.799 222.01L308.921 222.083C294.744 242.745 296.821 271.204 315.18 289.563C318.481 292.864 322.113 295.631 325.963 297.88C315.708 280.317 316.392 258.129 328.02 241.182V241.182Z" fill="#8BCAFF"/>
<path d="M424.317 275.382L343.156 194.221L335.419 192.365L313.201 214.583L313.506 226.669L393.268 306.431C397.957 311.12 405.56 311.12 410.249 306.431L424.316 292.364C429.007 287.674 429.007 280.071 424.317 275.382V275.382Z" fill="#DBEDFF"/>
<path d="M317.412 213.592L331.479 199.525C336.168 194.836 343.771 194.836 348.46 199.525L329.361 180.426C324.672 175.737 317.069 175.737 312.38 180.426L298.313 194.493C293.624 199.182 293.624 206.785 298.313 211.474L317.412 230.573C312.722 225.884 312.722 218.281 317.412 213.592Z" fill="#B5DCFF"/>
<path d="M107.442 72.408H69.5801V315.269L88.2551 375.769H92.8221L105.358 340.181C109.951 327.144 112.297 313.421 112.297 299.599V75.684L107.442 72.408Z" fill="#DBEDFF"/>
<path d="M80.286 340.18C75.693 327.143 73.347 313.42 73.347 299.598V75.684L77.277 72.408H50.267L46.337 75.684V299.599C46.337 313.422 48.683 327.144 53.276 340.181L72 393.335C74.433 400.242 84.202 400.242 86.635 393.335L92.823 375.769L80.286 340.18Z" fill="#B5DCFF"/>
<path d="M128.767 41.116H30.723L35.373 45.537L51.598 47.511L64.218 70.347L78.125 81.679L90.841 85.938C111.467 81.366 127.573 64.788 131.458 43.909L128.767 41.116Z" fill="#B5DCFF"/>
<path d="M54.186 43.909L56.878 41.116H29.868L27.176 43.909C31.761 68.543 53.354 87.199 79.318 87.199C83.986 87.199 88.51 86.587 92.823 85.454C73.152 80.288 57.947 64.114 54.186 43.909V43.909Z" fill="#8BCAFF"/>
<path d="M119.172 147.791L35.728 127.003C31.587 125.972 29.067 121.779 30.099 117.638C31.131 113.497 35.325 110.978 39.464 112.009L122.908 132.797C127.049 133.828 129.569 138.021 128.537 142.162C127.505 146.301 123.313 148.824 119.172 147.791V147.791Z" fill="#8BCAFF"/>
<path d="M119.172 194.133L35.7282 173.345C31.5872 172.314 29.0672 168.121 30.0992 163.98C31.1312 159.839 35.3252 157.319 39.4642 158.351L122.908 179.139C127.049 180.17 129.569 184.363 128.537 188.504C127.501 192.66 123.292 195.164 119.172 194.133V194.133Z" fill="#8BCAFF"/>
<path d="M119.172 240.476L35.7282 219.688C31.5872 218.657 29.0672 214.464 30.0992 210.324C31.1302 206.182 35.3242 203.657 39.4642 204.694L122.908 225.482C127.049 226.513 129.569 230.706 128.537 234.846C127.501 239.002 123.293 241.507 119.172 240.476V240.476Z" fill="#8BCAFF"/>
<path d="M119.172 286.818L35.7271 266.03C31.5861 264.999 29.0661 260.806 30.0981 256.666C31.1291 252.524 35.3231 250.001 39.4631 251.036L122.907 271.824C127.048 272.855 129.568 277.048 128.536 281.188C127.501 285.344 123.293 287.849 119.172 286.818V286.818Z" fill="#8BCAFF"/>
<path d="M121.045 333.393C120.426 333.393 119.799 333.319 119.171 333.162L35.7271 312.374C31.5861 311.343 29.0661 307.15 30.0981 303.01C31.1291 298.868 35.3231 296.342 39.4631 297.38L122.907 318.168C127.048 319.199 129.568 323.392 128.536 327.532C127.661 331.046 124.51 333.393 121.045 333.393V333.393Z" fill="#8BCAFF"/>
<path d="M317.857 348.532L244.154 304.227C240.497 302.029 239.314 297.282 241.513 293.624C243.712 289.967 248.457 288.782 252.116 290.983L325.819 335.288C329.476 337.486 330.659 342.233 328.46 345.891C326.26 349.55 321.511 350.729 317.857 348.532Z" fill="#8BCAFF"/>
<path d="M285.088 381.301L211.385 336.996C207.728 334.798 206.545 330.051 208.743 326.393C210.942 322.736 215.687 321.553 219.346 323.752L293.049 368.057C296.706 370.255 297.889 375.002 295.69 378.66C293.491 382.319 288.742 383.499 285.088 381.301V381.301Z" fill="#8BCAFF"/>
<path d="M252.317 414.071L178.614 369.765C174.957 367.567 173.774 362.819 175.973 359.162C178.171 355.505 182.918 354.32 186.576 356.521L260.279 400.827C263.936 403.025 265.119 407.773 262.92 411.43C260.72 415.09 255.969 416.268 252.317 414.071Z" fill="#8BCAFF"/>
<path d="M219.548 446.839L145.845 402.534C142.188 400.336 141.005 395.589 143.204 391.931C145.403 388.274 150.148 387.09 153.807 389.29L227.51 433.595C231.167 435.793 232.35 440.54 230.151 444.198C227.952 447.858 223.203 449.036 219.548 446.839Z" fill="#8BCAFF"/>
<path d="M186.779 479.609L113.076 435.304C109.419 433.106 108.236 428.359 110.435 424.701C112.634 421.043 117.38 419.86 121.038 422.06L194.741 466.365C198.398 468.563 199.581 473.31 197.382 476.968C195.183 480.627 190.434 481.806 186.779 479.609Z" fill="#8BCAFF"/>
<path d="M146.462 0H31.683L24.9 4.158V35.578L33.661 43.908H146.462C153.094 43.908 158.469 38.532 158.469 31.901V12.007C158.469 5.376 153.093 0 146.462 0V0Z" fill="#DBEDFF"/>
<path d="M27.176 31.902V12.007C27.176 5.376 32.551 0 39.183 0H12.173C5.54102 0 0.166016 5.376 0.166016 12.007V31.901C0.166016 38.533 5.54202 43.908 12.173 43.908H39.183C32.551 43.909 27.176 38.533 27.176 31.902Z" fill="#B5DCFF"/>
</svg>
