<svg width="20" height="19" viewBox="0 0 20 19" fill="none" xmlns="http://www.w3.org/2000/svg">
<path d="M16.6517 4.3291V8.32553H2.7005C1.76134 8.32553 0.999023 7.43033 0.999023 6.32732C0.999023 5.2243 1.76134 4.3291 2.7005 4.3291H16.6517Z" fill="#F5EFCA"/>
<path d="M17.3179 8.65865C17.3168 9.02605 17.0192 9.32362 16.6518 9.32472H2.99732C1.34195 9.32472 0 7.98277 0 6.3274C0 4.67202 1.34195 3.33008 2.99732 3.33008H16.6518C17.0196 3.33008 17.3179 3.62829 17.3179 3.99615C17.3179 4.36401 17.0196 4.66222 16.6518 4.66222H2.99732C2.07767 4.66222 1.33214 5.40775 1.33214 6.3274C1.33214 7.24705 2.07767 7.99258 2.99732 7.99258H16.6518C17.0192 7.99368 17.3168 8.29124 17.3179 8.65865Z" fill="#F29C1F"/>
<path d="M18.6499 9.3252H1.9981C1.63024 9.3252 1.33203 9.62341 1.33203 9.99127V13.3216C1.33203 13.6895 1.63024 13.9877 1.9981 13.9877H18.6499C19.0177 13.9877 19.316 13.6895 19.316 13.3216V9.99127C19.316 9.62341 19.0177 9.3252 18.6499 9.3252Z" fill="#7D6599"/>
<path d="M17.3179 13.9873H0.666071C0.29821 13.9873 0 14.2855 0 14.6534V17.9837C0 18.3516 0.29821 18.6498 0.666071 18.6498H17.3179C17.6857 18.6498 17.9839 18.3516 17.9839 17.9837V14.6534C17.9839 14.2855 17.6857 13.9873 17.3179 13.9873Z" fill="#E64C3C"/>
<path d="M17.3179 0H0.666071C0.29821 0 0 0.29821 0 0.666071V2.66429C0 3.03215 0.29821 3.33036 0.666071 3.33036H17.3179C17.6857 3.33036 17.9839 3.03215 17.9839 2.66429V0.666071C17.9839 0.29821 17.6857 0 17.3179 0Z" fill="#3B97D3"/>
<path d="M2.66431 0H3.99645V3.33036H2.66431V0Z" fill="#67B9CC"/>
<path d="M13.9875 0H15.3197V3.33036H13.9875V0Z" fill="#67B9CC"/>
<path d="M13.9875 10.6572H6.66067C6.47674 10.6572 6.32764 10.8063 6.32764 10.9903V12.3224C6.32764 12.5063 6.47674 12.6554 6.66067 12.6554H13.9875C14.1714 12.6554 14.3205 12.5063 14.3205 12.3224V10.9903C14.3205 10.8063 14.1714 10.6572 13.9875 10.6572Z" fill="#9FC9D3"/>
<path d="M15.9856 9.3252H16.6517V13.9877H15.9856V9.3252Z" fill="#B49ACA"/>
<path d="M3.99634 9.3252H4.66241V13.9877H3.99634V9.3252Z" fill="#B49ACA"/>
<path d="M8.99195 17.3175C10.6473 17.3175 11.9893 16.8702 11.9893 16.3184C11.9893 15.7667 10.6473 15.3193 8.99195 15.3193C7.33658 15.3193 5.99463 15.7667 5.99463 16.3184C5.99463 16.8702 7.33658 17.3175 8.99195 17.3175Z" fill="#F5EFCA"/>
<path d="M1.99829 13.9873H3.33043V18.6498H1.99829V13.9873Z" fill="#F29C1F"/>
<path d="M14.6536 13.9873H15.9857V18.6498H14.6536V13.9873Z" fill="#F29C1F"/>
</svg>
