<svg width="21" height="19" viewBox="0 0 21 19" fill="none" xmlns="http://www.w3.org/2000/svg">
<path d="M11.944 8.15571L8.95337 5.16504L7.0256 7.09281L10.0163 10.0835L11.944 8.15571Z" fill="#717F88"/>
<path d="M10.7612 9.33833L7.77051 6.34766L7.02528 7.09289L10.0159 10.0836L10.7612 9.33833Z" fill="#5D6970"/>
<path d="M11.6966 7.28802L19.9906 15.5819C20.7034 16.2947 20.693 17.4611 19.9595 18.1608C19.2474 18.8398 18.1142 18.8025 17.4182 18.1066L9.14809 9.83648C9.02843 9.71682 9.02843 9.52303 9.14809 9.40337L9.24191 9.30956L11.1697 7.38179L11.2635 7.28798C11.3832 7.16832 11.5769 7.16832 11.6966 7.28802Z" fill="#B58058"/>
<path d="M18.1301 17.3947L9.85995 9.12456C9.7403 9.0049 9.7403 8.81106 9.85995 8.69141L9.2419 9.30946L9.14809 9.40327C9.02843 9.52293 9.02843 9.71676 9.14809 9.83642L17.4182 18.1065C18.1141 18.8025 19.2474 18.8397 19.9595 18.1607C20.0977 18.0289 20.2102 17.8805 20.297 17.7216C19.6046 18.0983 18.7137 17.9783 18.1301 17.3947Z" fill="#8E6047"/>
<path d="M14.2428 0.641489C12.4808 1.42368 10.4927 3.23339 9.76116 4.49918L7.7825 5.60628L6.52637 4.727L7.58622 2.32264L7.58707 2.3218C8.08662 1.82185 8.44964 1.45882 8.48899 1.41987C9.97219 -0.0632391 12.3208 -0.487415 14.2428 0.641489Z" fill="#717F88"/>
<path d="M14.2428 0.641666C12.4808 1.42386 10.4927 3.23356 9.76122 4.49936L9.07284 3.81098L8.95142 3.68912C9.04018 3.49733 9.09628 3.3759 9.10758 3.35162C9.99023 1.44898 12.0495 0.242617 14.2428 0.641666Z" fill="#5D6970"/>
<path d="M3.81174 5.15625L6.49493 5.82692L6.95617 8.30064L6.88308 8.41032C6.45165 8.19548 5.84434 8.32688 5.40465 8.76657C4.96769 9.20353 4.83525 9.80631 5.04532 10.2371L4.99843 10.2585L2.66384 9.78371L1.854 7.11399L1.87745 7.06293C2.30747 7.26538 2.9034 7.13158 3.33655 6.69843C3.77692 6.25806 3.90832 5.64867 3.69144 5.21724L3.81174 5.15625Z" fill="#5D6970"/>
<path d="M1.87743 7.06209L1.85399 7.11315L4.99846 10.2576L5.04534 10.2362C5.08533 10.319 5.13847 10.3955 5.20399 10.4631L3.5676 12.0995L0 8.5319L1.63639 6.89551C1.70776 6.96552 1.78879 7.02106 1.87743 7.06209Z" fill="#717F88"/>
<path d="M4.25168 9.43682L4.21845 9.4781L5.14355 10.4032L5.18145 10.3728C5.17813 10.4122 5.18546 10.443 5.20402 10.4636L3.56762 12.1L2.51807 11.0505L4.15446 9.41406C4.17594 9.43426 4.2088 9.44155 4.25168 9.43682Z" fill="#5D6970"/>
<path d="M6.44086 2.09171C6.69352 1.83905 7.10319 1.83925 7.35561 2.09215L7.58611 2.32313L9.07247 3.81153L9.76081 4.49987L10.0072 4.74624C10.2597 4.99874 10.2597 5.40805 10.0072 5.66051L9.72735 5.94034L9.72703 5.94002L7.79926 7.86779L7.79958 7.86811L7.10227 8.56542C7.03639 8.50163 6.96257 8.44989 6.88295 8.41026L6.95604 8.30058L3.81157 5.15611L3.69123 5.21714C3.65124 5.13712 3.59883 5.06334 3.53467 4.99782L6.44086 2.09171Z" fill="#717F88"/>
</svg>
