<svg width="22" height="8" viewBox="0 0 22 8" fill="none" xmlns="http://www.w3.org/2000/svg">
<path d="M21.4975 4.50803L21.2643 3.81449C21.1286 3.61154 20.9395 3.44504 20.7095 3.33817C18.7484 2.4274 15.6048 2.4274 15.6048 2.4274L12.8978 0.704797C12.1745 0.244478 11.3349 0 10.4776 0H7.38798C6.6343 0 5.891 0.175485 5.21686 0.512515L3.5711 1.33539C3.04364 1.5991 2.47519 1.77123 1.89007 1.84438L0.693543 1.99396L0.188965 2.69287V4.44966C0.188965 4.90905 0.301336 5.31407 0.741372 5.44609L3.46771 6.26402H20.8064L21.5 5.89516V4.59193C21.5 4.56384 21.4992 4.53583 21.4975 4.50803Z" fill="#C3DDFF"/>
<path d="M20.7265 5.89538C20.4028 5.89538 20.1243 5.67064 20.0525 5.35503C19.8069 4.27448 18.8404 3.46798 17.6855 3.46798C16.5306 3.46798 15.5641 4.27448 15.3184 5.35503C15.2466 5.67068 14.9681 5.89538 14.6444 5.89538H7.20233C6.87865 5.89538 6.60012 5.67064 6.52836 5.35503C6.2827 4.27448 5.31621 3.46798 4.1613 3.46798C3.20749 3.46798 2.38511 4.01909 1.98951 4.81975C1.83997 5.12235 1.49517 5.27306 1.17188 5.17606C0.887967 5.0909 0.693543 4.82958 0.693543 4.53316V1.99414L0.607501 2.00489C0.260435 2.04831 0 2.34335 0 2.6931V2.77444L0.283447 3.28985L0 3.81475V4.77457C0 5.23396 0.301336 5.63902 0.741372 5.771L3.46771 6.58892H20.8064C21.1895 6.58892 21.5 6.27839 21.5 5.89538H20.7265Z" fill="#A4CCFF"/>
<path d="M13.8107 2.10757L12.5255 1.28969C11.9135 0.900213 11.2031 0.693359 10.4776 0.693359H9.70968L9.33981 0.920369L9.01614 0.693359H7.38802C7.03196 0.693359 6.67864 0.739047 6.33645 0.828406L5.56102 1.11588C5.54968 1.12143 5.53834 1.12701 5.52705 1.13268L4.75918 1.51662C4.60566 1.59338 4.57244 1.79801 4.6938 1.9194C4.76896 1.99457 4.8503 2.06209 4.9366 2.12151L13.2232 2.42722H13.7176C13.8911 2.42726 13.9571 2.20071 13.8107 2.10757Z" fill="#8BB3EA"/>
<path d="M10.4775 1.38672H7.3879C6.74185 1.38672 6.10475 1.53713 5.52693 1.82604L4.93652 2.12133C5.04868 2.19843 5.16937 2.26192 5.29589 2.31071L5.98074 2.42703H9.01606L9.36947 2.15543L9.70961 2.42703H13.2231L12.5255 1.98305C11.9134 1.59357 11.2029 1.38672 10.4775 1.38672Z" fill="#739AD6"/>
<path d="M14.2177 5.20136H7.629C7.43735 5.20136 7.28223 5.04607 7.28223 4.85458C7.28223 4.6631 7.43735 4.50781 7.629 4.50781H14.2177C14.4093 4.50781 14.5645 4.6631 14.5645 4.85458C14.5645 5.04611 14.4094 5.20136 14.2177 5.20136Z" fill="#DBEAFF"/>
<path d="M4.16135 7.62885C5.11893 7.62885 5.8952 6.85257 5.8952 5.89499C5.8952 4.93741 5.11893 4.16113 4.16135 4.16113C3.20376 4.16113 2.42749 4.93741 2.42749 5.89499C2.42749 6.85257 3.20376 7.62885 4.16135 7.62885Z" fill="#5D5360"/>
<path d="M4.16141 6.93512C4.73596 6.93512 5.20172 6.46936 5.20172 5.89481C5.20172 5.32026 4.73596 4.85449 4.16141 4.85449C3.58686 4.85449 3.12109 5.32026 3.12109 5.89481C3.12109 6.46936 3.58686 6.93512 4.16141 6.93512Z" fill="#DAD8DB"/>
<path d="M4.16122 6.24237C4.35274 6.24237 4.508 6.08712 4.508 5.8956C4.508 5.70408 4.35274 5.54883 4.16122 5.54883C3.96971 5.54883 3.81445 5.70408 3.81445 5.8956C3.81445 6.08712 3.96971 6.24237 4.16122 6.24237Z" fill="#ECEAEC"/>
<path d="M17.6855 7.62885C18.6431 7.62885 19.4194 6.85257 19.4194 5.89499C19.4194 4.93741 18.6431 4.16113 17.6855 4.16113C16.7279 4.16113 15.9517 4.93741 15.9517 5.89499C15.9517 6.85257 16.7279 7.62885 17.6855 7.62885Z" fill="#5D5360"/>
<path d="M17.6856 6.93512C18.2601 6.93512 18.7259 6.46936 18.7259 5.89481C18.7259 5.32026 18.2601 4.85449 17.6856 4.85449C17.111 4.85449 16.6453 5.32026 16.6453 5.89481C16.6453 6.46936 17.111 6.93512 17.6856 6.93512Z" fill="#DAD8DB"/>
<path d="M17.6854 6.24237C17.8769 6.24237 18.0322 6.08712 18.0322 5.8956C18.0322 5.70408 17.8769 5.54883 17.6854 5.54883C17.4939 5.54883 17.3386 5.70408 17.3386 5.8956C17.3386 6.08712 17.4939 6.24237 17.6854 6.24237Z" fill="#ECEAEC"/>
<path d="M5.56091 1.11658L5.2959 2.31159C5.49322 2.38777 5.70419 2.42791 5.91973 2.42791H5.98075L6.33638 0.829102C6.07044 0.898725 5.80934 0.995097 5.56091 1.11658Z" fill="#5A82C3"/>
<path d="M9.01611 0.693359H9.70966V2.42722H9.01611V0.693359Z" fill="#5A82C3"/>
<path d="M21.4973 4.508C21.4822 4.25629 21.4007 4.01757 21.2644 3.81445H20.8065C20.615 3.81445 20.4597 3.9697 20.4597 4.16122C20.4597 4.35271 20.615 4.508 20.8065 4.508H21.4973Z" fill="#FFF0AF"/>
<path d="M0 3.81473H0.693543C0.885069 3.81473 1.04031 3.65948 1.04031 3.46796V3.12119C1.04031 2.92966 0.885069 2.77441 0.693543 2.77441H0V3.81473Z" fill="#FF8086"/>
</svg>
