<svg width="512" height="512" viewBox="0 0 512 512" fill="none" xmlns="http://www.w3.org/2000/svg">
<path d="M211.478 100.174H330.665C346.299 100.174 360.59 109.007 367.581 122.989L445.217 278.261H470.726C493.521 278.261 512 296.74 512 319.535V415.074C512 437.869 493.521 456.348 470.726 456.348H445.217H327.235H184.765H66.783H50.529C22.623 456.348 0 433.725 0 405.819V150.703C0 122.797 22.623 100.174 50.529 100.174H77.913H211.478Z" fill="#A5DDD3"/>
<path d="M400.696 311.652H289.391L256 100.174H311.652L400.696 311.652Z" fill="#7EC1B4"/>
<path d="M512 319.535V415.074C512 437.869 493.521 456.348 470.726 456.348H445.217H327.235H184.765H66.783H50.529C22.623 456.348 0 433.725 0 405.819V150.703C0 122.797 22.623 100.174 50.529 100.174H77.913H211.478H263.95L283.93 240.036C287.063 261.97 305.848 278.261 328.004 278.261H445.216H467.477H470.725C493.521 278.261 512 296.74 512 319.535Z" fill="#FF4800"/>
<path d="M512 345.043V415.073C512 437.868 493.521 456.347 470.726 456.347H445.217H327.235H184.765H66.783H50.529C22.623 456.348 0 433.725 0 405.819V345.043H512Z" fill="#C92B00"/>
<path d="M178.087 456.348C178.087 487.084 153.17 512 122.435 512C91.7 512 66.783 487.083 66.783 456.348C66.783 425.613 91.7 400.696 122.435 400.696C153.17 400.696 178.087 425.612 178.087 456.348ZM389.565 400.696C358.829 400.696 333.913 425.613 333.913 456.348C333.913 487.083 358.83 512 389.565 512C420.3 512 445.217 487.083 445.217 456.348C445.217 425.613 420.301 400.696 389.565 400.696Z" fill="#145B60"/>
<path d="M144.696 456.348C144.696 468.643 134.73 478.609 122.435 478.609C110.14 478.609 100.174 468.643 100.174 456.348C100.174 444.053 110.14 434.087 122.435 434.087C134.73 434.087 144.696 444.053 144.696 456.348ZM389.565 434.087C377.27 434.087 367.304 444.053 367.304 456.348C367.304 468.643 377.27 478.609 389.565 478.609C401.86 478.609 411.826 468.643 411.826 456.348C411.826 444.053 401.86 434.087 389.565 434.087Z" fill="#FFF48B"/>
<path d="M323.896 345.043C323.896 351.19 318.913 356.173 312.766 356.173H310.54C304.393 356.173 299.41 351.19 299.41 345.043C299.41 338.896 304.393 333.913 310.54 333.913H312.766C318.913 333.913 323.896 338.896 323.896 345.043ZM370.643 333.913C364.496 333.913 359.513 338.896 359.513 345.043C359.513 351.19 364.496 356.173 370.643 356.173H512V333.912H370.643V333.913Z" fill="#EA7C18"/>
<path d="M153.933 146.922V313.878C153.933 320.025 148.95 325.008 142.803 325.008C136.656 325.008 131.673 320.025 131.673 313.878V146.922C131.673 140.775 136.656 135.792 142.803 135.792C148.95 135.791 153.933 140.774 153.933 146.922Z" fill="#7A4301"/>
<path d="M163.17 267.13H122.436C97.12 267.13 76.899 246.049 77.953 220.755L85.374 42.668C86.367 18.822 105.988 0 129.855 0H155.749C179.617 0 199.239 18.822 200.232 42.669L207.653 220.756C208.707 246.049 188.486 267.13 163.17 267.13Z" fill="#F7DB4F"/>
<path d="M142.802 0V267.13H122.434C97.118 267.13 76.897 246.049 77.951 220.755L85.372 42.668C86.367 18.822 105.988 0 129.855 0H142.802Z" fill="#FFF48B"/>
<path d="M174.301 44.5222V200.348C174.301 212.643 164.335 222.609 152.04 222.609H133.565C121.27 222.609 111.304 212.643 111.304 200.348V44.5222C111.304 32.2272 121.27 22.2612 133.565 22.2612H152.04C164.334 22.2612 174.301 32.2272 174.301 44.5222Z" fill="#EA7C18"/>
<path d="M153.933 146.922V267.13H131.672V146.922C131.672 140.775 136.655 135.792 142.802 135.792C148.95 135.791 153.933 140.774 153.933 146.922Z" fill="#EDB311"/>
<path d="M153.933 100.174V102.4C153.933 108.547 148.95 113.53 142.803 113.53C136.656 113.53 131.673 108.547 131.673 102.4V100.174C131.673 94.027 136.656 89.0439 142.803 89.0439C148.95 89.0429 153.933 94.027 153.933 100.174ZM142.802 135.791C136.655 135.791 131.672 140.774 131.672 146.921V222.608H153.933V146.921C153.933 140.774 148.95 135.791 142.802 135.791Z" fill="#F9BB4E"/>
</svg>
