<svg width="464" height="512" viewBox="0 0 464 512" fill="none" xmlns="http://www.w3.org/2000/svg">
<path d="M373.309 388.887V490.759C373.309 502.491 363.8 512 352.068 512H107.211L76.101 483.577L44.991 511.998L22.165 512C10.433 512 0.924011 502.491 0.924011 490.759V388.887C0.924011 365.434 19.932 346.435 43.376 346.435L107.211 346.43L187.113 371.184L267.015 346.43L330.857 346.435C354.3 346.435 373.309 365.433 373.309 388.887Z" fill="#BEC6ED"/>
<path d="M373.309 388.887V490.759C373.309 502.491 363.8 512 352.068 512H311.423C323.155 512 332.674 502.491 332.674 490.759V459.927C332.674 455.573 330.36 451.504 326.544 449.403C302.329 436.068 285.929 410.31 285.929 380.717C285.929 368.427 288.76 356.786 293.804 346.435H330.857C354.3 346.435 373.309 365.433 373.309 388.887Z" fill="#A2AEE6"/>
<path d="M219.658 346.435L209.144 393.849L187.111 450.59L179.469 431.683L163.708 392.713L154.565 346.435H219.658Z" fill="#E5E1E5"/>
<path d="M219.658 346.435L209.144 393.849L187.111 450.59L179.469 431.683L176.953 418.074L199.341 346.435H219.658Z" fill="#D7D0D6"/>
<path d="M219.661 346.43H246.696L259.197 404.731C259.197 412.821 234.185 421.579 231.999 425.179L184.642 485.051L182.947 466.562L187.114 450.591L219.661 346.43Z" fill="#838383"/>
<path d="M246.695 346.43V404.731C246.695 412.821 240.136 419.38 232.046 419.38C226.44 419.38 221.241 422.306 218.333 427.098L187.113 478.526L184.642 485.051L187.113 511.998L239.818 425.179C242.004 421.578 245.91 419.38 250.122 419.38H252.366C260.456 419.38 267.015 412.821 267.015 404.731V346.43H246.695Z" fill="#696969"/>
<path d="M134.246 346.43H107.211L100.271 372.708L107.211 404.731C107.211 412.821 113.77 419.38 121.86 419.38H124.104C128.316 419.38 132.223 421.579 134.408 425.179L166.793 478.526L182.946 452.146L134.246 346.43Z" fill="#838383"/>
<path d="M154.565 346.43H134.245L165.353 445.984C166.307 449.038 166.793 452.219 166.793 455.418V478.526L187.113 511.999V450.592L154.565 346.43Z" fill="#696969"/>
<path d="M154.565 295.848L187.113 288.128L219.661 295.848V346.43C203.33 357.78 176.954 357.78 176.954 357.78C168.865 356.065 161.122 352.289 154.566 346.43V295.848H154.565Z" fill="#FFB09E"/>
<path d="M199.341 291.028V342.3C199.341 345.063 198.027 347.665 195.805 349.308C190.073 353.545 183.631 356.365 176.954 357.781C191.738 360.915 207.68 357.139 219.661 346.431V295.849L199.341 291.028Z" fill="#FFA78F"/>
<path d="M76.101 511.998H107.211V336.195C107.211 327.604 100.247 320.64 91.656 320.64C83.065 320.64 76.101 327.604 76.101 336.195L67.505 422.618L76.101 511.998Z" fill="#D77F4A"/>
<path d="M44.992 511.998H76.102V336.195C76.102 327.604 69.138 320.64 60.547 320.64C51.956 320.64 44.992 327.604 44.992 336.195V511.998Z" fill="#E19974"/>
<path d="M384.679 459.115C427.976 459.115 463.075 424.016 463.075 380.719C463.075 337.422 427.976 302.323 384.679 302.323C341.382 302.323 306.283 337.422 306.283 380.719C306.283 424.016 341.382 459.115 384.679 459.115Z" fill="#FFD15B"/>
<path d="M384.679 302.322C379.453 302.322 374.35 302.844 369.411 303.82C405.397 310.926 432.539 342.648 432.539 380.719C432.539 418.79 405.398 450.512 369.411 457.618C374.351 458.593 379.453 459.116 384.679 459.116C427.976 459.116 463.076 424.017 463.076 380.72C463.076 337.421 427.977 302.322 384.679 302.322Z" fill="#FFC344"/>
<path d="M277.371 481.785H252.363C248.159 481.785 244.752 478.377 244.752 474.173C244.752 469.969 248.159 466.562 252.363 466.562H277.371C281.575 466.562 284.982 469.97 284.982 474.173C284.982 478.376 281.575 481.785 277.371 481.785Z" fill="#4F66D0"/>
<path d="M385.704 422.62C384.792 422.62 383.865 422.455 382.963 422.107C379.042 420.592 377.092 416.185 378.606 412.264L387.852 388.33H370.409C367.9 388.33 365.551 387.093 364.132 385.023C362.713 382.953 362.405 380.316 363.309 377.975L376.555 343.687C378.069 339.766 382.475 337.813 386.398 339.33C390.319 340.845 392.269 345.252 390.755 349.173L381.509 373.107H398.952C401.461 373.107 403.81 374.344 405.229 376.414C406.648 378.484 406.956 381.121 406.052 383.462L392.806 417.75C391.639 420.769 388.758 422.62 385.704 422.62Z" fill="#FD4755"/>
<path d="M277.371 229.445H302.718C313.729 229.445 322.655 220.519 322.655 209.508V180.084C322.655 169.073 313.729 160.147 302.718 160.147H277.371L270.194 194.796L277.371 229.445Z" fill="#FFCEBF"/>
<path d="M302.718 160.147H282.398C293.409 160.147 302.335 169.073 302.335 180.084V209.508C302.335 220.519 293.409 229.445 282.398 229.445H302.718C313.729 229.445 322.655 220.519 322.655 209.508V180.084C322.654 169.073 313.728 160.147 302.718 160.147Z" fill="#FFB09E"/>
<path d="M71.508 229.445H107.004L96.855 160.148H71.508C60.497 160.148 51.571 169.074 51.571 180.085V209.509C51.572 220.519 60.498 229.445 71.508 229.445Z" fill="#FFCEBF"/>
<path d="M76.535 160.147V229.445H107.004L96.855 160.147H76.535Z" fill="#FFB09E"/>
<path d="M141.06 7.61108H233.166C264.586 7.61108 290.056 33.0821 290.056 64.5011V88.3901L188.28 96.0031L84.169 88.3911V64.5021C84.169 33.0821 109.64 7.61108 141.06 7.61108Z" fill="#FFE177"/>
<path d="M233.166 7.61108H216.622C238.356 7.61108 259.604 33.0821 259.604 64.5011V88.3901L263.497 90.3761L290.056 88.3901V64.5021C290.057 33.0821 264.586 7.61108 233.166 7.61108Z" fill="#FFD15B"/>
<path d="M165.215 96.003C161.011 96.003 157.604 92.595 157.604 88.392V7.611C157.604 3.407 161.011 0 165.215 0C169.419 0 172.826 3.408 172.826 7.611V88.391C172.826 92.595 169.419 96.003 165.215 96.003Z" fill="#FFD15B"/>
<path d="M209.011 96.003C204.807 96.003 201.4 92.595 201.4 88.392V7.611C201.4 3.407 204.807 0 209.011 0C213.215 0 216.622 3.408 216.622 7.611V88.391C216.622 92.595 213.215 96.003 209.011 96.003Z" fill="#FFD15B"/>
<path d="M219.661 295.848H154.566C122.694 295.848 96.856 270.01 96.856 238.138V160.148H277.372V238.138C277.371 270.01 251.533 295.848 219.661 295.848Z" fill="#FFCEBF"/>
<path d="M257.051 160.147V238.137C257.051 270.009 231.213 295.847 199.341 295.847H219.661C251.534 295.847 277.371 270.009 277.371 238.137V160.147H257.051Z" fill="#FFB09E"/>
<path d="M187.113 202.407C182.909 202.407 179.502 198.999 179.502 194.796V166.307C179.502 162.103 182.909 158.696 187.113 158.696C191.317 158.696 194.724 162.104 194.724 166.307V194.796C194.724 199 191.317 202.407 187.113 202.407Z" fill="#FFB09E"/>
<path d="M96.855 112.308V160.147L144.915 183.139C150.903 186.004 157.955 185.522 163.498 181.869L182.993 169.022C185.493 167.375 188.734 167.375 191.233 169.022L201.113 175.533C206.656 179.186 213.707 179.668 219.696 176.803L267.146 157.827L277.371 112.308H96.855Z" fill="#4F66D0"/>
<path d="M257.051 112.308V153.365C257.051 155.641 255.72 157.707 253.648 158.649L216.965 175.32C211.922 177.733 206.128 177.762 201.113 175.533L210.728 181.869C216.271 185.522 223.322 186.004 229.311 183.139L277.371 160.147V112.308H257.051Z" fill="#3B58C4"/>
<path d="M83.085 122.457H291.14C300.547 122.457 308.173 114.831 308.173 105.424C308.173 96.0171 300.547 88.3911 291.14 88.3911H83.085C73.678 88.3911 66.052 96.0171 66.052 105.424C66.052 114.831 73.678 122.457 83.085 122.457Z" fill="#FFD15B"/>
<path d="M291.141 88.3911H260.689C270.096 88.3911 277.722 96.0171 277.722 105.424C277.722 114.831 270.096 122.457 260.689 122.457H291.141C300.548 122.457 308.174 114.831 308.174 105.424C308.174 96.0171 300.548 88.3911 291.141 88.3911Z" fill="#FFC344"/>
<path d="M186.807 246.656C176.62 246.656 169.854 243.359 169.437 243.151C165.678 241.271 164.154 236.699 166.034 232.939C167.902 229.2 172.433 227.673 176.182 229.503C176.703 229.747 186.057 233.961 198.712 229.216C202.648 227.742 207.036 229.734 208.512 233.67C209.988 237.606 207.994 241.993 204.058 243.469C197.708 245.85 191.839 246.656 186.807 246.656Z" fill="#FFB09E"/>
</svg>
