<svg width="12" height="19" viewBox="0 0 12 19" fill="none" xmlns="http://www.w3.org/2000/svg">
<path d="M10.4194 18.6521H0.938458C0.576306 18.6521 0.282715 18.3585 0.282715 17.9964V0.655743C0.282715 0.293591 0.576306 0 0.938458 0H10.4194C10.7816 0 11.0752 0.293591 11.0752 0.655743V17.9964C11.0752 18.3585 10.7816 18.6521 10.4194 18.6521Z" fill="#695E66"/>
<path d="M10.4193 0H9.67736V16.5984C9.67736 16.9607 9.3837 17.2543 9.02148 17.2543H0.282715V17.9962C0.282715 18.3584 0.576378 18.6521 0.938604 18.6521H10.4192C10.7815 18.6521 11.0751 18.3584 11.0751 17.9962V0.655889C11.0752 0.293664 10.7815 0 10.4193 0V0Z" fill="#453E43"/>
<path d="M9.59809 15.3421H1.70404C1.54309 15.3421 1.4126 15.2116 1.4126 15.0507V2.26996C1.4126 2.10901 1.54309 1.97852 1.70404 1.97852H9.59809C9.75904 1.97852 9.88954 2.10901 9.88954 2.26996V15.0507C9.88954 15.2117 9.75904 15.3421 9.59809 15.3421V15.3421Z" fill="#62D8F9"/>
<path d="M9.59802 1.97852H9.09725V14.2583C9.09725 14.4193 8.96672 14.5498 8.80574 14.5498H1.4126V15.0506C1.4126 15.2116 1.54313 15.3422 1.70411 15.3422H9.59802C9.75901 15.3422 9.88954 15.2116 9.88954 15.0506V2.27003C9.88954 2.10901 9.75901 1.97852 9.59802 1.97852V1.97852Z" fill="#00BEF7"/>
<path d="M5.67891 17.4926C5.96757 17.4926 6.20157 17.2586 6.20157 16.9699C6.20157 16.6813 5.96757 16.4473 5.67891 16.4473C5.39025 16.4473 5.15625 16.6813 5.15625 16.9699C5.15625 17.2586 5.39025 17.4926 5.67891 17.4926Z" fill="#453E43"/>
<path d="M4.35971 5.66214H2.83953C2.71163 5.66214 2.60791 5.55842 2.60791 5.43051V3.91033C2.60791 3.78243 2.71163 3.67871 2.83953 3.67871H4.35971C4.48762 3.67871 4.59134 3.78243 4.59134 3.91033V5.43051C4.59134 5.55846 4.48766 5.66214 4.35971 5.66214V5.66214Z" fill="#FCE25C"/>
<path d="M7.18467 8.9287H5.66448C5.53658 8.9287 5.43286 8.82499 5.43286 8.69708V7.17693C5.43286 7.04903 5.53658 6.94531 5.66448 6.94531H7.18467C7.31257 6.94531 7.41629 7.04903 7.41629 7.17693V8.69712C7.41629 8.82502 7.31261 8.9287 7.18467 8.9287V8.9287Z" fill="#F1FAFF"/>
<path d="M4.35971 8.93069H2.83953C2.71163 8.93069 2.60791 8.82698 2.60791 8.69907V7.17889C2.60791 7.05098 2.71163 6.94727 2.83953 6.94727H4.35971C4.48762 6.94727 4.59134 7.05098 4.59134 7.17889V8.69907C4.59134 8.82698 4.48766 8.93069 4.35971 8.93069V8.93069Z" fill="#FB636F"/>
<path d="M6.4248 5.83105C6.9725 5.83105 7.4165 5.38705 7.4165 4.83935C7.4165 4.29165 6.9725 3.84766 6.4248 3.84766C5.8771 3.84766 5.43311 4.29165 5.43311 4.83935C5.43311 5.38705 5.8771 5.83105 6.4248 5.83105Z" fill="#FA989E"/>
<path d="M3.5996 12.1601C4.1473 12.1601 4.5913 11.7161 4.5913 11.1685C4.5913 10.6208 4.1473 10.1768 3.5996 10.1768C3.05191 10.1768 2.60791 10.6208 2.60791 11.1685C2.60791 11.7161 3.05191 12.1601 3.5996 12.1601Z" fill="#E0DDE2"/>
<path d="M6.19185 14.0485H5.16588C5.01491 14.0485 4.89258 13.9262 4.89258 13.7752C4.89258 13.6243 5.01491 13.502 5.16588 13.502H6.19185C6.34282 13.502 6.46515 13.6243 6.46515 13.7752C6.46515 13.9262 6.34282 14.0485 6.19185 14.0485Z" fill="#F1FAFF"/>
<path d="M8.24166 14.0485H7.21568C7.06471 14.0485 6.94238 13.9262 6.94238 13.7752C6.94238 13.6243 7.06471 13.502 7.21568 13.502H8.24166C8.39262 13.502 8.51495 13.6243 8.51495 13.7752C8.51495 13.9262 8.39258 14.0485 8.24166 14.0485Z" fill="#F1FAFF"/>
<path d="M4.1125 14.0485H3.08653C2.93556 14.0485 2.81323 13.9262 2.81323 13.7752C2.81323 13.6243 2.93556 13.502 3.08653 13.502H4.1125C4.26347 13.502 4.3858 13.6243 4.3858 13.7752C4.3858 13.9262 4.26343 14.0485 4.1125 14.0485Z" fill="#F1FAFF"/>
</svg>
