<svg width="402" height="512" viewBox="0 0 402 512" fill="none" xmlns="http://www.w3.org/2000/svg">
<path d="M75.811 472.477L75.246 472.204C70.823 470.07 68.076 465.707 68.076 460.816V419.229C68.076 418.549 68.095 417.874 68.128 417.202H38.591C24.576 417.202 13.214 428.564 13.214 442.579V498H75.811V472.477Z" fill="#A79BA7"/>
<path d="M68.126 417.202H38.59C24.575 417.202 13.213 428.564 13.213 442.579V498H46.395V442.579C46.395 429.805 55.835 419.239 68.119 417.467C68.123 417.38 68.122 417.29 68.126 417.202Z" fill="#918291"/>
<path d="M333.04 279.263H214.58V294.263H333.04C343.93 294.263 352.789 303.122 352.789 314.013V395.536C352.789 406.426 343.93 415.286 333.04 415.286H329.497C330.054 416.601 330.362 418.047 330.362 419.563V426.009C330.362 427.525 330.054 428.97 329.497 430.286H333.04C352.201 430.286 367.789 414.698 367.789 395.536V314.013C367.789 294.852 352.201 279.263 333.04 279.263Z" fill="#CBC4CC"/>
<path d="M319.359 407.559H303.736C304.842 411.304 305.413 415.219 305.413 419.23V438.012H319.359C325.988 438.012 331.362 432.638 331.362 426.009V419.563C331.362 412.933 325.988 407.559 319.359 407.559Z" fill="#E2DEE2"/>
<path d="M157.923 254.97H215.58V309.701H157.923V254.97Z" fill="#A79BA7"/>
<path d="M157.923 254.97H183.433V309.701H157.923V254.97Z" fill="#918291"/>
<path d="M328.063 146.696C287.895 146.696 255.215 114.016 255.215 73.848C255.215 66.71 256.265 59.816 258.187 53.293H28.44C20.031 53.293 13.214 60.11 13.214 68.519V240.759C13.214 249.168 20.031 255.985 28.44 255.985H345.063C353.472 255.985 360.289 249.168 360.289 240.759V139.157C350.567 143.974 339.629 146.696 328.063 146.696Z" fill="#E2DEE2"/>
<path d="M73.804 240.758V68.519C73.804 60.11 80.621 53.293 89.03 53.293H28.44C20.031 53.293 13.214 60.11 13.214 68.519V240.759C13.214 249.168 20.031 255.985 28.44 255.985H89.03C80.621 255.985 73.804 249.168 73.804 240.758Z" fill="#CBC4CC"/>
<path d="M328.063 146.696C291.754 146.696 261.57 119.992 256.104 85.1929H48.159C46.477 85.1929 45.114 86.5559 45.114 88.2379V221.039C45.114 222.721 46.477 224.084 48.159 224.084H325.344C327.026 224.084 328.389 222.721 328.389 221.039V146.688C328.28 146.688 328.172 146.696 328.063 146.696Z" fill="#685E68"/>
<path d="M48.159 85.1929C46.477 85.1929 45.114 86.5559 45.114 88.2379V221.039C45.114 222.721 46.478 224.084 48.159 224.084H73.803V85.1929H48.159Z" fill="#554E56"/>
<path d="M328.063 146.696C325.642 146.696 323.25 146.571 320.889 146.339V171.383H278.469V137.894H293.375C280.633 130.965 270.194 120.334 263.469 107.468V122.894H222.323V92.6929H257.7C256.407 87.8689 255.587 82.8539 255.317 77.6929H48.159C42.344 77.6929 37.613 82.4229 37.613 88.2379V221.038C37.613 226.853 42.343 231.583 48.159 231.583H325.344C331.158 231.583 335.889 226.853 335.889 221.038V146.269C333.317 146.546 330.707 146.696 328.063 146.696ZM95.034 216.584H52.613V186.383H95.034V216.584ZM95.034 171.383H52.613V137.894H95.034V171.383ZM95.034 122.894H52.613V92.6929H95.034V122.894ZM151.179 216.584H110.034V186.383H151.179V216.584ZM151.179 171.383H110.034V137.894H151.179V171.383ZM151.179 122.894H110.034V92.6929H151.179V122.894ZM207.323 216.584H166.178V186.383H207.323V216.584ZM207.323 171.383H166.178V137.894H207.323V171.383ZM207.323 122.894H166.178V92.6929H207.323V122.894ZM263.469 216.584H222.323V186.383H263.469V216.584ZM263.469 171.383H222.323V137.894H263.469V171.383ZM320.889 216.584H278.469V186.383H320.889V216.584Z" fill="#7A6D79"/>
<path d="M328.063 147.696C368.848 147.696 401.911 114.633 401.911 73.848C401.911 33.0629 368.848 0 328.063 0C287.278 0 254.215 33.0629 254.215 73.848C254.215 114.633 287.278 147.696 328.063 147.696Z" fill="#FFE177"/>
<path d="M288.495 73.848C288.495 38.966 312.687 9.753 345.203 2.021C339.7 0.713 333.966 0 328.063 0C287.278 0 254.215 33.063 254.215 73.848C254.215 114.633 287.278 147.696 328.063 147.696C333.966 147.696 339.7 146.983 345.203 145.675C312.687 137.943 288.495 108.73 288.495 73.848Z" fill="#FFD15B"/>
<path d="M317.582 122.375C316.109 122.375 314.62 121.942 313.317 121.04C309.913 118.681 309.065 114.009 311.423 110.604L331.691 81.348H310.113C307.323 81.348 304.763 79.799 303.469 77.327C302.174 74.856 302.359 71.869 303.948 69.577L332.372 28.551C334.73 25.146 339.403 24.298 342.809 26.657C346.213 29.016 347.061 33.688 344.703 37.093L324.434 66.348H346.012C348.802 66.348 351.362 67.897 352.656 70.369C353.951 72.84 353.766 75.826 352.177 78.119L323.754 119.146C322.298 121.248 319.96 122.375 317.582 122.375Z" fill="white"/>
<path d="M298.237 353.426H287.507C284.887 353.426 282.383 353.912 280.069 354.785L289.225 384.369H298.238C306.783 384.369 313.709 377.442 313.709 368.898C313.708 360.353 306.781 353.426 298.237 353.426Z" fill="#FD4755"/>
<path d="M93.464 354.797C91.141 353.917 88.627 353.426 85.996 353.426H75.266C66.721 353.426 59.795 360.353 59.795 368.897C59.795 377.442 66.722 384.368 75.266 384.368H84.37L93.464 354.797Z" fill="#FD4755"/>
<path d="M236.403 316.201H137.1C122.256 316.201 109.149 325.886 104.791 340.076L91.994 381.734C97.24 379.315 103.071 377.955 109.217 377.955H264.287C270.433 377.955 276.264 379.315 281.509 381.734L268.712 340.076C264.353 325.886 251.247 316.201 236.403 316.201Z" fill="#0182FC"/>
<path d="M138.677 340.075C143.036 325.885 156.142 316.2 170.986 316.2H137.1C122.256 316.2 109.149 325.885 104.791 340.075L91.994 381.733C97.24 379.314 103.071 377.954 109.216 377.954H127.041L138.677 340.075Z" fill="#0172FB"/>
<path d="M136.02 378.088C137.114 370.695 143.491 365 151.184 365C158.876 365 165.253 370.695 166.347 378.088H181.431C180.273 362.408 167.154 350 151.184 350C135.212 350 122.093 362.408 120.936 378.088H136.02Z" fill="#554E56"/>
<path d="M100.911 378.932L111.961 342.278C115.373 331.167 125.477 323.701 137.101 323.701H236.403C248.027 323.701 258.131 331.166 261.544 342.278L272.728 378.963C279.841 380.452 286.28 383.788 291.531 388.438L275.882 337.873C270.523 320.424 254.657 308.701 236.403 308.701H137.101C118.847 308.701 102.982 320.425 97.622 337.873L82.109 388.32C87.369 383.702 93.805 380.394 100.911 378.932Z" fill="#FE646F"/>
<path d="M111.215 498V473.601H80.727C78.592 473.601 76.582 473.068 74.811 472.139V498H111.215Z" fill="#685E68"/>
<path d="M298.692 498V472.14C296.921 473.069 294.911 473.602 292.776 473.602H262.288V498H298.692Z" fill="#685E68"/>
<path d="M268.749 433.791C268.749 415.545 280.47 399.725 297.916 394.426L298.27 394.318C290.6 383.873 278.238 377.089 264.286 377.089H109.216C95.276 377.089 82.923 383.861 75.252 394.291L75.286 394.334L75.587 394.426C93.033 399.725 104.754 415.545 104.754 433.791V447.121H119.355C124.649 447.121 129.668 444.565 132.782 440.283C135.056 437.157 138.722 435.29 142.589 435.29H230.873C234.739 435.29 238.406 437.157 240.68 440.283C243.794 444.565 248.813 447.121 254.107 447.121H268.75V433.791H268.749Z" fill="#FD4755"/>
<path d="M75.252 394.29L75.286 394.333L75.587 394.425C87.548 398.058 96.816 406.637 101.463 417.552C102.345 395.057 120.85 377.088 143.562 377.088H109.217C95.277 377.088 82.923 383.861 75.252 394.29Z" fill="#FB2B3A"/>
<path d="M306.427 446.255V419.23C306.427 409.525 303.138 400.593 297.625 393.469C280.334 398.722 267.749 414.784 267.749 433.791V446.255H306.427Z" fill="#FFE177"/>
<path d="M67.076 446.255V419.23C67.076 409.525 70.365 400.593 75.878 393.469C93.169 398.722 105.754 414.784 105.754 433.791V446.255H67.076Z" fill="#FFE177"/>
<path d="M254.106 446.254C249.072 446.254 244.341 443.845 241.38 439.773C238.935 436.412 235.03 434.423 230.873 434.423H142.589C138.432 434.423 134.527 436.412 132.082 439.773C129.121 443.845 124.39 446.254 119.356 446.254H67.076V460.816C67.076 468.355 73.188 474.467 80.727 474.467H292.776C300.315 474.467 306.427 468.355 306.427 460.816V446.254H254.106Z" fill="#E2DEE2"/>
<path d="M101.421 460.816V446.254H67.076V460.816C67.076 468.355 73.188 474.467 80.727 474.467H115.072C107.532 474.467 101.421 468.355 101.421 460.816Z" fill="#CBC4CC"/>
<path d="M27.891 450.587H7.58899C3.44599 450.587 0.0889893 447.229 0.0889893 443.087C0.0889893 438.945 3.44599 435.587 7.58899 435.587H27.891C32.034 435.587 35.391 438.945 35.391 443.087C35.391 447.229 32.033 450.587 27.891 450.587Z" fill="#7A6D79"/>
<path d="M27.891 470.889H7.58899C3.44599 470.889 0.0889893 467.531 0.0889893 463.389C0.0889893 459.247 3.44599 455.889 7.58899 455.889H27.891C32.034 455.889 35.391 459.247 35.391 463.389C35.391 467.531 32.033 470.889 27.891 470.889Z" fill="#7A6D79"/>
<path d="M27.891 491.19H7.58899C3.44599 491.19 0.0889893 487.832 0.0889893 483.69C0.0889893 479.548 3.44599 476.19 7.58899 476.19H27.891C32.034 476.19 35.391 479.548 35.391 483.69C35.391 487.832 32.033 491.19 27.891 491.19Z" fill="#7A6D79"/>
<path d="M359.975 497H13.213V507C13.213 509.761 15.452 512 18.213 512H360.289C364.508 512 367.913 508.517 367.786 504.269C367.663 500.164 364.082 497 359.975 497Z" fill="#CBC4CC"/>
</svg>
