<svg width="19" height="19" viewBox="0 0 19 19" fill="none" xmlns="http://www.w3.org/2000/svg">
<path d="M17.8919 14.0633H0.758112C0.339357 14.0633 0 13.7238 0 13.3052V0.758112C0 0.339357 0.339357 0 0.758112 0H17.8919C18.3106 0 18.65 0.339357 18.65 0.758112V13.3052C18.65 13.7238 18.3106 14.0633 17.8919 14.0633Z" fill="#D5F1FE"/>
<path d="M17.8918 0H17.0579C17.4766 0 17.816 0.339357 17.816 0.758112V13.3052C17.816 13.7238 17.4766 14.0633 17.0579 14.0633H17.8918C18.3106 14.0633 18.6499 13.7238 18.6499 13.3052V0.758112C18.6499 0.339357 18.3106 0 17.8918 0Z" fill="#B4E7FD"/>
<path d="M17.8919 0H0.758112C0.339357 0 0 0.339357 0 0.758112V3.56318H18.65V0.758112C18.65 0.339357 18.3106 0 17.8919 0Z" fill="#A0CAFE"/>
<path d="M17.8918 0H17.0579C17.4766 0 17.816 0.339357 17.816 0.758112V3.56318H18.6499V0.758112C18.6499 0.339357 18.3106 0 17.8918 0Z" fill="#81B8FD"/>
<path d="M2.76721 1.78173C2.76721 2.11667 2.49558 2.3883 2.16063 2.3883C1.82569 2.3883 1.5542 2.11667 1.5542 1.78173C1.5542 1.44678 1.82569 1.17529 2.16063 1.17529C2.49558 1.17529 2.76721 1.44678 2.76721 1.78173Z" fill="#97D57E"/>
<path d="M5.15515 1.78173C5.15515 2.11667 4.88366 2.3883 4.54871 2.3883C4.21377 2.3883 3.94214 2.11667 3.94214 1.78173C3.94214 1.44678 4.21377 1.17529 4.54871 1.17529C4.88366 1.17529 5.15515 1.44678 5.15515 1.78173Z" fill="#FFEA84"/>
<path d="M7.54333 1.78173C7.54333 2.11667 7.2717 2.3883 6.93675 2.3883C6.60181 2.3883 6.33032 2.11667 6.33032 1.78173C6.33032 1.44678 6.60181 1.17529 6.93675 1.17529C7.2717 1.17529 7.54333 1.44678 7.54333 1.78173Z" fill="#EA7F87"/>
<path d="M7.84653 14.0254V10.3485L8.9107 9.28452C8.9817 9.21337 9.02169 9.1169 9.02169 9.01644V7.00065C9.02169 6.8992 8.98113 6.80216 8.90899 6.73087L8.15088 5.98215C7.91141 5.74567 7.50546 5.91542 7.50546 6.25193V8.03622L6.48184 8.68064L5.45836 8.03622V6.25193C5.45836 5.91542 5.05256 5.74567 4.81294 5.98215L4.05483 6.73087C3.98269 6.80201 3.94214 6.8992 3.94214 7.00065V9.01644C3.94214 9.1169 3.98212 9.21337 4.05312 9.28452L5.1173 10.3485V14.0254H7.84653Z" fill="#9B9B9B"/>
<path d="M7.50568 6.25186V6.51993L8.11481 7.12907C8.18596 7.20021 8.2258 7.29654 8.2258 7.39714V8.63733C8.2258 8.73778 8.18596 8.83425 8.11481 8.9054L7.16177 9.85844C7.09062 9.92944 7.05078 10.0259 7.05078 10.1265V14.0254H7.84674V10.3485L8.91091 9.28445C8.98192 9.21331 9.0219 9.11684 9.0219 9.01638V7.00058C9.0219 6.89913 8.98135 6.80209 8.90921 6.73081L8.1511 5.98209C7.91148 5.74574 7.50568 5.91535 7.50568 6.25186Z" fill="#828282"/>
<path d="M10.6516 10.5382V14.0256H13.3808V10.5382C13.3808 10.3289 13.2112 10.1592 13.0018 10.1592H11.0307C10.8214 10.1592 10.6516 10.3289 10.6516 10.5382Z" fill="#EA7F87"/>
<path d="M12.6609 10.1592V14.0256H13.381V10.5382C13.381 10.3289 13.2114 10.1592 13.002 10.1592H12.6609Z" fill="#E5646E"/>
<path d="M14.5789 17.0203C14.4739 16.6762 14.3363 16.3465 14.1701 16.0344L15.414 14.7905C15.562 14.6424 15.562 14.4025 15.414 14.2543L13.6449 12.4853C13.4969 12.3373 13.2569 12.3373 13.1089 12.4853L11.8649 13.7293C11.5527 13.563 11.223 13.4255 10.8791 13.3204V11.5617C10.8791 11.3524 10.7094 11.1826 10.5001 11.1826H7.99821C7.7889 11.1826 7.61915 11.3524 7.61915 11.5617V13.3204C7.2751 13.4255 6.94542 13.563 6.63324 13.7293L5.38935 12.4853C5.24137 12.3373 5.00133 12.3373 4.85321 12.4853L3.08414 14.2543C2.93616 14.4023 2.93616 14.6424 3.08414 14.7903L4.32817 16.0344C4.16183 16.3465 4.02438 16.6762 3.91923 17.0201H2.16055C1.95124 17.0201 1.78149 17.1899 1.78149 17.3992V18.3468C1.78149 18.5143 1.91724 18.65 2.08471 18.65H7.04018C7.22516 18.65 7.38694 18.5189 7.41796 18.3364C7.56707 17.4599 8.33017 16.7928 9.24906 16.7928C10.168 16.7928 10.9311 17.4599 11.0802 18.3364C11.111 18.5189 11.273 18.65 11.4579 18.65H16.4134C16.5809 18.65 16.7166 18.5143 16.7166 18.3468V17.3992C16.7166 17.1899 16.5469 17.0201 16.3376 17.0201H14.5789V17.0203Z" fill="#A0CAFE"/>
<path d="M14.5789 17.02C14.4739 16.676 14.3363 16.3463 14.1701 16.0341L15.414 14.7902C15.562 14.6421 15.562 14.4022 15.414 14.2541L13.645 12.485C13.497 12.337 13.2569 12.337 13.109 12.485L12.6457 12.9483C13.021 13.8194 13.2293 14.7793 13.2293 15.7879C13.2293 16.8053 13.0173 17.773 12.636 18.6499H16.4135C16.5809 18.6499 16.7167 18.5142 16.7167 18.3467V17.3991C16.7167 17.1896 16.5471 17.02 16.3376 17.02H14.5789Z" fill="#81B8FD"/>
<path d="M9.24928 14.6318C7.03015 14.6318 5.2312 16.4308 5.2312 18.6499H7.0404C7.22551 18.6499 7.38729 18.5187 7.41831 18.3363C7.56729 17.4598 8.33038 16.7925 9.24928 16.7925C10.1683 16.7925 10.9313 17.4598 11.0804 18.3363C11.1114 18.5187 11.2732 18.6499 11.4582 18.6499H13.2674C13.2674 16.4308 11.4684 14.6318 9.24928 14.6318Z" fill="#D5F1FE"/>
<path d="M9.24917 14.6318C9.1214 14.6318 8.9949 14.6381 8.87012 14.6498C10.9115 14.8409 12.5091 16.5587 12.5091 18.6499H13.2672C13.2672 16.4308 11.4683 14.6318 9.24917 14.6318Z" fill="#B4E7FD"/>
<path d="M12.4782 5.61152C12.429 5.45287 12.2821 5.34473 12.1161 5.34473H11.9165C11.7504 5.34473 11.6037 5.45287 11.5545 5.61152L11.0259 7.31485C10.9825 7.45443 11.0233 7.60654 11.1307 7.70571L11.4478 7.99826V10.1589H12.5849V7.99826L12.9018 7.70571C13.0092 7.60654 13.0501 7.45443 13.0068 7.31485L12.4782 5.61152Z" fill="#9B9B9B"/>
<path d="M12.4781 5.61152C12.4289 5.45287 12.2821 5.34473 12.116 5.34473H11.9026L12.3704 6.94888C12.4091 7.08164 12.3724 7.22507 12.2745 7.32296L12.2031 7.39439C12.132 7.46553 12.0921 7.562 12.0921 7.66246V10.1589H12.5849V7.99826L12.9017 7.70571C13.0092 7.60654 13.05 7.45443 13.0066 7.31485L12.4781 5.61152Z" fill="#828282"/>
</svg>
