<svg width="512" height="406" viewBox="0 0 512 406" fill="none" xmlns="http://www.w3.org/2000/svg">
<path d="M414.435 1.39404L402.988 5.21004C400.068 6.18304 397.948 8.72304 397.513 11.77L390.096 63.691L471.366 283.12L503.874 299.374L424.851 6.98304C423.632 2.47204 418.868 -0.0839578 414.435 1.39404Z" fill="#FFD164"/>
<path d="M420.545 49.838C417.265 41.727 408.031 37.811 399.919 41.091L251.428 101.142C246.119 103.323 241.71 107.823 239.921 113.745L239.547 114.981L223.121 169.336L268.191 185.596L278.351 135.322L412.781 70.028C420.186 66.409 423.683 57.598 420.545 49.838Z" fill="#FFC350"/>
<path d="M251.94 291.25H89.4001V331.885H251.94V291.25Z" fill="#5D5360"/>
<path d="M284.444 299.374H56.8891C47.9121 299.374 40.6351 292.097 40.6351 283.12V226.231C40.6351 217.254 47.9121 209.977 56.8891 209.977H276.318L290.828 246.253C291.98 249.133 292.572 252.206 292.572 255.308V291.247C292.571 295.736 288.933 299.374 284.444 299.374Z" fill="#FFD164"/>
<path d="M300.698 405.025H40.635C18.23 405.025 0 386.795 0 364.39C0 341.985 18.23 323.755 40.635 323.755H300.699C323.104 323.755 341.334 341.985 341.334 364.39C341.333 386.795 323.103 405.025 300.698 405.025Z" fill="#4B3F4E"/>
<path d="M40.635 340.009C27.191 340.009 16.254 350.946 16.254 364.39C16.254 377.834 27.191 388.771 40.635 388.771H300.699C314.143 388.771 325.08 377.835 325.08 364.39C325.08 350.946 314.143 340.009 300.699 340.009H40.635Z" fill="#5D5360"/>
<path d="M243.81 372.517H97.5242C93.0322 372.517 89.3972 368.878 89.3972 364.39C89.3972 359.902 93.0322 356.263 97.5242 356.263H243.81C248.302 356.263 251.937 359.902 251.937 364.39C251.937 368.878 248.302 372.517 243.81 372.517Z" fill="#9C969E"/>
<path d="M291.543 247.184L269.928 175.129C268.897 171.691 265.733 169.337 262.144 169.337H219.429C214.94 169.337 211.302 172.976 211.302 177.464V235.752C211.302 240.063 213.014 244.197 216.063 247.245L230.922 262.105C233.971 265.153 238.105 266.866 242.416 266.866H292.572V254.189C292.571 251.817 292.225 249.457 291.543 247.184Z" fill="#5D5360"/>
<path d="M121.905 250.611H73.1431C68.6511 250.611 65.0161 246.972 65.0161 242.484C65.0161 237.996 68.6511 234.357 73.1431 234.357H121.905C126.397 234.357 130.032 237.996 130.032 242.484C130.032 246.972 126.397 250.611 121.905 250.611Z" fill="#FFC350"/>
<path d="M300.701 388.771C314.166 388.771 325.082 377.855 325.082 364.39C325.082 350.924 314.166 340.009 300.701 340.009C287.235 340.009 276.32 350.924 276.32 364.39C276.32 377.855 287.235 388.771 300.701 388.771Z" fill="#FFC350"/>
<path d="M300.701 372.517C305.189 372.517 308.828 368.878 308.828 364.39C308.828 359.901 305.189 356.263 300.701 356.263C296.212 356.263 292.574 359.901 292.574 364.39C292.574 368.878 296.212 372.517 300.701 372.517Z" fill="#FFD164"/>
<path d="M40.635 388.771C54.1003 388.771 65.016 377.855 65.016 364.39C65.016 350.925 54.1003 340.009 40.635 340.009C27.1698 340.009 16.254 350.925 16.254 364.39C16.254 377.855 27.1698 388.771 40.635 388.771Z" fill="#FFC350"/>
<path d="M40.6351 372.517C45.1235 372.517 48.7621 368.878 48.7621 364.39C48.7621 359.901 45.1235 356.263 40.6351 356.263C36.1466 356.263 32.5081 359.901 32.5081 364.39C32.5081 368.878 36.1466 372.517 40.6351 372.517Z" fill="#FFD164"/>
<path d="M284.444 299.374H56.8891C47.9121 299.374 40.6351 292.097 40.6351 283.12H292.572V291.247C292.571 295.736 288.933 299.374 284.444 299.374Z" fill="#FFC350"/>
<path d="M475.428 274.989H460.97C457.472 274.989 454.366 277.227 453.26 280.546L438.001 326.325C436.895 329.644 433.789 331.882 430.291 331.882H414.477C409.988 331.882 406.35 335.52 406.35 340.009C406.35 344.497 409.988 348.136 414.477 348.136H475.427C495.626 348.136 512 331.762 512 311.563C512.001 291.363 495.627 274.989 475.428 274.989Z" fill="#FFC350"/>
<path d="M292.305 250.611C292.133 249.453 291.881 248.307 291.544 247.183L273.067 185.59H227.556V235.751L242.416 250.611H292.305Z" fill="#4B3F4E"/>
</svg>
