<svg width="18" height="19" viewBox="0 0 18 19" fill="none" xmlns="http://www.w3.org/2000/svg">
<path d="M6.35784 13.1448C2.11999 20.4851 -4.32329 9.32499 4.15241 9.32499C-4.32329 9.32499 2.11996 -1.83508 6.35784 5.50512C2.11999 -1.83504 15.0065 -1.83504 10.7686 5.50512C15.0065 -1.83508 21.4498 9.32499 12.9741 9.32499C21.4498 9.32499 15.0065 20.4851 10.7686 13.1448C15.0065 20.4851 2.11999 20.4851 6.35784 13.1448Z" fill="#FF728B"/>
<path d="M12.974 9.3196L8.67582 9.26179L8.67797 9.25822L8.67451 9.25829L10.7686 5.50512C15.0065 -1.83504 2.11997 -1.83504 6.35782 5.50512L8.45227 9.25884L8.44823 9.2588L8.45038 9.26237L4.15246 9.33967C-4.32317 9.36779 2.15706 20.5064 6.3705 13.1522L8.56155 9.45474L8.56322 9.45776L8.56519 9.45423L10.7733 13.1422C15.02 20.4772 21.4497 9.30932 12.974 9.3196Z" fill="#FF3F62"/>
<path d="M8.56354 15.1104C8.40589 15.1104 8.27808 15.2382 8.27808 15.3958V16.5947C8.27808 16.7524 8.40589 16.8802 8.56354 16.8802C8.7212 16.8802 8.84901 16.7524 8.84901 16.5947V15.3958C8.84898 15.2381 8.7212 15.1104 8.56354 15.1104Z" fill="#FF0C38"/>
<path d="M4.03112 5.92847L4.76616 6.53853C4.81945 6.58278 4.88407 6.60435 4.94832 6.60435C5.03032 6.60435 5.11169 6.56923 5.16812 6.50119C5.26883 6.37986 5.25211 6.19991 5.13078 6.09923L4.39574 5.48917C4.27441 5.38845 4.09446 5.40517 3.99378 5.52651C3.8931 5.64781 3.90982 5.82779 4.03112 5.92847Z" fill="#FF0C38"/>
<path d="M3.5849 11.6995L2.52972 12.2709C2.39104 12.346 2.33957 12.5192 2.41461 12.6579C2.4663 12.7533 2.5645 12.8074 2.66588 12.8074C2.71177 12.8074 2.75833 12.7963 2.80153 12.7729L3.85671 12.2016C3.99535 12.1265 4.04685 11.9533 3.97181 11.8146C3.89678 11.676 3.72354 11.6244 3.5849 11.6995Z" fill="#FF0C38"/>
<path d="M13.7031 13.5192L12.9425 12.841C12.8248 12.736 12.6443 12.7464 12.5394 12.864C12.4345 12.9817 12.4448 13.1622 12.5625 13.2671L13.3232 13.9453C13.3776 13.9938 13.4455 14.0177 13.5131 14.0177C13.5916 14.0177 13.6699 13.9855 13.7263 13.9222C13.8311 13.8046 13.8208 13.6241 13.7031 13.5192Z" fill="#FF0C38"/>
<path d="M13.6085 10.8066L9.21993 9.25212L13.6656 6.44515C13.7989 6.361 13.8387 6.1847 13.7546 6.05135C13.6704 5.91803 13.4941 5.87822 13.3608 5.96236L8.85557 8.80696V4.54816C8.85557 4.39051 8.72775 4.2627 8.5701 4.2627C8.41245 4.2627 8.28463 4.39051 8.28463 4.54816V8.71699L5.8716 6.71426C5.75027 6.61354 5.57029 6.63026 5.46964 6.7516C5.36893 6.87293 5.38568 7.05288 5.50698 7.15356L7.14119 8.50991L3.26949 7.12318C3.1212 7.07007 2.95768 7.14722 2.9045 7.29565C2.85132 7.44405 2.92854 7.60749 3.07698 7.66064L7.87225 9.37815L4.81267 11.0349C4.67399 11.1099 4.62253 11.2832 4.69756 11.4218C4.74925 11.5173 4.84745 11.5714 4.94883 11.5714C4.99472 11.5714 5.04131 11.5603 5.08448 11.5369L8.2764 9.80849L8.27796 14.1968C8.278 14.3544 8.40582 14.4822 8.56343 14.4822H8.5635C8.72119 14.4821 8.84894 14.3543 8.8489 14.1966L8.84737 9.95463L11.8289 12.613C11.8833 12.6615 11.9511 12.6854 12.0188 12.6854C12.0974 12.6854 12.1756 12.6532 12.232 12.5899C12.3369 12.4722 12.3266 12.2917 12.2089 12.1869L9.84526 10.0794L13.4179 11.3448C13.4494 11.356 13.4816 11.3612 13.5132 11.3612C13.6307 11.3612 13.7408 11.2881 13.7823 11.171C13.8349 11.0224 13.7571 10.8592 13.6085 10.8066Z" fill="#FF0C38"/>
<path d="M8.57014 3.50162C8.72779 3.50162 8.85561 3.3738 8.85561 3.21615V2.01057C8.85561 1.85292 8.72779 1.7251 8.57014 1.7251C8.41249 1.7251 8.28467 1.85292 8.28467 2.01057V3.21615C8.2847 3.3738 8.41249 3.50162 8.57014 3.50162Z" fill="#FF0C38"/>
<path d="M8.57011 11.5518C9.79982 11.5518 10.7967 10.5549 10.7967 9.32523C10.7967 8.09552 9.79982 7.09863 8.57011 7.09863C7.34039 7.09863 6.34351 8.09552 6.34351 9.32523C6.34351 10.5549 7.34039 11.5518 8.57011 11.5518Z" fill="#FFEB99"/>
<path d="M7.47202 9.3252C7.47202 8.29048 8.17788 7.42086 9.13424 7.17097C8.95397 7.12384 8.76488 7.09863 8.56986 7.09863C7.34013 7.09863 6.34326 8.0955 6.34326 9.32523C6.34326 10.555 7.34013 11.5518 8.56986 11.5518C8.76488 11.5518 8.95397 11.5266 9.13424 11.4795C8.17788 11.2296 7.47202 10.3599 7.47202 9.3252Z" fill="#FFDA44"/>
</svg>
