<svg width="512" height="238" viewBox="0 0 512 238" fill="none" xmlns="http://www.w3.org/2000/svg">
<path d="M62.579 164.324L34.137 213.854C31.24 218.899 33.037 225.339 38.129 228.154L52.645 236.181C57.641 238.944 63.93 237.17 66.745 232.203L94.879 182.577L62.579 164.324Z" fill="#9BAEBC"/>
<path d="M449.422 164.324L477.864 213.854C480.761 218.899 478.963 225.339 473.872 228.154L459.356 236.181C454.36 238.944 448.071 237.17 445.256 232.203L417.122 182.577L449.422 164.324Z" fill="#9BAEBC"/>
<path d="M502.184 74.1901H487.656C480.809 74.1901 474.577 70.0521 472.107 63.6671C457.814 26.7201 421.942 0.51709 379.95 0.51709C335.288 0.51709 297.549 30.1581 285.332 70.8411C283.475 77.0251 277.753 81.2361 271.297 81.2361H240.706C234.25 81.2361 228.527 77.0251 226.671 70.8411C214.454 30.1581 176.715 0.51709 132.053 0.51709C90.061 0.51709 54.189 26.7201 39.896 63.6671C37.426 70.0531 31.194 74.1901 24.347 74.1901H9.816C4.395 74.1901 0 78.5851 0 84.0061V114.583C0 120.004 4.395 124.399 9.816 124.399H24.344C31.191 124.399 37.423 128.537 39.893 134.922C54.186 171.869 90.058 198.072 132.05 198.072C176.712 198.072 214.451 168.431 226.668 127.748C228.525 121.564 234.247 117.353 240.703 117.353H271.294C277.75 117.353 283.473 121.564 285.329 127.748C297.546 168.431 335.285 198.072 379.947 198.072C421.939 198.072 457.811 171.869 472.104 134.922C474.574 128.536 480.806 124.399 487.653 124.399H502.182C507.603 124.399 511.998 120.004 511.998 114.583V84.0061C512 78.5851 507.605 74.1901 502.184 74.1901Z" fill="#FF6161"/>
<path d="M511.995 84.0071V114.584C511.995 120.002 507.609 124.398 502.181 124.398H487.651C480.809 124.398 474.576 128.536 472.11 134.924C457.818 171.868 421.937 198.079 379.947 198.079C364.736 198.079 350.314 194.638 337.445 188.487C344.473 190.076 351.795 190.917 359.308 190.917C402.856 190.917 439.748 162.146 460.563 113.294C462.751 108.155 467.776 104.811 473.359 104.811H481.542C486.97 104.811 491.356 100.415 491.356 94.9971V76.8551C491.356 75.9371 491.232 75.0391 490.984 74.1931H502.181C507.609 74.1931 511.995 78.5891 511.995 84.0071Z" fill="#FF4242"/>
<path d="M379.949 167.712C417.735 167.712 448.366 137.081 448.366 99.2952C448.366 61.5095 417.735 30.8782 379.949 30.8782C342.163 30.8782 311.532 61.5095 311.532 99.2952C311.532 137.081 342.163 167.712 379.949 167.712Z" fill="#9BAEBC"/>
<path d="M132.051 167.712C169.837 167.712 200.468 137.081 200.468 99.2952C200.468 61.5095 169.837 30.8782 132.051 30.8782C94.2654 30.8782 63.634 61.5095 63.634 99.2952C63.634 137.081 94.2654 167.712 132.051 167.712Z" fill="#9BAEBC"/>
<path d="M448.365 99.29C448.365 137.08 417.737 167.708 379.947 167.708C368.441 167.708 357.605 164.87 348.101 159.855C351.692 160.443 355.376 160.742 359.132 160.742C396.912 160.742 427.55 130.114 427.55 92.324C427.55 66.051 412.742 43.234 391.009 31.78C423.536 37.053 448.365 65.277 448.365 99.29Z" fill="#889DAA"/>
<path d="M200.471 99.29C200.471 137.08 169.833 167.708 132.053 167.708C120.547 167.708 109.695 164.866 100.18 159.851C100.891 159.967 101.606 160.073 102.325 160.167C105.238 160.548 108.215 160.743 111.228 160.743C149.018 160.743 179.646 130.115 179.646 92.325C179.646 66.052 164.838 43.235 143.115 31.781C175.632 37.053 200.471 65.277 200.471 99.29Z" fill="#889DAA"/>
</svg>
