<svg width="512" height="400" viewBox="0 0 512 400" fill="none" xmlns="http://www.w3.org/2000/svg">
<path d="M289.575 333.074H322.875V366.374H289.575V333.074Z" fill="#5A5A5A"/>
<path d="M425.125 333.074H458.425V366.374H425.125V333.074Z" fill="#5A5A5A"/>
<path d="M335.156 5.20213L324.682 15.676V48.9766H505.755C509.203 48.9766 511.999 46.1807 511.999 42.7327V35.4503C511.999 32.435 509.845 29.8513 506.879 29.3084L349.926 0.597221C344.545 -0.387632 339.024 1.3338 335.156 5.20213Z" fill="#BFBFBF"/>
<path d="M506.88 29.3073L409.035 11.4089C403.843 23.9215 396.901 36.5763 388.325 48.9755H505.756C509.204 48.9755 512 46.1796 512 42.7316V35.4492C512 32.4349 509.846 29.8502 506.88 29.3073Z" fill="#ACACAC"/>
<path d="M280.909 59.4495L291.383 48.9757V15.675H110.309C106.861 15.675 104.065 18.471 104.065 21.919V29.2013C104.065 32.2167 106.219 34.8004 109.185 35.3433L266.138 64.0544C271.52 65.0393 277.04 63.3178 280.909 59.4495Z" fill="#BFBFBF"/>
<path d="M280.909 59.4495C277.04 63.3178 271.52 65.0393 266.139 64.0544L234.519 58.2699C229.167 44.1297 221.536 29.7381 211.81 15.675H291.383V48.9757L280.909 59.4495Z" fill="#ACACAC"/>
<path d="M426.667 264.576C389.884 264.576 360.066 234.757 360.066 197.975V126.023V124.943H233.709L211.809 136.808L190.001 124.943H146.2L119.963 136.808L102.493 124.943H74.2307L44.3143 54.2841C42.6845 50.4353 38.911 47.9351 34.7315 47.9351H10.4069C4.65951 47.9351 0 52.5946 0 58.3419V151.603C0 168.457 12.5909 182.653 29.3241 184.666L73.3767 189.964V189.963L99.0797 183.797L114.836 194.951L156.414 199.953L180.296 194.76L197.874 204.94L222.054 207.848L234.883 290.76C238.651 315.108 259.609 333.074 284.248 333.074H462.049C489.636 333.074 512 310.71 512 283.122V264.575H426.667V264.576Z" fill="#FE646F"/>
<path d="M470.374 264.576V283.123C470.374 310.711 448.01 333.075 420.423 333.075H462.049C489.636 333.075 512 310.711 512 283.123V264.576H470.374Z" fill="#FD4755"/>
<path d="M387.121 124.944H360.065V126.024V197.975C360.065 234.757 389.883 264.576 426.666 264.576H512V249.822C512 180.853 456.09 124.944 387.121 124.944Z" fill="#99E6FC"/>
<path d="M387.121 124.944H360.065V125.795C422.167 133.012 470.373 185.783 470.373 249.823V264.577H512V249.823C512 180.853 456.09 124.944 387.121 124.944Z" fill="#62DBFB"/>
<path d="M233.709 124.944L197.89 204.949L156.409 199.954L190.002 124.944H233.709Z" fill="#FFE177"/>
<path d="M146.201 124.944L114.847 194.958L73.3767 189.963L102.494 124.944H146.201Z" fill="#FFE177"/>
<path d="M360.065 124.944H256L261.842 106.248C264.558 97.5599 272.604 91.6436 281.708 91.6436H334.358C343.461 91.6436 351.508 97.5599 354.224 106.248L360.065 124.944Z" fill="#BFBFBF"/>
<path d="M354.223 106.247C351.507 97.5589 343.46 91.6426 334.357 91.6426H303.137C312.241 91.6426 320.287 97.5589 323.003 106.247L328.845 124.943H360.065L354.223 106.247Z" fill="#ACACAC"/>
<path d="M291.383 48.9766H324.683V91.6436H291.383V48.9766Z" fill="#5A5A5A"/>
<path d="M291.383 15.675H324.683V48.9757H291.383V15.675Z" fill="#FFE177"/>
<path d="M503.675 399.675H242.035C237.437 399.675 233.71 395.948 233.71 391.35V374.699C233.71 370.101 237.437 366.374 242.035 366.374H503.675C508.273 366.374 512 370.101 512 374.699V391.35C512 395.948 508.273 399.675 503.675 399.675Z" fill="#BFBFBF"/>
<path d="M503.675 366.374H470.374C474.972 366.374 478.699 370.101 478.699 374.699V391.35C478.699 395.948 474.972 399.675 470.374 399.675H503.675C508.273 399.675 512 395.948 512 391.35V374.699C512 370.101 508.273 366.374 503.675 366.374Z" fill="#ACACAC"/>
</svg>
