<svg width="17" height="19" viewBox="0 0 17 19" fill="none" xmlns="http://www.w3.org/2000/svg">
<path d="M8.44393 1.74902L1.9563 8.0597V17.33H14.9315V8.0597L8.44393 1.74902Z" fill="#DFEBFA"/>
<path d="M3.49492 9.00622C3.49492 8.78493 3.58438 8.57304 3.74301 8.41874L9.52184 2.79754L8.44393 1.74902L1.9563 8.0597V17.33H3.49492V9.00622Z" fill="#B1DBFC"/>
<path d="M12.4199 1.32031V3.67316L14.4974 5.69394V1.32031H12.4199Z" fill="#695D67"/>
<path d="M13.623 3.83303C13.5179 3.73082 13.4586 3.59043 13.4586 3.44382V1.32031H12.4199V3.67316L14.4974 5.69394V4.68353L13.623 3.83303Z" fill="#544E55"/>
<path d="M16.6528 7.67797L8.98588 0.220111C8.6842 -0.0733704 8.20382 -0.0733704 7.90218 0.220111L0.235266 7.67797C-0.072385 7.97721 -0.0791966 8.46921 0.220077 8.77686C0.51935 9.08451 1.01135 9.09133 1.31897 8.79205L8.33739 1.96501C8.39676 1.90727 8.49129 1.90727 8.55066 1.96501L15.5691 8.79202C15.8769 9.0914 16.3688 9.0844 16.668 8.77683C16.9672 8.46921 16.9604 7.97721 16.6528 7.67797Z" fill="#FF656F"/>
<path d="M8.33739 1.96501C8.36405 1.93907 8.39786 1.92545 8.43235 1.92279L9.11548 1.25828C9.3172 1.06202 9.59874 0.997726 9.85343 1.06398L8.98588 0.220111C8.6842 -0.0733704 8.20382 -0.0733704 7.90218 0.220111L0.235266 7.67797C-0.072385 7.97721 -0.0791966 8.46921 0.220077 8.77686C0.51935 9.08451 1.01135 9.09133 1.31897 8.79205L8.33739 1.96501Z" fill="#FF4756"/>
<path d="M15.1001 1.16143V0.271371C15.1001 0.121516 14.9786 0 14.8287 0H12.0887C11.9389 0 11.8174 0.12148 11.8174 0.271371V1.16147C11.8174 1.31132 11.9389 1.43284 12.0887 1.43284H14.8287C14.9786 1.4328 15.1001 1.31132 15.1001 1.16143Z" fill="#7B6C79"/>
<path d="M12.8561 1.16143V0.271371C12.8561 0.121516 12.9776 0 13.1274 0H12.0887C11.9389 0 11.8174 0.12148 11.8174 0.271371V1.16147C11.8174 1.31132 11.9389 1.43284 12.0887 1.43284H13.1274C12.9776 1.4328 12.8561 1.31132 12.8561 1.16143Z" fill="#695D67"/>
<path d="M3.45752 10.3037H7.80937V17.33H3.45752V10.3037Z" fill="#AB6B51"/>
<path d="M3.45752 10.3037H4.8669V17.33H3.45752V10.3037Z" fill="#965A44"/>
<path d="M9.07861 10.3408V15.5954C9.07861 15.7113 9.17255 15.8053 9.28846 15.8053H13.2206C13.3365 15.8053 13.4305 15.7113 13.4305 15.5954V10.3408H9.07861Z" fill="#60B8FE"/>
<path d="M10.488 15.5954V10.3408H9.07861V15.5954C9.07861 15.7113 9.17255 15.8053 9.28846 15.8053H10.6978C10.5819 15.8053 10.488 15.7113 10.488 15.5954Z" fill="#23A8FE"/>
<path d="M11.536 10.3783C11.536 10.3656 11.5348 10.3531 11.5332 10.3408H10.9759C10.9742 10.3531 10.9731 10.3656 10.9731 10.3783V12.8104H9.07861V13.3733H10.9731V15.8052H11.536V13.3733H13.4305V12.8104H11.536V10.3783H11.536Z" fill="#8BCAFF"/>
<path d="M9.07861 12.8105H10.488V13.3734H9.07861V12.8105Z" fill="#60B8FE"/>
<path d="M13.2206 9.01172H9.28846C9.17255 9.01172 9.07861 9.10566 9.07861 9.22157V10.3781H13.4305V9.22157C13.4305 9.1057 13.3365 9.01172 13.2206 9.01172Z" fill="#23A8FE"/>
<path d="M10.6978 9.01172H9.28846C9.17255 9.01172 9.07861 9.10566 9.07861 9.22157V10.3781H10.488V9.22157C10.488 9.1057 10.5819 9.01172 10.6978 9.01172Z" fill="#0193FA"/>
<path d="M7.59955 9.01172H3.66737C3.5515 9.01172 3.45752 9.10566 3.45752 9.22157V10.3781H7.80937V9.22157C7.80937 9.1057 7.71542 9.01172 7.59955 9.01172Z" fill="#BC7C63"/>
<path d="M5.07675 9.01172H3.66737C3.5515 9.01172 3.45752 9.10566 3.45752 9.22157V10.3781H4.8669V9.22157C4.8669 9.1057 4.96084 9.01172 5.07675 9.01172Z" fill="#AB6B51"/>
<path d="M6.29264 13.9666C6.6038 13.9666 6.85604 13.7144 6.85604 13.4032C6.85604 13.0921 6.6038 12.8398 6.29264 12.8398C5.98149 12.8398 5.72925 13.0921 5.72925 13.4032C5.72925 13.7144 5.98149 13.9666 6.29264 13.9666Z" fill="#DFEBFA"/>
<path d="M15.2056 17.2168H1.68247C1.53261 17.2168 1.41113 17.3383 1.41113 17.4882V18.3783C1.41113 18.5281 1.53261 18.6496 1.68247 18.6496H15.2056C15.3555 18.6496 15.477 18.5282 15.477 18.3783V17.4882C15.477 17.3383 15.3555 17.2168 15.2056 17.2168Z" fill="#43CB8E"/>
<path d="M3.12787 18.3783V17.4882C3.12787 17.3383 3.24935 17.2168 3.39921 17.2168H1.68247C1.53261 17.2168 1.41113 17.3383 1.41113 17.4882V18.3783C1.41113 18.5281 1.53261 18.6496 1.68247 18.6496H3.39925C3.24935 18.6496 3.12787 18.5282 3.12787 18.3783Z" fill="#00BA66"/>
</svg>
