<svg width="18" height="19" viewBox="0 0 18 19" fill="none" xmlns="http://www.w3.org/2000/svg">
<path d="M10.3551 1.05445C10.6412 0.413906 11.2794 0 11.9809 0C12.9628 0 13.7615 0.798745 13.7615 1.7806V5.17567L13.1755 5.5035L12.6335 5.17567V1.7806C12.6335 1.42079 12.3408 1.12803 11.9809 1.12803C11.7238 1.12803 11.4899 1.27971 11.3851 1.51447L5.17267 15.4225L4.4038 15.8884L3.93726 15.4225L10.3551 1.05445Z" fill="#C6D0DA"/>
<path d="M3.63477 16.0997L4.24333 16.4886L4.87018 16.0997L5.17248 15.4229H3.93706L3.63477 16.0997Z" fill="#A0AAB7"/>
<path d="M2.9239 16.6703L4.24342 16.9981L5.56295 16.6703V16.4756C5.56295 16.268 5.39459 16.0996 5.18693 16.0996H3.29985C3.09219 16.0996 2.92383 16.2679 2.92383 16.4756V16.6703H2.9239Z" fill="#DC4955"/>
<path d="M2.92383 17.3467L4.24339 17.6746L5.56291 17.3467V16.6699H2.92383V17.3467Z" fill="#D82F3C"/>
<path d="M12.6333 5.17578V5.85261L13.1973 6.18044L13.7613 5.85261V5.17578H12.6333Z" fill="#A0AAB7"/>
<path d="M7.50094 17.9731C7.30286 17.5944 6.90782 17.3467 6.46627 17.3467H1.68495C1.15546 17.3467 0.670924 17.5858 0.3479 17.9731L3.8541 18.3009L7.50094 17.9731Z" fill="#808B95"/>
<path d="M7.50021 17.9736H0.34783C0.187119 18.1663 0.0661856 18.3955 0 18.6505H7.70802L7.59667 18.2216C7.5739 18.134 7.54086 18.0513 7.50021 17.9736Z" fill="#5E6B75"/>
<path d="M14.0477 6.87017V6.04053C14.0477 5.93672 13.9635 5.85254 13.8597 5.85254H12.4912C12.3874 5.85254 12.3032 5.93672 12.3032 6.04053V7.03579L13.1974 7.27872L14.0477 6.87017Z" fill="#F6E080"/>
<path d="M13.7689 6.83496C13.263 6.83496 12.7712 6.90501 12.3032 7.03621V7.71304L13.1974 7.95596L14.0478 7.54741V6.87059C13.9587 6.84738 13.8652 6.83496 13.7689 6.83496Z" fill="#ECCD61"/>
<path d="M14.8013 18.8108H10.6514C7.905 18.8108 8.0004 16.1332 8.0004 16.1332C8.0071 16.0805 8.01541 16.0277 8.02535 15.9747L8.6011 12.9026L12.5591 8.20092C13.027 8.06976 13.5189 8 14.0248 8C14.6347 8 15.1291 8.49444 15.1291 9.10439V18.4619L14.8013 18.8108Z" fill="#DC4955"/>
<path d="M7.7445 15.6445C7.54299 17.2266 8.77651 18.6499 10.3954 18.6499H14.8732V17.9731H10.3954C9.01215 17.9731 7.91027 16.9339 7.7445 15.6445Z" fill="#D82F3C"/>
<path d="M12.3031 11.2187V10.9845V7.71191C10.4185 8.2402 8.92288 9.76396 8.47583 11.7365L9.00069 12.0855H11.551C11.9664 12.0855 12.3031 11.634 12.3031 11.2187Z" fill="#F6E080"/>
<path d="M11.5512 11.7374H8.47617C8.46101 11.8042 8.44692 11.8714 8.4342 11.9393L8.34521 12.4142H11.5512C11.9666 12.4142 12.3032 12.0775 12.3032 11.6622V10.9854C12.3032 11.4006 11.9666 11.7374 11.5512 11.7374Z" fill="#ECCD61"/>
<path d="M14.8733 18.3224C17.6144 18.3224 17.6279 15.661 17.6143 15.5501C17.4474 14.1846 16.2838 13.127 14.8733 13.127C13.4627 13.127 12.2991 14.1845 12.1322 15.5501C12.1186 15.661 12.1116 18.3224 14.8733 18.3224Z" fill="#808B95"/>
<path d="M14.8732 17.973C13.4626 17.973 12.2999 16.9152 12.133 15.5498C12.1194 15.6608 12.1116 15.7736 12.1116 15.8882C12.1116 17.4134 13.348 18.6498 14.8732 18.6498C16.3984 18.6498 17.6348 17.4134 17.6348 15.8882C17.6348 15.7735 17.627 15.6608 17.6134 15.5498C17.4465 16.9153 16.2837 17.973 14.8732 17.973Z" fill="#5E6B75"/>
<path d="M14.873 16.5448C15.8005 16.5448 15.8366 15.6551 15.798 15.5496C15.66 15.1725 15.2979 14.9033 14.873 14.9033C14.4481 14.9033 14.0861 15.1725 13.9481 15.5496C13.9094 15.6551 13.9456 16.5448 14.873 16.5448Z" fill="#F6E080"/>
<path d="M14.8731 16.1961C14.4482 16.1961 14.0861 15.9269 13.9481 15.5498C13.9095 15.6553 13.8884 15.7693 13.8884 15.8882C13.8884 16.432 14.3293 16.8729 14.8731 16.8729C15.4169 16.8729 15.8578 16.432 15.8578 15.8882C15.8578 15.7693 15.8367 15.6553 15.7981 15.5498C15.66 15.9269 15.298 16.1961 14.8731 16.1961Z" fill="#ECCD61"/>
</svg>
