<svg width="19" height="19" viewBox="0 0 19 19" fill="none" xmlns="http://www.w3.org/2000/svg">
<path d="M9.97442 2.45692L9.51471 1.54074L7.45574 0.397949L6.99927 0.854419L8.14206 2.91339L9.05824 3.3731L13.6362 7.95107L14.5524 7.03457L9.97442 2.45692Z" fill="#FF6243"/>
<path d="M7.45574 1.04542L9.51471 2.18822L9.97442 3.1044L14.2287 7.35831L14.5524 7.03457L9.97442 2.45692L9.51471 1.54074L7.45574 0.397949L6.99927 0.854419L7.23042 1.27075L7.45574 1.04542Z" fill="#FF5023"/>
<path d="M9.57878 6.89638C9.1232 6.82789 8.6576 6.88205 8.22992 7.05331C7.80224 7.22457 7.42793 7.50673 7.14554 7.87074C6.86316 8.23474 6.6829 8.66744 6.62332 9.12427C6.56375 9.5811 6.62702 10.0455 6.80661 10.4698L8.50527 8.77115L9.65 9.00003L9.87888 10.1448L8.18023 11.8434C8.60448 12.023 9.06894 12.0863 9.52577 12.0267C9.98259 11.9671 10.4153 11.7869 10.7793 11.5045C11.1433 11.2221 11.4255 10.8478 11.5967 10.4201C11.768 9.99243 11.8221 9.52683 11.7536 9.07125C11.718 8.86413 11.7317 8.65153 11.7936 8.45068C11.8555 8.24983 11.9638 8.06638 12.1098 7.91519L14.5167 5.50626C14.668 5.3603 14.8514 5.252 15.0523 5.19013C15.2531 5.12826 15.4657 5.11456 15.6728 5.15014C16.1282 5.21845 16.5935 5.16422 17.0209 4.99305C17.4483 4.82187 17.8224 4.53992 18.1048 4.1762C18.3871 3.81248 18.5674 3.38012 18.6272 2.92358C18.687 2.46705 18.6241 2.00283 18.445 1.57867L16.7463 3.27732L15.6016 3.04844L15.3727 1.9037L17.0714 0.205052C16.6471 0.0254573 16.1827 -0.0378112 15.7258 0.0217614C15.269 0.0813339 14.8363 0.261594 14.4723 0.543981C14.1083 0.826367 13.8261 1.20067 13.6549 1.62836C13.4836 2.05604 13.4294 2.52164 13.4979 2.97722C13.5335 3.18434 13.5198 3.39693 13.458 3.59778C13.3961 3.79863 13.2878 3.98208 13.1418 4.13328L12.3972 4.87788L12.3992 4.87982L12.3972 4.87788L11.4811 5.79406L11.483 5.796L11.4811 5.79406L10.7365 6.53865C10.5853 6.68516 10.4016 6.79392 10.2004 6.85608C9.99927 6.91824 9.78628 6.93205 9.57878 6.89638Z" fill="#FF9811"/>
<path d="M18.4449 1.57861L17.9447 2.07879C18.017 2.42803 18.0159 2.78847 17.9415 3.13726C17.8671 3.48606 17.7211 3.81559 17.5126 4.10498C17.3042 4.39437 17.0379 4.6373 16.7307 4.81838C16.4234 4.99945 16.0819 5.11472 15.7278 5.15688C16.1799 5.21535 16.6393 5.15347 17.0598 4.97748C17.4803 4.8015 17.8469 4.51765 18.1226 4.15462C18.3983 3.79159 18.5732 3.36223 18.6298 2.90992C18.6864 2.45761 18.6226 1.99838 18.4449 1.57861Z" fill="#EE8700"/>
<path d="M15.0252 5.15213C14.8181 5.11655 14.6055 5.13025 14.4047 5.19212C14.2038 5.25399 14.0204 5.36228 13.8692 5.50824L11.4603 7.91523C11.3143 8.06642 11.206 8.24987 11.1441 8.45072C11.0822 8.65157 11.0685 8.86417 11.1041 9.0713C11.1565 9.41372 11.1394 9.76319 11.0537 10.0988C10.9681 10.4345 10.8157 10.7494 10.6056 11.0249C10.3955 11.3003 10.1321 11.5306 9.8311 11.702C9.53007 11.8734 9.1976 11.9824 8.85352 12.0225C9.25125 12.0753 9.65582 12.0349 10.0352 11.9044C10.4147 11.7739 10.7585 11.557 11.0396 11.2707C11.3208 10.9844 11.5314 10.6367 11.655 10.255C11.7786 9.87325 11.8117 9.46801 11.7516 9.0713C11.716 8.86417 11.7297 8.65157 11.7916 8.45072C11.8534 8.24987 11.9617 8.06642 12.1077 7.91523L14.5167 5.5063C14.7017 5.32701 14.9371 5.20852 15.1913 5.1667C15.136 5.16249 15.0803 5.16022 15.0252 5.15213Z" fill="#EE8700"/>
<path d="M16.1937 11.423C16.4365 11.6659 16.7659 11.8023 17.1094 11.8023C17.4528 11.8023 17.7822 11.6659 18.0251 11.423C18.2679 11.1802 18.4044 10.8508 18.4044 10.5073C18.4044 10.1639 18.2679 9.83448 18.0251 9.59163L15.9253 7.49219L14.0942 9.32325L16.1937 11.423Z" fill="#005ECE"/>
<path d="M14.0942 9.3232L15.9252 7.49214C16.0467 7.37073 16.1149 7.20605 16.115 7.03432C16.115 6.8626 16.0468 6.6979 15.9254 6.57645C15.804 6.455 15.6393 6.38675 15.4676 6.38672C15.2959 6.38669 15.1312 6.45488 15.0097 6.57628L13.1783 8.40767C13.1182 8.4678 13.0705 8.53919 13.038 8.61775C13.0055 8.69632 12.9888 8.78052 12.9888 8.86555C12.9888 8.95058 13.0055 9.03477 13.0381 9.11332C13.0707 9.19187 13.1184 9.26324 13.1785 9.32336C13.2386 9.38347 13.31 9.43115 13.3886 9.46368C13.4671 9.49621 13.5513 9.51294 13.6364 9.51292C13.7214 9.51291 13.8056 9.49615 13.8842 9.46359C13.9627 9.43104 14.0341 9.38333 14.0942 9.3232Z" fill="#004FAC"/>
<path d="M2.58984 18.65H5.17974V17.6788V13.794V12.8228H2.58984V13.4702V18.0026V18.65Z" fill="#006DF0"/>
<path d="M0 13.4702H2.5899V18.0025H0V13.4702Z" fill="#004FAC"/>
<path d="M18.5436 13.5999C18.48 13.4896 18.3954 13.3928 18.2945 13.3152C18.1935 13.2376 18.0783 13.1806 17.9553 13.1475C17.8324 13.1144 17.7041 13.1059 17.5778 13.1225C17.4516 13.139 17.3298 13.1802 17.2195 13.2438L13.7652 15.238H13.7636C13.7176 15.0779 13.6311 14.9323 13.5123 14.8155C13.3935 14.6986 13.2466 14.6145 13.0857 14.5711L8.25552 13.2762C7.93687 13.1908 7.60174 13.188 7.28172 13.2681L5.17969 13.7942V17.679L6.06446 18.1216C6.33419 18.2563 6.63155 18.3264 6.93305 18.3265H11.7817C12.1225 18.327 12.4575 18.2376 12.7529 18.0675L18.1917 14.9272C18.4143 14.7978 18.5764 14.5853 18.6424 14.3364C18.7084 14.0875 18.6729 13.8226 18.5436 13.5999Z" fill="#FFBCAB"/>
<path d="M1.61865 13.4702H2.58987V18.0025H1.61865V13.4702Z" fill="#00479B"/>
<path d="M13.7882 15.3402C13.7827 15.3725 13.7811 15.4049 13.7724 15.4373C13.7395 15.5606 13.6826 15.6761 13.605 15.7774C13.5274 15.8787 13.4306 15.9637 13.3201 16.0275C13.2097 16.0914 13.0877 16.1329 12.9612 16.1496C12.8348 16.1663 12.7062 16.1579 12.583 16.1249L9.79203 15.3771L9.10377 15.1929L9.00146 15.4891L12.583 16.4486C12.7407 16.4918 12.9068 16.4942 13.0656 16.4556C13.2245 16.4171 13.371 16.3388 13.4915 16.2283C13.6119 16.1177 13.7023 15.9783 13.7542 15.8233C13.8061 15.6683 13.8178 15.5026 13.7882 15.3418V15.3402Z" fill="#FF9478"/>
</svg>
