<svg width="512" height="512" viewBox="0 0 512 512" fill="none" xmlns="http://www.w3.org/2000/svg">
<path d="M83.7266 473.941H420.66V489.164H83.7266V473.941Z" fill="#0CBF4E"/>
<path d="M321.711 60.8906C317.508 60.8906 314.102 64.3008 314.102 68.5039C314.102 72.707 317.508 76.1133 321.711 76.1133H372.457V60.8906H321.711Z" fill="#464E54"/>
<path d="M443.496 251.18H321.711L382.605 372.965H443.496V251.18Z" fill="#0CBF4E"/>
<path d="M60.8906 251.18H382.605V372.965H60.8906V251.18Z" fill="#5DC75D"/>
<path d="M504.387 281.625V504.387C504.387 508.594 500.98 512 496.777 512H473.941L458.719 496.777V266.402L504.387 281.625Z" fill="#0CBF4E"/>
<path d="M420.66 512H473.941V266.402H413.051V504.387C413.051 508.594 416.457 512 420.66 512Z" fill="#5DC75D"/>
<path d="M0 281.625V504.387C0 508.594 3.40625 512 7.61328 512H60.8906L76.1133 496.777V266.402L0 281.625Z" fill="#5DC75D"/>
<path d="M83.7266 512H60.8906V266.402H91.3398V504.387C91.3398 508.594 87.9297 512 83.7266 512Z" fill="#0CBF4E"/>
<path d="M413.051 83.7266H359.77C355.566 83.7266 352.16 80.3203 352.16 76.1133V60.8906C352.16 56.6875 355.566 53.2812 359.77 53.2812H382.605L413.051 83.7266Z" fill="#637176"/>
<path d="M473.941 220.734H413.051L443.496 53.2812H466.332C470.535 53.2812 473.941 56.6875 473.941 60.8906V220.734Z" fill="#9CB5BB"/>
<path d="M382.605 53.2812H443.496V220.734H382.605V53.2812Z" fill="#B9D8DD"/>
<path d="M504.387 251.18L443.496 220.734L473.941 281.625H504.387V251.18Z" fill="#464E54"/>
<path d="M473.941 220.734H30.4453L0 251.18V281.625H473.941V220.734Z" fill="#637176"/>
<path d="M504.387 251.18H473.941L428.273 220.734L473.941 190.289H496.777C500.98 190.289 504.387 193.695 504.387 197.898V251.18Z" fill="#637176"/>
<path d="M473.941 251.18H352.16L282.641 220.734L213.121 251.18H152.23L91.3398 190.289H473.941V251.18Z" fill="#809399"/>
<path d="M137.008 22.8359V83.7266H175.062C179.27 83.7266 182.676 80.3203 182.676 76.1133V30.4453C182.676 26.2422 179.27 22.8359 175.062 22.8359H137.008Z" fill="#637176"/>
<path d="M152.23 251.18H121.785L60.8906 68.5039L152.23 98.9492V251.18Z" fill="#B9D8DD"/>
<path d="M121.785 251.18H60.8906L15.2227 83.7266H121.785V251.18Z" fill="#D6FAFF"/>
<path d="M121.785 7.61328L91.3398 53.2812L121.785 98.9492H152.23V15.2227C152.23 11.0195 148.82 7.61328 144.617 7.61328H121.785Z" fill="#9CB5BB"/>
<path d="M60.8906 7.61328L30.4453 98.9492H121.785V7.61328H60.8906Z" fill="#B9D8DD"/>
<path d="M30.4453 7.61328C13.6992 7.61328 0 21.3125 0 38.0586V251.18H60.8906V7.61328H30.4453Z" fill="#9CB5BB"/>
<path d="M291.266 190.289L352.16 159.84V137.008C352.16 132.805 348.75 129.395 344.547 129.395H321.711L291.266 190.289Z" fill="#464E54"/>
<path d="M321.711 190.289L213.121 159.84V137.008C213.121 132.805 216.531 129.395 220.734 129.395H321.711V190.289Z" fill="#637176"/>
<path d="M352.16 251.18H321.711L276.043 205.512L321.711 159.84H352.16V251.18Z" fill="#B9D8DD"/>
<path d="M213.121 159.84H321.711V251.18H213.121V159.84Z" fill="#D6FAFF"/>
<path d="M98.9492 38.0586C98.9492 42.2617 95.543 45.668 91.3398 45.668C87.1328 45.668 83.7266 42.2617 83.7266 38.0586C83.7266 33.8555 87.1328 30.4453 91.3398 30.4453C95.543 30.4453 98.9492 33.8555 98.9492 38.0586Z" fill="#292C32"/>
<path d="M129.395 38.0586C129.395 42.2617 125.988 45.668 121.785 45.668C117.582 45.668 114.172 42.2617 114.172 38.0586C114.172 33.8555 117.582 30.4453 121.785 30.4453C125.988 30.4453 129.395 33.8555 129.395 38.0586Z" fill="#292C32"/>
<path d="M98.9492 68.5039C98.9492 72.707 95.543 76.1133 91.3398 76.1133C87.1328 76.1133 83.7266 72.707 83.7266 68.5039C83.7266 64.3008 87.1328 60.8906 91.3398 60.8906C95.543 60.8906 98.9492 64.3008 98.9492 68.5039Z" fill="#292C32"/>
<path d="M129.395 68.5039C129.395 72.707 125.988 76.1133 121.785 76.1133C117.582 76.1133 114.172 72.707 114.172 68.5039C114.172 64.3008 117.582 60.8906 121.785 60.8906C125.988 60.8906 129.395 64.3008 129.395 68.5039Z" fill="#292C32"/>
<path d="M213.121 106.562C208.918 106.562 205.512 103.152 205.512 98.9492V7.61328C205.512 3.40625 208.918 0 213.121 0C217.328 0 220.734 3.40625 220.734 7.61328V98.9492C220.734 103.152 217.328 106.562 213.121 106.562Z" fill="#464E54"/>
<path d="M504.387 106.562C500.184 106.562 496.777 103.152 496.777 98.9492V53.2812C496.777 49.0742 500.184 45.668 504.387 45.668C508.594 45.668 512 49.0742 512 53.2812V98.9492C512 103.152 508.594 106.562 504.387 106.562Z" fill="#464E54"/>
</svg>
