<svg width="19" height="19" viewBox="0 0 19 19" fill="none" xmlns="http://www.w3.org/2000/svg">
<path d="M4.6626 2.48193H11.5106V15.5302H4.6626V2.48193Z" fill="#09A1E5"/>
<path d="M9.3251 0L4.6626 2.48216L9.3251 4.96432H13.9876V2.48216L9.3251 0Z" fill="#3EC3FF"/>
<path d="M11.802 4.96436L13.9875 18.65L18.65 16.1679V4.96436H11.802Z" fill="#962B7C"/>
<path d="M9.32495 4.96436V9.92868L7.50366 13.0483L9.32495 16.1679L13.9875 18.65V4.96436H9.32495Z" fill="#CB2E81"/>
<path d="M18.65 4.9641L13.9875 2.48193L9.32495 4.9641L13.9875 7.44622L18.65 4.9641Z" fill="#FF3187"/>
<path d="M2.47705 9.92871L4.6626 18.6501L9.3251 16.1679V9.92871H2.47705Z" fill="#FF9259"/>
<path d="M0 9.92871V16.1679L4.6625 18.6501V9.92871H0Z" fill="#FFB24A"/>
<path d="M4.6625 7.44629L0 9.92849L4.6625 12.4106L9.325 9.92849L4.6625 7.44629Z" fill="#FFD23B"/>
</svg>
