<svg width="512" height="500" viewBox="0 0 512 500" fill="none" xmlns="http://www.w3.org/2000/svg">
<path d="M472.489 462.58L480.002 457.597L509.621 399.626C511.701 395.555 512.443 390.932 511.742 386.415L510.323 377.269L471.862 269.452L479.854 180.862C479.854 180.862 457.045 0.848633 247.472 0.848633C192.992 0.848633 96.7428 5.80423 31.1866 61.9372C25.154 67.1026 23.3217 75.6933 26.6787 82.8909C30.7693 91.6588 34.7587 103.662 30.8301 111.518C24.0097 125.159 -2.13655 203.597 0.136939 217.238C1.56602 225.811 7.9344 260.429 12.4694 284.967L24.4378 298.756L472.489 462.58Z" fill="#09A76D"/>
<path d="M445.965 460.404L480.002 457.596L509.621 399.625C511.701 395.554 512.443 390.931 511.742 386.414L510.323 377.268L491.364 356.825H474.549L480.218 393.362L445.965 460.404Z" fill="#02905D"/>
<path d="M285.204 2.9624V8.64069C429.793 43.1712 447.252 180.861 447.252 180.861L449.903 197.943H469.134L479.027 175.925C473.904 149.05 441.382 20.9167 285.204 2.9624Z" fill="#02905D"/>
<path d="M18.0945 145.653C59.3846 158.569 103.788 157.76 144.63 143.279L202.046 122.92C250.42 105.769 290.347 70.6759 313.565 24.904L321.377 9.50582C299.772 4.01446 275.266 0.847656 247.474 0.847656C192.994 0.847656 96.745 5.80325 31.1888 61.9362C25.1562 67.1016 23.3239 75.6924 26.6809 82.8899C30.7715 91.6579 34.7609 103.661 30.8323 111.517C28.3632 116.455 23.3631 129.883 18.0945 145.653Z" fill="#017B4E"/>
<path d="M510.324 377.269L479.855 180.861C479.855 180.861 479.63 179.096 479.026 175.925L397.162 179.755C393.406 179.931 389.655 179.303 386.162 177.916L353.285 164.85C353.285 164.85 238.225 119.331 220.524 180.023C206.507 228.08 269.082 260.282 295.74 271.606C303.111 274.737 308.666 281.025 310.852 288.729C312.911 295.988 317.974 302.021 324.765 305.309L463.102 372.281C469.881 375.563 477.315 377.269 484.846 377.269H510.324Z" fill="#D8ECFE"/>
<path d="M479.855 180.861C479.855 180.861 479.63 179.096 479.026 175.925L446.701 177.438C447.095 179.642 447.251 180.861 447.251 180.861L477.636 376.725C480.018 377.073 482.425 377.269 484.846 377.269H510.323L479.855 180.861Z" fill="#C4E2FF"/>
<path d="M463.919 487.99L465.364 485.844C465.93 485.003 466.445 484.129 466.907 483.226L480.003 457.597L48.943 284.967H12.4716C12.4716 284.967 15.2384 299.923 16.0915 304.527C16.7751 308.216 15.521 311.998 12.7672 314.547C6.85414 320.021 8.68858 329.793 16.185 332.75L433.675 497.387C444.714 501.74 457.292 497.831 463.919 487.99Z" fill="#B5ADB6"/>
<path d="M452.937 446.758L434.304 483.226C433.843 484.129 433.328 485.003 432.76 485.844L431.315 487.99C429.683 490.414 427.688 492.473 425.447 494.141L433.677 497.386C444.714 501.739 457.292 497.83 463.919 487.989L465.364 485.843C465.93 485.002 466.446 484.128 466.907 483.225L480.003 457.596L452.937 446.758Z" fill="#A79BA7"/>
<path d="M70.5564 89.9147L75.7348 102.86C77.7279 107.844 83.2693 110.4 88.3542 108.682L151.212 87.4456C162.13 83.7571 166.574 70.715 160.182 61.1277C155.736 54.4583 147.331 51.6566 139.773 54.3246L76.577 76.6302C71.1596 78.5418 68.4231 84.5798 70.5564 89.9147Z" fill="#09A76D"/>
<path d="M283.729 224.64C295.713 224.64 305.429 214.924 305.429 202.939C305.429 190.955 295.713 181.239 283.729 181.239C271.744 181.239 262.028 190.955 262.028 202.939C262.028 214.924 271.744 224.64 283.729 224.64Z" fill="#A79BA7"/>
<path d="M379.295 134.112C376.323 134.112 373.46 132.482 372.022 129.65L364.007 113.867C361.969 109.853 363.571 104.947 367.585 102.909C371.597 100.871 376.504 102.472 378.542 106.487L386.557 122.27C388.595 126.283 386.993 131.19 382.98 133.227C381.797 133.827 380.536 134.112 379.295 134.112Z" fill="#017B4E"/>
<path d="M415.184 134.112C412.212 134.112 409.348 132.482 407.911 129.65L399.896 113.867C397.858 109.853 399.46 104.947 403.474 102.909C407.487 100.871 412.392 102.472 414.431 106.487L422.446 122.27C424.484 126.283 422.882 131.19 418.868 133.227C417.686 133.827 416.425 134.112 415.184 134.112Z" fill="#017B4E"/>
<path d="M70.7194 265.415C69.6631 265.415 68.5904 265.208 67.5559 264.772C63.4088 263.023 61.4646 258.242 63.2132 254.095L69.3392 239.57C71.0889 235.423 75.8706 233.479 80.0166 235.228C84.1636 236.977 86.1078 241.758 84.3592 245.905L78.2332 260.43C76.9204 263.543 73.8981 265.415 70.7194 265.415Z" fill="#017B4E"/>
<path d="M101.225 278.281C100.168 278.281 99.0956 278.074 98.061 277.638C93.9129 275.889 91.9698 271.108 93.7183 266.961L99.8444 252.438C101.594 248.291 106.376 246.347 110.522 248.095C114.67 249.845 116.613 254.625 114.864 258.772L108.738 273.296C107.426 276.408 104.403 278.281 101.225 278.281Z" fill="#017B4E"/>
</svg>
