<svg width="512" height="316" viewBox="0 0 512 316" fill="none" xmlns="http://www.w3.org/2000/svg">
<path d="M388.746 164.934C390.461 163.133 392.309 161.418 394.25 159.766L404.055 191.891C390.25 200.605 381.07 215.98 381.07 233.512C381.07 260.684 403.098 282.707 430.27 282.707C457.438 282.707 479.465 260.684 479.465 233.512C479.465 209.527 461.262 188.535 438.543 184.188L481.379 169.543C499.453 184.535 512 208.195 512 233.516C512 278.652 475.406 315.246 430.27 315.246C393.602 315.246 360.512 290.066 350.156 256.809C352.488 227.242 368.309 186.395 388.746 164.934Z" fill="#576574"/>
<path d="M406.047 300.832C381.055 284.113 370.316 252.59 379.258 223.879C384.195 208.023 391.453 191.98 400.105 178.949L394.25 159.766C392.309 161.418 390.465 163.133 388.75 164.934C368.309 186.395 352.488 227.242 350.156 256.809C360.512 290.07 393.602 315.246 430.27 315.246C434.082 315.246 437.832 314.965 441.508 314.457C428.68 312.668 416.562 307.863 406.047 300.832Z" fill="#3E4B5A"/>
<path d="M426.969 141.906C428.449 141.836 429.938 141.785 431.438 141.785C452.293 141.785 472.172 149.57 487.512 161.375C490.383 163.582 489.637 168.102 486.211 169.273L431.715 187.902L417.617 145.98L426.969 141.906Z" fill="#FECA57"/>
<path d="M449.473 143.723C443.605 142.473 437.566 141.785 431.438 141.785C429.938 141.785 428.449 141.836 426.969 141.906L417.617 145.98L431.715 187.902L460.965 177.902L449.473 143.723Z" fill="#F4B537"/>
<path d="M105.637 86.0078L138.504 113.023C145.883 119.09 155.598 121.516 164.965 119.633L182.656 145.75L151.633 147.707C142.02 148.316 132.539 145.242 125.113 139.117L73.7852 96.7734L105.637 86.0078Z" fill="#576574"/>
<path d="M158.285 139.117L113.754 102.379C110.789 99.9336 111.664 95.1836 115.305 93.9531L105.637 86.0078L73.7852 96.7734L125.113 139.117C132.539 145.242 142.023 148.316 151.633 147.707L172.289 146.402C167.207 144.996 162.426 142.531 158.285 139.117Z" fill="#3E4B5A"/>
<path d="M342.68 78.0857C331.426 82.5349 289.77 105.644 266.773 117.367C256.73 122.488 248.664 130.773 243.816 140.949L238.684 151.73L179.324 82.9294C221.906 24.9294 251.016 39.3044 289.633 48.0583C317.164 54.2966 348.535 75.8357 348.535 75.8357C346.598 75.906 344.637 77.3122 342.68 78.0857Z" fill="#FECA57"/>
<path d="M236.859 70.3163C249.234 56.0156 260.527 47.871 271.391 43.664C241.156 36.539 214.957 34.3945 179.324 82.9296L238.684 151.73L243.816 140.949C247.535 133.148 253.148 126.465 260.09 121.457L236.867 94.5429C230.867 87.5859 230.848 77.2617 236.859 70.3163Z" fill="#F4B537"/>
<path d="M81.7305 151.781C110.199 151.781 135.254 166.344 149.891 188.414L120.043 202.664C111.023 191.48 97.2188 184.316 81.7305 184.316C54.5625 184.316 32.5352 206.344 32.5352 233.512C32.5352 260.684 54.5625 282.707 81.7305 282.707C106.91 282.707 127.66 263.785 130.566 239.391L163.352 237.801C161.121 280.945 125.434 315.246 81.7305 315.246C36.5938 315.246 0 278.652 0 233.516C0 188.375 36.5938 151.781 81.7305 151.781Z" fill="#576574"/>
<path d="M28.332 233.516C28.332 193.195 57.5352 159.719 95.9375 153.023C91.3242 152.215 86.5781 151.781 81.7305 151.781C36.5938 151.781 0 188.375 0 233.516C0 278.652 36.5938 315.246 81.7305 315.246C86.5664 315.246 91.2969 314.805 95.9023 313.996C57.5156 307.289 28.332 273.82 28.332 233.516Z" fill="#3E4B5A"/>
<path d="M16.6562 34.4727H33.5078C40.8711 34.4727 47.9688 37.2617 53.3633 42.2812L73.7852 61.2734L106.961 88.5391L75.6406 98.4688C64.7578 101.16 51.4414 96.5195 44.3008 87.8789L10.6758 47.1758C6.49609 42.1133 10.0937 34.4727 16.6562 34.4727Z" fill="#FF6B6B"/>
<path d="M76.8789 87.8789L43.2539 47.1758C40.3984 43.7188 41.1797 39.0586 44.0508 36.4492C40.7188 35.1562 37.1445 34.4727 33.5039 34.4727H16.6562C10.0937 34.4727 6.49609 42.1133 10.6758 47.1758L44.3008 87.8789C51.4414 96.5234 64.7578 101.16 75.6406 98.4688L86.0117 95.1797C82.4805 93.2969 79.3164 90.8281 76.8789 87.8789Z" fill="#EE5253"/>
<path d="M214.863 229.316C212.086 223.594 210.68 217.445 210.68 211.043C210.68 204.484 212.16 198.195 215.082 192.348L215.352 191.809L197.539 165.516L74.1641 223.426L74.1602 223.43C64.2266 228.168 67.8047 243.453 79.0742 242.926L178.402 238.199L177.656 236.773C176.992 235.504 177.047 234.008 177.801 232.762C178.559 231.512 179.836 230.797 181.305 230.797H215.582L214.863 229.316Z" fill="#E4EAF8"/>
<path d="M126.652 223.43L126.656 223.426L210.203 184.211L197.539 165.516L74.1641 223.426L74.1602 223.43C64.2266 228.168 67.8047 243.453 79.0742 242.926L124.637 240.758C119.352 236.457 119.207 226.98 126.652 223.43Z" fill="#C7D2E5"/>
<path d="M203.992 110.238L238.68 148.641L225.605 176.086C219.91 180.152 215.254 185.574 212.102 191.887L163.465 120.094L203.992 110.238Z" fill="#C7D2E5"/>
<path d="M205.668 137.809C201.07 131.02 204.656 121.73 212.621 119.793L203.992 110.238L163.465 120.094L212.102 191.887C215.254 185.574 219.91 180.152 225.605 176.086L228.078 170.891L205.668 137.809Z" fill="#AABCD6"/>
<path d="M375.328 90.2734C374.227 90.7265 373.121 91.1914 372.02 91.6523L363.512 66.0312L341.008 51.2812C334.566 47.0586 332.832 38.5117 337.125 32.1875C341.422 25.8633 350.121 24.1562 356.559 28.3789L383.105 45.7773C385.723 47.4922 387.676 50.0195 388.648 52.9609L396.434 76.3984C391.535 81.6523 384.699 86.414 375.328 90.2734Z" fill="#576574"/>
<path d="M417.504 143.883L445.176 228.73C447.602 236.164 443.539 244.156 436.105 246.582C434.648 247.059 433.172 247.281 431.715 247.281C425.754 247.281 420.207 243.488 418.258 237.512L392.781 159.395C399.922 153.316 408.43 148.191 417.504 143.883Z" fill="#576574"/>
<path d="M384.633 66.0312L362.125 51.2812C355.687 47.0625 353.949 38.5156 358.246 32.1914C358.68 31.5508 359.168 30.9726 359.687 30.4297L356.559 28.3789C350.121 24.1601 341.422 25.8672 337.125 32.1914C332.828 38.5156 334.566 47.0625 341.004 51.2812L363.512 66.0312L372.016 91.6523C373.121 91.1914 374.227 90.7265 375.328 90.2734C381.141 87.8789 385.977 85.1367 389.98 82.1484L384.633 66.0312Z" fill="#3E4B5A"/>
<path d="M439.379 237.512L416.449 167.215C414.875 162.383 416.594 157.047 420.762 154.137L420.832 154.086L417.504 143.883C408.43 148.191 399.922 153.316 392.781 159.395L418.258 237.512C420.207 243.488 425.754 247.281 431.715 247.281C433.168 247.281 434.648 247.059 436.105 246.582C438.574 245.777 440.66 244.348 442.27 242.539C441.008 241.125 440.004 239.434 439.379 237.512Z" fill="#3E4B5A"/>
<path d="M264.617 171.148C260.504 169.84 256.121 169.125 251.57 169.125C242.27 169.125 232.637 171.058 225.605 176.086L243.816 137.859C248.664 127.683 256.73 119.398 266.773 114.277C289.77 102.555 331.426 81.5077 342.68 77.0584C358.465 70.8163 375.645 91.3006 375.645 91.3006C347.266 103.191 316.852 118.914 295.258 130.242C278.777 138.883 268.336 153.355 264.617 171.148Z" fill="#E4EAF8"/>
<path d="M256.891 147.992C261.738 137.817 269.805 129.531 279.848 124.41C302.844 112.688 344.5 91.6407 355.754 87.1915C361.941 84.7423 368.344 86.4103 373.844 89.34C369.039 84.3673 355.406 72.0236 342.676 77.0587C331.426 81.5079 289.766 102.555 266.77 114.277C256.73 119.399 248.664 127.684 243.816 137.859L225.605 176.086C231.422 171.93 239.02 169.891 246.734 169.309L256.891 147.992Z" fill="#C7D2E5"/>
<path d="M265.73 186.469C264.266 185.824 263.316 184.359 263.316 182.734C263.316 178.57 263.746 174.398 264.598 170.332L264.785 169.422L263.902 169.141C259.582 167.762 255.086 167.066 250.539 167.066C226.285 167.066 206.559 186.793 206.559 211.047C206.559 217.762 208.035 224.211 210.949 230.215L211.23 230.797H226.723C227.988 230.797 229.18 231.391 229.98 232.422C235.707 239.77 244.461 244.012 253.715 244.012C254.383 244.012 255.051 243.988 255.723 243.945C270.355 242.973 282.336 231.234 283.594 216.641C284.703 203.766 277.523 191.641 265.73 186.469Z" fill="#576574"/>
<path d="M262.918 232.418C262.113 231.387 260.926 230.797 259.656 230.797H253.484C243.832 230.797 241.027 222.48 240.359 219.703C239.793 216.879 239.492 213.988 239.492 211.043C239.492 193.625 249.676 178.535 264.398 171.422C264.469 171.059 264.523 170.691 264.598 170.328L264.785 169.422L263.902 169.137C259.582 167.762 255.086 167.062 250.539 167.062C226.285 167.062 206.559 186.793 206.559 211.043C206.559 217.762 208.035 224.211 210.949 230.215L211.23 230.797H226.723C227.988 230.797 229.18 231.387 229.98 232.418C235.707 239.77 244.461 244.012 253.715 244.012C254.383 244.012 255.051 243.988 255.723 243.945C260.996 243.594 265.922 241.84 270.129 239.062C267.414 237.277 264.969 235.055 262.918 232.418Z" fill="#3E4B5A"/>
<path d="M278.734 199.398H278.73C281.629 204.367 283.105 210.27 282.566 216.551C281.352 230.652 269.777 241.977 255.652 242.914C245.551 243.586 236.473 239.074 230.797 231.785C229.813 230.523 228.324 229.766 226.723 229.766H179.242C175.094 229.766 172.66 234.43 175.027 237.836L208.258 285.566C209.219 286.945 210.793 287.766 212.473 287.766H343.215C345.816 287.766 348.004 285.82 348.309 283.238C349.461 273.516 352.797 249.52 360.004 224.719L278.734 199.398Z" fill="#FF6B6B"/>
<path d="M244.813 287.766C243.133 287.766 241.563 286.945 240.602 285.566L207.371 237.836C205 234.43 207.434 229.77 211.582 229.766H179.242C175.094 229.766 172.66 234.43 175.027 237.836L208.262 285.566C209.219 286.945 210.793 287.766 212.473 287.766H343.219H244.813Z" fill="#EE5253"/>
<path d="M269.773 238.066C287.055 249.898 312.949 239.312 314.906 216.551C315.078 214.543 315.023 212.566 314.793 210.633L278.734 199.398H278.73C281.629 204.367 283.105 210.27 282.566 216.551C281.797 225.48 276.871 233.293 269.773 238.066Z" fill="#EE5253"/>
<path d="M489.055 102.305C490.195 102.305 491.312 102.352 492.422 102.414L485.57 81.3086C483.547 75.082 480.883 69.1055 477.641 63.457L455.492 61.2891C448.672 60.6211 442.5 56.9531 438.656 51.2773L408.102 6.14844L403.617 8.89844C399.824 11.2266 398.273 15.9922 400.031 20.0859C406.629 35.4414 417.059 72.4922 374.613 90.2734C348.215 101.332 320.961 114.812 299.902 125.758C312.801 125.949 326.945 128.828 340.984 134.676C361.004 143.016 376.918 155.75 386.441 169.547C387.199 168.668 387.965 167.816 388.746 166.992C410.945 143.688 453.52 133.059 479.074 128.59C468.41 126.648 460.82 121.699 460.82 115.887C460.824 108.387 473.465 102.305 489.055 102.305Z" fill="#FECA57"/>
<path d="M327.598 128.18C329.102 127.391 330.664 126.578 332.246 125.754C332.246 125.754 332.246 125.754 332.242 125.754C332.637 125.551 333.695 125.004 334.27 124.707C355.035 113.957 381.391 100.98 406.957 90.2695C429.965 80.6328 437.434 65.332 438.398 50.8906L408.102 6.14453L403.621 8.89453C399.824 11.2266 398.277 15.9883 400.031 20.082C406.629 35.4414 417.059 72.4883 374.613 90.2695C348.219 101.328 320.961 114.812 299.902 125.754C308.023 125.875 316.641 127.066 325.414 129.387C326.133 128.973 326.859 128.566 327.598 128.18Z" fill="#F4B537"/>
<path d="M454.465 62.3202C447.641 61.6523 441.469 57.9804 437.629 52.3046L406.883 6.89444L415.938 1.33194C419.688 -0.972749 424.555 -0.226655 427.449 3.08975L466.902 48.3515C471.285 53.3788 475.094 58.8476 478.309 64.6523L454.465 62.3202Z" fill="#8AC2FF"/>
<path d="M465.316 52.7891C458.496 52.1211 452.324 48.4531 448.48 42.7773L419.566 0.0703125C418.312 0.222656 417.074 0.636719 415.938 1.33203L406.879 6.89453L437.625 52.3047C441.469 57.9805 447.641 61.6523 454.461 62.3164L478.309 64.6484C476.125 60.7109 473.645 56.9375 470.918 53.3359L465.316 52.7891Z" fill="#54A0FF"/>
<path d="M306.254 219.02C296.805 215.082 288.324 210.109 281.074 204.492C278.422 196.844 272.676 190.641 265.316 187.41C263.469 186.602 262.285 184.758 262.285 182.734C262.285 159.836 274.977 138.816 295.258 128.18C297.402 127.059 299.641 125.891 301.93 124.707C314.453 124.711 328.297 127.434 342.02 133.148C362.348 141.617 378.211 154.887 386.891 169.039C374.289 183.41 365.52 205.293 359.527 226.383C344.004 229.074 325.016 226.832 306.254 219.02Z" fill="#EE5253"/>
<path d="M265.316 187.41C272.676 190.641 278.422 196.844 281.07 204.492C288.32 210.109 296.805 215.082 306.254 219.02C308.816 220.086 311.379 221.039 313.941 221.898C314.406 220.199 314.746 218.422 314.906 216.551C315.992 203.938 308.832 192.312 297.656 187.41C295.805 186.602 294.625 184.758 294.625 182.734C294.625 159.859 307.289 138.863 327.531 128.215C318.703 125.859 310.039 124.707 301.93 124.707C299.641 125.891 297.398 127.055 295.258 128.18C274.977 138.816 262.285 159.836 262.285 182.734C262.285 184.758 263.465 186.602 265.316 187.41Z" fill="#D83941"/>
<path d="M74.0352 60.9764C81.4414 52.3163 94.2305 50.8983 103.633 57.3358C133.062 77.4803 179.324 82.9295 179.324 82.9295L205.293 111.68L163.465 120.098C154.254 121.949 144.699 119.562 137.441 113.598L73.7852 61.2733C73.8672 61.1717 73.9492 61.0741 74.0352 60.9764Z" fill="#3E4B5A"/>
<path d="M188.695 113.598L141.09 74.4647C128.484 70.5428 114.84 65.0077 103.637 57.3358C94.2305 50.8983 81.4414 52.3163 74.0352 60.9764C73.9531 61.0741 73.8672 61.1717 73.7852 61.2733L137.441 113.598C144.699 119.562 154.254 121.949 163.465 120.094L190.156 114.723C189.66 114.363 189.172 113.988 188.695 113.598Z" fill="#374451"/>
<path d="M460.121 115.809C460.121 108.207 472.406 102.047 487.559 102.047C489.203 102.047 490.809 102.121 492.371 102.262L496.457 114.852C498.258 120.395 494.621 126.215 488.852 127.035C485.789 127.473 482.184 128.039 478.195 128.746C467.652 126.828 460.121 121.758 460.121 115.809Z" fill="#576574"/>
<path d="M481.07 115.809C481.07 111.078 485.828 106.906 493.074 104.43L492.367 102.262C490.809 102.121 489.199 102.047 487.559 102.047C472.406 102.047 460.121 108.207 460.121 115.809C460.121 121.758 467.652 126.828 478.195 128.746C482.18 128.039 485.785 127.473 488.852 127.035C489.641 126.926 490.383 126.711 491.082 126.426C484.977 123.902 481.07 120.086 481.07 115.809Z" fill="#3E4B5A"/>
</svg>
