<svg width="512" height="460" viewBox="0 0 512 460" fill="none" xmlns="http://www.w3.org/2000/svg">
<path d="M328.069 250.483C325.922 250.483 305.228 254.854 303.722 253.097C300.986 249.903 319.919 239.825 323.112 237.091L477.235 105.054C504.059 79.5371 499.228 51.5421 486.921 35.3021C474.638 19.0911 450.116 8.39609 425.305 23.2231C421.696 25.3791 417.023 24.2011 414.866 20.5921C412.71 16.9831 413.888 12.3101 417.497 10.1531C431.991 1.49209 447.838 -1.14391 463.325 2.52209C477.361 5.84709 490.051 14.2231 499.055 26.1071C516.456 49.0691 519.653 85.8421 487.57 116.235C487.478 116.321 487.384 116.406 487.287 116.489L333.017 248.652C331.582 249.882 329.821 250.483 328.069 250.483Z" fill="#E2DEE2"/>
<path fill-rule="evenodd" clip-rule="evenodd" d="M170.571 185.166C170.571 176.674 163.655 169.747 155.112 169.747H134.51C125.996 169.747 119.08 176.674 119.08 185.166V217.743H170.571V185.166Z" fill="#FED2A4"/>
<path fill-rule="evenodd" clip-rule="evenodd" d="M138.752 169.747C147.295 169.747 154.211 176.674 154.211 185.166V217.743H165.456H170.57V185.166C170.57 176.674 163.654 169.747 155.111 169.747H138.752Z" fill="#FFBD86"/>
<path fill-rule="evenodd" clip-rule="evenodd" d="M51.985 253.913L123.993 269.941L200.327 253.913V236.407C200.327 220.466 189.314 207.511 175.686 207.511H165.458H113.938H76.626C62.998 207.511 51.985 220.466 51.985 236.407V253.913Z" fill="#025F80"/>
<path fill-rule="evenodd" clip-rule="evenodd" d="M143.401 207.512C157 207.512 168.013 220.467 168.013 236.408V260.698L200.326 253.913V236.407C200.326 220.466 189.313 207.511 175.685 207.511H170.571H165.457H143.401V207.512Z" fill="#024C67"/>
<path fill-rule="evenodd" clip-rule="evenodd" d="M94.758 275.737H157.552V335.674H94.758V275.737Z" fill="#025F80"/>
<path fill-rule="evenodd" clip-rule="evenodd" d="M94.758 303.126H140.35V335.674H157.553V275.737H94.758V303.126Z" fill="#024C67"/>
<path fill-rule="evenodd" clip-rule="evenodd" d="M489.221 303.126L441.914 302.315L402.221 328.313L387.692 342.631L402.221 367.295L476.435 345.181C487.68 341.877 497.212 330.081 493.87 318.865L489.221 303.126Z" fill="#FFBD86"/>
<path fill-rule="evenodd" clip-rule="evenodd" d="M402.279 328.689L441.653 317.125L489.221 303.126L475.215 255.739C471.902 244.523 460.105 238.117 448.83 241.421L397.397 256.55C385.426 275.767 393.271 315.038 402.279 328.689Z" fill="#F3F0F3"/>
<path fill-rule="evenodd" clip-rule="evenodd" d="M465.481 310.111L489.221 303.126L475.215 255.739C471.902 244.523 460.105 238.117 448.83 241.421L431.831 246.406C440.258 247.189 447.755 252.956 450.283 261.535L465.481 310.111Z" fill="#E2DEE2"/>
<path fill-rule="evenodd" clip-rule="evenodd" d="M309.904 242.9C289.825 242.9 280.672 249.914 265.242 262.724L220.638 308.343C207.329 319.414 200.82 325.472 183.502 325.472H157.553H94.758H67.211C51.985 325.472 34.782 336.514 34.434 359.817C43.645 366.094 71.046 371.497 86.797 371.497C109.84 375.091 352.417 412.943 352.3 413.348C403.907 413.348 402.28 390.423 402.28 375.033V367.7V328.689V272.984C402.28 266.927 400.478 261.275 397.398 256.551C391.993 248.291 382.666 242.842 372.059 242.842L309.904 242.9Z" fill="#EB5569"/>
<path fill-rule="evenodd" clip-rule="evenodd" d="M371.187 273.013V375.062C371.187 386.047 372.03 400.886 353.694 408.479C353.287 410.044 352.88 411.58 352.386 413.116C352.357 413.174 352.328 413.261 352.299 413.348C403.906 413.348 402.279 390.423 402.279 375.033C402.279 341.007 402.279 307.01 402.279 272.984C402.279 266.927 400.477 261.275 397.397 256.551C391.992 248.291 382.665 242.842 372.058 242.842L340.966 242.871C351.572 242.871 360.929 248.32 366.305 256.551C369.415 261.304 371.187 266.927 371.187 273.013Z" fill="#E53950"/>
<path fill-rule="evenodd" clip-rule="evenodd" d="M51.142 357.064C22.898 357.064 0 379.902 0 408.074C0 436.245 22.898 459.084 51.142 459.084C77.585 459.084 99.378 439.028 102.023 413.349C102.197 411.61 102.285 409.842 102.285 408.074C102.285 393.727 96.357 380.772 86.797 371.498C77.585 362.541 65.003 357.064 51.142 357.064Z" fill="#025F80"/>
<path fill-rule="evenodd" clip-rule="evenodd" d="M226.42 371.497H86.796C83.056 387.061 82.699 407.001 102.022 413.348H226.071C232.253 408.073 232.253 400.045 232.253 392.915C232.253 385.409 232.253 380.303 226.42 371.497Z" fill="#F3F0F3"/>
<path fill-rule="evenodd" clip-rule="evenodd" d="M323.881 449.316C313.769 455.518 301.913 459.083 289.186 459.083C276.459 459.083 264.603 455.518 254.52 449.316C235.516 437.694 222.847 416.768 222.847 392.915C222.847 356.367 252.544 326.747 289.187 326.747C325.8 326.747 355.527 356.368 355.527 392.915C355.525 416.769 342.856 437.694 323.881 449.316Z" fill="#025F80"/>
<path fill-rule="evenodd" clip-rule="evenodd" d="M289.186 423.956C295.172 423.956 300.722 422.275 305.458 419.377C310.165 416.508 314.03 412.421 316.645 407.552C318.999 403.176 320.306 398.22 320.306 392.916C320.306 375.758 306.358 361.875 289.185 361.875C272.012 361.875 258.064 375.758 258.064 392.916C258.064 394.771 258.238 396.597 258.558 398.394C260.156 407.263 265.503 414.827 272.913 419.378C277.65 422.275 283.229 423.956 289.186 423.956Z" fill="#F3F0F3"/>
<path fill-rule="evenodd" clip-rule="evenodd" d="M281.631 362.802C309.004 369.526 313.391 405.349 290.436 419.406C287.792 421.029 284.857 422.275 281.748 423.058C284.131 423.638 286.63 423.956 289.187 423.956C295.173 423.956 300.723 422.275 305.459 419.377C310.166 416.508 314.031 412.421 316.646 407.552C319 403.176 320.307 398.22 320.307 392.916C320.307 375.758 306.359 361.875 289.186 361.875C286.599 361.875 284.042 362.194 281.631 362.802Z" fill="#E2DEE2"/>
<path fill-rule="evenodd" clip-rule="evenodd" d="M279.596 327.443C311.676 332.08 336.346 359.614 336.346 392.915C336.346 398.944 335.532 404.769 334.021 410.305C329.546 426.738 318.882 440.621 304.701 449.316C297.175 453.924 288.69 457.083 279.595 458.388C282.733 458.852 285.93 459.084 289.184 459.084C301.911 459.084 313.767 455.519 323.879 449.317C337.188 441.173 347.387 428.449 352.298 413.349L352.385 413.117C352.879 411.581 353.286 410.045 353.693 408.48C353.693 408.451 353.693 408.451 353.693 408.451C354.884 403.466 355.524 398.278 355.524 392.916C355.524 356.368 325.798 326.748 289.184 326.748C285.931 326.748 282.735 326.979 279.596 327.443Z" fill="#024C67"/>
<path fill-rule="evenodd" clip-rule="evenodd" d="M67.211 370.425C76.742 379.7 82.699 392.655 82.699 407.002C82.699 408.799 82.612 410.567 82.408 412.277C80.025 435.666 61.806 454.331 38.618 457.548C42.628 458.533 46.812 459.084 51.142 459.084C77.585 459.084 99.378 439.028 102.023 413.349C102.197 411.61 102.285 409.842 102.285 408.074C102.285 393.727 96.357 380.772 86.797 371.498C77.586 362.542 65.003 357.064 51.143 357.064C48.731 357.064 46.377 357.209 44.082 357.528C52.915 359.759 60.848 364.28 67.211 370.425Z" fill="#024C67"/>
<path fill-rule="evenodd" clip-rule="evenodd" d="M72.209 408.074C72.209 396.452 62.765 387.061 51.142 387.061C39.519 387.061 30.075 396.452 30.075 408.074C30.075 415.639 34.085 422.276 40.129 425.985C43.325 427.956 47.103 429.086 51.142 429.086C55.181 429.086 58.93 427.956 62.155 425.985C68.17 422.275 72.209 415.638 72.209 408.074Z" fill="#F3F0F3"/>
<path fill-rule="evenodd" clip-rule="evenodd" d="M45.941 387.699C53.874 390.713 59.511 398.365 59.511 407.349C59.511 414.914 55.501 421.551 49.457 425.232C47.684 426.333 45.738 427.174 43.645 427.696C45.97 428.594 48.498 429.087 51.142 429.087C55.181 429.087 58.93 427.957 62.155 425.986C68.17 422.276 72.209 415.639 72.209 408.075C72.209 396.453 62.765 387.062 51.142 387.062C49.341 387.061 47.597 387.293 45.941 387.699Z" fill="#E2DEE2"/>
<path fill-rule="evenodd" clip-rule="evenodd" d="M94.758 285.969H157.553H200.326V253.913H51.985V285.969H94.758Z" fill="#F3F0F3"/>
<path fill-rule="evenodd" clip-rule="evenodd" d="M168.014 253.913H200.327V285.968H168.014V253.913Z" fill="#E2DEE2"/>
<path fill-rule="evenodd" clip-rule="evenodd" d="M465.481 310.111L470.13 325.849C472.542 333.993 468.241 343.702 461.354 349.673L476.435 345.181C487.68 341.877 497.212 330.081 493.87 318.865L489.221 303.127L465.481 310.111Z" fill="#F6A96C"/>
<path fill-rule="evenodd" clip-rule="evenodd" d="M379.701 111.607L395.8 66.7992L418.814 47.0622C427.851 39.3242 428.955 25.8172 421.4 16.6882C421.313 16.6012 421.226 16.4852 421.138 16.3982C413.292 7.26817 399.519 6.22517 390.395 14.0792L362.732 37.7582C359.71 40.3662 357.443 43.7292 356.223 47.5252L338.236 98.1292C334.487 109.548 340.764 121.837 352.213 125.547C363.661 129.287 375.953 123.026 379.701 111.607Z" fill="#EB5569"/>
<path fill-rule="evenodd" clip-rule="evenodd" d="M380.777 56.1921L364.679 101.029C361.25 111.492 350.644 117.636 340.038 115.694C342.653 120.215 346.867 123.809 352.213 125.548C363.662 129.287 375.953 123.026 379.702 111.607L395.8 66.7991L418.814 47.0621C427.851 39.3241 428.955 25.8171 421.4 16.6881L421.138 16.3981C417.738 12.4561 413.263 10.0221 408.498 9.1521C413.612 18.0501 411.869 29.5561 403.791 36.4831L380.777 56.1921Z" fill="#E53950"/>
</svg>
