<svg width="16" height="19" viewBox="0 0 16 19" fill="none" xmlns="http://www.w3.org/2000/svg">
<path d="M7.82637 9.4502C5.85049 9.4502 4.24878 9.69662 4.24878 10.0006C4.24878 10.3046 5.85057 10.6261 7.82637 10.6261C9.80225 10.6261 11.404 10.3046 11.404 10.0006C11.404 9.69662 9.80225 9.4502 7.82637 9.4502Z" fill="#DDDDDD"/>
<path d="M5.9375 9.53271C3.4922 9.76711 3.8487 10.3051 6.1119 10.5408C5.07799 10.2539 4.86498 9.83002 5.9375 9.53271Z" fill="#BFC0C1"/>
<path d="M1.6522 2.83252H0.450332C0.202637 2.83252 0 3.03516 0 3.28285V5.05915C0 5.30685 0.202637 5.50949 0.450332 5.50949H1.61312C1.33504 4.64073 1.34699 3.69811 1.6522 2.83252Z" fill="#BFC0C1"/>
<path d="M0.773574 5.05915V3.28285C0.773574 3.03516 0.976211 2.83252 1.22391 2.83252H0.450332C0.202637 2.83252 0 3.03516 0 3.28285V5.05915C0 5.30685 0.202637 5.50949 0.450332 5.50949H1.22387C0.976211 5.50949 0.773574 5.30685 0.773574 5.05915Z" fill="#989DA0"/>
<path d="M15.2026 2.83252H14.0007C14.3053 3.69632 14.3184 4.63895 14.0398 5.50949H15.2026C15.4503 5.50949 15.6529 5.30685 15.6529 5.05915V3.28285C15.6529 3.03519 15.4503 2.83252 15.2026 2.83252Z" fill="#BFC0C1"/>
<path d="M14.9019 2.83252H14.0007C14.3053 3.69632 14.3184 4.63895 14.0398 5.50949H14.941C15.219 4.64073 15.2071 3.69811 14.9019 2.83252Z" fill="#989DA0"/>
<path d="M14.3146 4.22925C14.3146 1.90317 12.4114 0 10.0854 0H5.56784C3.24336 0 1.33862 1.90157 1.33862 4.22925C1.33862 6.55533 3.2418 8.4585 5.56787 8.4585H10.0854C12.4098 8.45847 14.3146 6.5569 14.3146 4.22925Z" fill="#DDDDDD"/>
<path d="M2.11216 4.22925C2.11216 1.90317 4.0153 0 6.34138 0H5.56784C3.24562 0 1.33862 1.89931 1.33862 4.22925C1.33862 6.55533 3.2418 8.4585 5.56787 8.4585H6.34141C4.0153 8.45847 2.11216 6.55529 2.11216 4.22925Z" fill="#BFC0C1"/>
<path d="M9.89764 1.26465C9.40003 1.26465 6.38401 1.26465 5.75505 1.26465C4.12441 1.26465 2.79028 2.59882 2.79028 4.22942C2.79028 5.86005 4.12445 7.19418 5.75505 7.19418C6.376 7.19418 9.39679 7.19418 9.89764 7.19418C11.5283 7.19418 12.8624 5.86005 12.8624 4.22942C12.8624 2.59882 11.5283 1.26465 9.89764 1.26465Z" fill="#585A60"/>
<path d="M3.57516 4.22942C3.57516 2.59878 4.90933 1.26465 6.53993 1.26465H5.74406C4.11343 1.26465 2.7793 2.59878 2.7793 4.22942C2.7793 5.86005 4.11343 7.19418 5.74406 7.19418H6.53993C4.90929 7.19418 3.57516 5.86002 3.57516 4.22942Z" fill="#414356"/>
<path d="M5.79756 5.22208C6.37787 5.22208 6.8483 4.75165 6.8483 4.17134C6.8483 3.59104 6.37787 3.12061 5.79756 3.12061C5.21726 3.12061 4.74683 3.59104 4.74683 4.17134C4.74683 4.75165 5.21726 5.22208 5.79756 5.22208Z" fill="#6EDCF9"/>
<path d="M9.85518 5.22208C10.4355 5.22208 10.9059 4.75165 10.9059 4.17134C10.9059 3.59104 10.4355 3.12061 9.85518 3.12061C9.27488 3.12061 8.80444 3.59104 8.80444 4.17134C8.80444 4.75165 9.27488 5.22208 9.85518 5.22208Z" fill="#6EDCF9"/>
<path d="M5.52033 4.17134C5.52033 3.72764 5.79545 3.34849 6.18433 3.1944C6.0646 3.14694 5.9342 3.12061 5.79756 3.12061C5.21723 3.12061 4.74683 3.59104 4.74683 4.17134C4.74683 4.75164 5.21727 5.22212 5.79756 5.22212C5.9342 5.22212 6.0646 5.19575 6.18433 5.14832C5.79545 4.99424 5.52033 4.61505 5.52033 4.17134Z" fill="#52C7E2"/>
<path d="M10.2419 3.1944C10.1222 3.14694 9.99181 3.12061 9.85518 3.12061C9.27485 3.12061 8.80444 3.59104 8.80444 4.17134C8.80444 4.91221 9.55281 5.42137 10.242 5.14828C9.35841 4.79823 9.35873 3.54438 10.2419 3.1944Z" fill="#52C7E2"/>
<path d="M11.3728 9.92777C11.3933 9.95159 11.4041 9.97593 11.4041 10.0006C11.4041 10.3046 9.80229 10.551 7.82648 10.551C5.6695 10.551 3.99515 10.259 4.28014 9.92773C3.33278 10.8509 2.74414 12.1405 2.74414 13.5678C2.74414 16.3747 5.01955 18.6501 7.82645 18.6501C10.6333 18.6501 12.9088 16.3747 12.9088 13.5678C12.9088 12.1405 12.3202 10.8509 11.3728 9.92777Z" fill="#DDDDDD"/>
<path d="M4.72836 10.276C4.51523 10.2194 4.13663 10.0946 4.28014 9.92773C3.33278 10.8509 2.74414 12.1405 2.74414 13.5678C2.74414 16.3747 5.01959 18.6501 7.82648 18.6501C7.9566 18.6501 8.08558 18.6452 8.21325 18.6356C4.0731 18.324 2.04877 13.4242 4.72836 10.276Z" fill="#BFC0C1"/>
<path d="M6.24658 11.7734C6.26596 11.9763 6.27215 11.9379 7.50804 13.2557C7.68318 13.4309 7.96978 13.4309 8.14491 13.2557C9.38113 11.9376 9.38699 11.9764 9.40641 11.7734C8.38692 11.8645 7.29215 11.8669 6.24658 11.7734Z" fill="#F7AC16"/>
<path d="M7.1192 11.8287C6.82145 11.8172 6.5299 11.7988 6.24658 11.7734C6.26596 11.9763 6.27215 11.9379 7.50804 13.2557C7.68318 13.4309 7.96978 13.4309 8.14491 13.2557L8.25823 13.1349C7.13756 11.9399 7.15479 11.9889 7.1192 11.8287Z" fill="#EF9614"/>
<path d="M12.3487 11.247C12.0957 10.7553 11.7652 10.3101 11.3729 9.92777C11.3934 9.95159 11.4042 9.97593 11.4042 10.0006C11.4042 10.3046 9.80237 10.551 7.82656 10.551C5.66957 10.551 3.99522 10.259 4.28022 9.92773C3.88791 10.31 3.55738 10.7553 3.30444 11.247C5.74523 12.1369 9.90669 12.1374 12.3487 11.247Z" fill="#989DA0"/>
<path d="M3.30444 11.247C3.51229 11.3228 3.73671 11.3933 3.97559 11.4579C4.17192 11.0286 4.4261 10.6312 4.72844 10.276C4.51596 10.2196 4.13714 10.0941 4.28022 9.92773C3.898 10.3002 3.56234 10.7457 3.30444 11.247Z" fill="#838384"/>
</svg>
