<svg width="19" height="9" viewBox="0 0 19 9" fill="none" xmlns="http://www.w3.org/2000/svg">
<path d="M4.9236 0.135179C4.64807 0.0571736 4.13856 0.0155802 3.37947 0.00519918C3.22871 0 3.0727 0 2.90116 0H0V8.87326H2.16284V5.69828C2.43841 5.69312 2.89074 5.7087 3.37947 5.69312C3.84219 5.6827 4.33613 5.65151 4.73645 5.57352C5.99467 5.29798 6.67056 4.20613 6.75893 3.06233C6.76935 2.90112 6.76935 2.73995 6.76413 2.58399C6.69134 1.48696 6.07784 0.441913 4.9236 0.135179ZM4.00858 3.655C3.8734 3.70701 3.63942 3.73821 3.37947 3.75379C2.94792 3.77978 2.43322 3.7694 2.16284 3.7642V1.92888C2.41763 1.92371 2.95833 1.92371 3.37947 1.93929C3.40546 1.93929 3.43144 1.94449 3.45225 1.94449C3.51984 1.94449 3.58223 1.94969 3.63942 1.95491C3.71743 1.96529 3.78502 1.97049 3.83699 1.9809C4.72607 2.14206 4.77804 3.34827 4.00858 3.655Z" fill="#FF7F40"/>
<path d="M6.76406 2.58366C6.76926 2.73963 6.76926 2.90081 6.75886 3.062C6.67049 4.2058 5.9946 5.29765 4.73638 5.57318C4.33606 5.65119 3.84214 5.68238 3.37939 5.69278V3.75347C3.63935 3.73789 3.87332 3.7067 4.00851 3.65469C4.77797 3.34795 4.726 2.14174 3.83692 1.98057C3.78495 1.97015 3.71736 1.96496 3.63935 1.95457C3.58216 1.94938 3.51979 1.94416 3.45218 1.94416C3.43137 1.94416 3.40537 1.93896 3.37939 1.93896V0.00488281C4.13849 0.0152638 4.64799 0.0568573 4.92353 0.134862C6.07775 0.441596 6.69125 1.48665 6.76406 2.58366Z" fill="#F25A3C"/>
<path d="M9.83132 8.87326V1.92709H12.3492V0H5.07031V1.92709H7.59399V8.87326H9.83132Z" fill="#C68CFF"/>
<path d="M8.70972 8.87326H9.8313V1.92709H12.3491V0H8.70972V8.87326Z" fill="#AA80FF"/>
<path d="M11.4084 0V8.87326H13.4538L16.6142 4.04115V8.87326H18.6699V0H16.6603L13.4505 4.95586V0H11.4084Z" fill="#FFBE40"/>
<path d="M11.4084 0V8.87326H13.4538L15.0305 6.46258V2.5164L13.4505 4.95586V0H11.4084Z" fill="#FF9F40"/>
</svg>
