<svg width="512" height="512" viewBox="0 0 512 512" fill="none" xmlns="http://www.w3.org/2000/svg">
<g clip-path="url(#clip0_420_287)">
<path d="M407.508 142.628C403.442 142.628 400.035 139.451 399.801 135.34L397.788 99.9161C397.306 91.4301 393.311 83.4101 386.828 77.9131L349.988 46.6811C346.732 43.9211 346.331 39.0461 349.091 35.7911C351.85 32.5371 356.727 32.1341 359.98 34.8941L396.82 66.1261C406.518 74.3481 412.495 86.3441 413.216 99.0381L415.229 134.462C415.47 138.722 412.213 142.372 407.953 142.614C407.805 142.624 407.656 142.628 407.508 142.628Z" fill="#EDEBED"/>
<path d="M297.72 128.339H362.798C371.332 128.339 378.251 135.257 378.251 143.792C378.251 152.326 371.333 159.245 362.798 159.245H297.72C289.186 159.245 282.267 152.327 282.267 143.792C282.268 135.257 289.186 128.339 297.72 128.339Z" fill="#655E67"/>
<path d="M81.6259 512C114.46 512 141.078 485.382 141.078 452.548C141.078 419.713 114.46 393.096 81.6259 393.096C48.7915 393.096 22.174 419.713 22.174 452.548C22.174 485.382 48.7915 512 81.6259 512Z" fill="#655E67"/>
<path d="M81.626 393.095C76.279 393.095 71.102 393.812 66.173 395.136C91.513 401.94 110.173 425.06 110.173 452.548C110.173 480.036 91.513 503.156 66.173 509.96C71.102 511.283 76.279 512 81.626 512C114.461 512 141.078 485.382 141.078 452.548C141.078 419.714 114.46 393.095 81.626 393.095Z" fill="#544F56"/>
<path d="M81.626 481.095C65.885 481.095 53.079 468.289 53.079 452.548C53.079 436.807 65.885 424.001 81.626 424.001C97.367 424.001 110.173 436.807 110.173 452.548C110.173 468.288 97.366 481.095 81.626 481.095Z" fill="#F7F6F7"/>
<path d="M42.835 305.742C19.031 335.957 16.472 370.715 15.716 384.391C14.682 403.112 16.913 418.556 18.516 426.951C19.072 429.864 21.62 431.963 24.586 431.963H374.212L452.224 366.968C456.282 344.591 459.896 309.363 452.501 267.321C445.549 227.801 431.542 197.452 420.742 178.139C407.296 177.283 393.851 176.428 380.405 175.572C385.777 187.42 392.838 206.89 393.865 231.672C394.243 240.786 395.086 261.12 387.634 280.44C372.696 319.166 321.424 361.613 281.779 343.754C255.929 332.11 240.546 297.315 243.467 258.869H136.769C126.761 259.56 75.654 264.083 42.835 305.742Z" fill="#9DC7FB"/>
<path d="M250.875 343.754C262.296 348.899 274.681 349.031 286.885 345.697C285.165 345.151 283.462 344.511 281.78 343.754C255.93 332.11 240.547 297.315 243.468 258.869H212.563C209.642 297.316 225.025 332.11 250.875 343.754Z" fill="#80B5FB"/>
<path d="M452.502 267.321C445.55 227.801 431.543 197.452 420.743 178.139C407.297 177.283 393.852 176.428 380.406 175.572C380.7 176.221 381.001 176.902 381.304 177.596C384.149 177.777 386.993 177.958 389.838 178.139C400.638 197.452 414.645 227.801 421.597 267.321C428.992 309.363 425.378 344.591 421.32 366.968C395.316 388.633 369.312 410.298 343.308 431.963H374.213L452.225 366.968C456.284 344.591 459.898 309.363 452.502 267.321Z" fill="#80B5FB"/>
<path d="M437.913 181.908H390.525C369.474 181.908 352.408 164.843 352.408 143.791C352.408 122.74 369.473 105.674 390.525 105.674H437.913C441.896 105.674 445.124 108.903 445.124 112.885V174.696C445.124 178.679 441.896 181.908 437.913 181.908Z" fill="#9DC7FB"/>
<path d="M445.125 174.697V112.886C445.125 108.903 441.896 105.675 437.914 105.675H414.22V181.908H437.914C441.896 181.908 445.125 178.68 445.125 174.697Z" fill="#655E67"/>
<path d="M446.583 512C479.417 512 506.035 485.382 506.035 452.548C506.035 419.713 479.417 393.096 446.583 393.096C413.749 393.096 387.131 419.713 387.131 452.548C387.131 485.382 413.749 512 446.583 512Z" fill="#655E67"/>
<path d="M446.583 393.095C441.236 393.095 436.059 393.812 431.13 395.136C456.47 401.94 475.13 425.06 475.13 452.548C475.13 480.036 456.47 503.156 431.13 509.96C436.059 511.283 441.236 512 446.583 512C479.418 512 506.035 485.382 506.035 452.548C506.035 419.714 479.418 393.095 446.583 393.095Z" fill="#544F56"/>
<path d="M446.583 481.095C430.843 481.095 418.037 468.289 418.037 452.548C418.037 436.807 430.843 424.001 446.583 424.001C462.324 424.001 475.13 436.807 475.13 452.548C475.13 468.288 462.325 481.095 446.583 481.095Z" fill="#F7F6F7"/>
<path d="M508.026 404.297L368.632 461.034C365.37 462.362 361.65 460.794 360.322 457.532C342.768 414.408 369.929 368.145 412.405 353.747C451.359 340.543 495.627 356.919 511.529 395.987C512.855 399.249 511.288 402.969 508.026 404.297Z" fill="#CBE0FD"/>
<path d="M511.528 395.987C495.626 356.919 451.359 340.543 412.404 353.747C402.996 356.936 394.341 361.691 386.755 367.627C424.357 357.527 465.432 374.119 480.622 411.44C481.145 412.725 481.213 414.08 480.91 415.334L508.025 404.298C511.288 402.969 512.855 399.249 511.528 395.987Z" fill="#BDD8FC"/>
<path d="M156.875 431.963H6.376C2.854 431.963 1.76061e-08 429.108 1.76061e-08 425.587C-0.000999982 379.027 42.597 346.417 87.366 349.095C128.424 351.551 163.252 383.407 163.252 425.587C163.252 429.108 160.397 431.963 156.875 431.963Z" fill="#CBE0FD"/>
<path d="M87.366 349.095C80.365 348.676 73.417 349.121 66.676 350.347C103.131 357.006 132.346 386.959 132.346 425.588C132.346 429.109 129.491 431.964 125.97 431.964H6.37598H156.875C160.397 431.964 163.251 429.109 163.251 425.588C163.252 383.407 128.424 351.55 87.366 349.095Z" fill="#BDD8FC"/>
<path d="M248.533 258.87H112.214C97.394 258.87 85.379 246.856 85.379 232.035C85.379 217.215 97.393 205.2 112.214 205.2H248.533C263.353 205.2 275.368 217.214 275.368 232.035C275.368 246.855 263.353 258.87 248.533 258.87Z" fill="#655E67"/>
<path d="M248.533 205.2H217.628C232.448 205.2 244.463 217.215 244.463 232.035C244.463 246.855 232.449 258.87 217.628 258.87H248.533C263.353 258.87 275.368 246.856 275.368 232.035C275.368 217.215 263.353 205.2 248.533 205.2Z" fill="#544F56"/>
<path d="M354.984 62.842C372.337 62.842 386.405 48.7743 386.405 31.421C386.405 14.0677 372.337 0 354.984 0C337.631 0 323.563 14.0677 323.563 31.421C323.563 48.7743 337.631 62.842 354.984 62.842Z" fill="#CBE0FD"/>
<path d="M354.984 0C349.365 0 344.095 1.482 339.531 4.066C349.062 9.462 355.499 19.686 355.499 31.421C355.499 43.156 349.062 53.38 339.531 58.776C344.095 61.36 349.365 62.842 354.984 62.842C372.337 62.842 386.405 48.775 386.405 31.421C386.405 14.067 372.337 0 354.984 0Z" fill="#BDD8FC"/>
</g>
<defs>
<clipPath id="clip0_420_287">
<rect width="512" height="512" fill="white"/>
</clipPath>
</defs>
</svg>
