<svg width="512" height="390" viewBox="0 0 512 390" fill="none" xmlns="http://www.w3.org/2000/svg">
<path d="M239.32 151.95V185.57C239.32 189.71 235.97 193.06 231.84 193.07L206.86 193.14L25.7001 193.64H25.6701C23.3501 193.64 21.1601 192.57 19.7401 190.73C18.3201 188.89 17.8301 186.49 18.4201 184.24C37.1601 112.76 33.1201 54.87 33.0801 54.29C32.9201 52.21 33.6401 50.16 35.0601 48.63C36.4801 47.1 38.4701 46.23 40.5501 46.23H69.1101C70.9901 46.23 72.8101 46.94 74.2001 48.22C75.6901 49.61 109.42 81.45 111.59 140.55C111.6 140.61 111.6 140.67 111.6 140.73C118.48 140.61 125.21 140.54 131.68 140.54C160.17 140.54 187.78 141.73 206.86 142.8C222.33 143.67 232.21 144.46 232.42 144.48C236.32 144.79 239.32 148.05 239.32 151.95Z" fill="#C6856B"/>
<path d="M239.32 151.95V185.57C239.32 189.71 235.97 193.06 231.84 193.07L206.86 193.14V142.8C222.33 143.67 232.21 144.46 232.42 144.48C236.32 144.79 239.32 148.05 239.32 151.95Z" fill="#B55C4D"/>
<path d="M383.761 286.968V350.308C383.761 354.448 380.401 357.808 376.261 357.808H346.261C342.121 357.808 338.761 354.448 338.761 350.308V287.588C338.761 283.508 342.021 280.178 346.111 280.088L361.261 279.778L376.111 279.468C378.131 279.438 380.071 280.198 381.511 281.608C382.951 283.018 383.761 284.958 383.761 286.968Z" fill="#EAF3F9"/>
<path d="M383.761 286.968V350.308C383.761 354.448 380.401 357.808 376.261 357.808H361.261V279.778L376.111 279.468C378.131 279.438 380.071 280.198 381.511 281.608C382.951 283.018 383.761 284.958 383.761 286.968Z" fill="#D2E8F7"/>
<path d="M307.332 122.72C284.315 118.956 281.29 99.1256 281.158 98.1756C280.637 94.0876 276.898 91.1846 272.817 91.6776C268.705 92.1756 265.775 95.9126 266.273 100.026C267.605 111.028 277.395 133.024 304.91 137.524C305.32 137.591 305.727 137.623 306.13 137.623C309.739 137.623 312.921 135.011 313.523 131.332C314.191 127.244 311.42 123.389 307.332 122.72Z" fill="#5D687C"/>
<path d="M483.01 176.29V240.78C483.01 244.54 480.22 247.73 476.48 248.21C475.5 248.36 450.63 252.52 437.15 290.26C436.14 293.06 433.58 295.01 430.6 295.21C430.32 295.23 420.85 295.87 404.39 296.54C386.97 297.22 361.72 297.93 331.2 297.93C301.31 297.93 266.37 297.26 228.78 295.22L228.39 295.19L40.7599 275.08C39.0299 274.9 37.4199 274.12 36.2099 272.88C16.15 252.48 1.62995 226.57 1.05995 225.47C0.489951 224.4 0.199951 223.21 0.199951 221.99V186.29C0.199951 182.21 3.45995 178.88 7.53995 178.8C8.86995 178.77 141.63 176.04 270.48 178.72C277.58 170.6 300.77 141.11 305.34 98.3597C305.52 96.3697 305.68 94.4097 305.8 92.4897L313.22 88.4897L320.84 92.4897C330.9 93.8497 350.22 97.1597 373.36 104.63C404.33 114.63 448.17 134.31 481.11 171.31C482.34 172.68 483.01 174.46 483.01 176.29Z" fill="#99DBFF"/>
<path d="M245.91 321.38C245.91 358.74 215.48 389.15 178.08 389.15H67.83C30.43 389.15 0 358.74 0 321.38C0 284.01 30.43 253.61 67.83 253.61H178.08C215.48 253.61 245.91 284.01 245.91 321.38Z" fill="#5D687C"/>
<path d="M245.91 321.38C245.91 358.74 215.48 389.15 178.08 389.15H153.08C190.48 389.15 220.91 358.74 220.91 321.38C220.91 284.01 190.48 253.61 153.08 253.61H178.08C215.48 253.61 245.91 284.01 245.91 321.38Z" fill="#3C4756"/>
<path d="M179.308 348.898C194.524 348.898 206.858 336.576 206.858 321.376C206.858 306.176 194.524 293.854 179.308 293.854C164.093 293.854 151.758 306.176 151.758 321.376C151.758 336.576 164.093 348.898 179.308 348.898Z" fill="#9DA8BA"/>
<path d="M124.207 348.898C139.422 348.898 151.757 336.576 151.757 321.376C151.757 306.176 139.422 293.854 124.207 293.854C108.992 293.854 96.657 306.176 96.657 321.376C96.657 336.576 108.992 348.898 124.207 348.898Z" fill="#7D8BA0"/>
<path d="M69.106 348.898C84.3215 348.898 96.656 336.576 96.656 321.376C96.656 306.176 84.3215 293.854 69.106 293.854C53.8906 293.854 41.556 306.176 41.556 321.376C41.556 336.576 53.8906 348.898 69.106 348.898Z" fill="#9DA8BA"/>
<path d="M320.721 214.015H391.751C395.894 214.015 399.251 210.657 399.251 206.515C399.251 202.373 395.894 199.015 391.751 199.015H320.721C316.578 199.015 313.221 202.373 313.221 206.515C313.221 210.657 316.578 214.015 320.721 214.015Z" fill="#60BCF4"/>
<path d="M391.751 234.015H320.721C316.578 234.015 313.221 237.373 313.221 241.515C313.221 245.657 316.578 249.015 320.721 249.015H391.751C395.894 249.015 399.251 245.657 399.251 241.515C399.251 237.373 395.894 234.015 391.751 234.015Z" fill="#60BCF4"/>
<path d="M512 297.776C512 348.156 470.99 389.146 420.59 389.146H288.92C276.51 389.146 266.41 379.056 266.41 366.646C266.41 354.236 276.51 344.146 288.92 344.146H420.59C445.77 344.146 466.34 323.986 466.97 298.976C466.99 298.576 466.99 298.176 466.99 297.776C466.99 285.366 477.08 275.276 489.49 275.276C501.9 275.276 512 285.366 512 297.776Z" fill="#5D687C"/>
<path d="M512 297.776C512 348.156 470.99 389.146 420.59 389.146H375.58C425.58 389.146 466.33 348.806 466.97 298.976C466.99 298.576 466.99 298.176 466.99 297.776C466.99 285.366 477.08 275.276 489.49 275.276C501.9 275.276 512 285.366 512 297.776Z" fill="#3C4756"/>
<path d="M75.465 216.117C75.469 220.255 78.826 223.613 82.964 223.617C87.102 223.621 90.453 220.269 90.449 216.131C90.445 211.993 87.088 208.635 82.949 208.632C78.813 208.627 75.461 211.979 75.465 216.117Z" fill="#60BCF4"/>
<path d="M116.505 216.117C116.509 220.255 119.866 223.613 124.004 223.617C128.142 223.621 131.493 220.269 131.489 216.131C131.485 211.993 128.128 208.635 123.989 208.632C119.853 208.627 116.502 211.979 116.505 216.117Z" fill="#60BCF4"/>
<path d="M157.545 216.117C157.549 220.255 160.906 223.613 165.044 223.617C169.182 223.621 172.533 220.269 172.529 216.131C172.525 211.993 169.168 208.635 165.029 208.632C160.893 208.627 157.542 211.979 157.545 216.117Z" fill="#60BCF4"/>
<path d="M320.84 92.4898H305.8C309.25 39.9598 291.61 12.8098 291.43 12.5298C289.14 9.08983 290.05 4.43983 293.48 2.12983C296.9 -0.170166 301.53 0.709836 303.86 4.11984C304.73 5.40984 324.39 35.0698 320.84 92.4898Z" fill="#D2E8F7"/>
<path d="M483.01 176.29V240.78C483.01 244.54 480.22 247.73 476.48 248.21C475.5 248.36 450.63 252.52 437.15 290.26C436.14 293.06 433.58 295.01 430.6 295.21C430.32 295.23 420.85 295.87 404.39 296.54C412.2 246.52 452.09 231.1 452.09 231.1V176.1C407.57 130.71 320.84 92.4897 320.84 92.4897C330.9 93.8497 350.22 97.1597 373.36 104.63C404.33 114.63 448.17 134.31 481.11 171.31C482.34 172.68 483.01 174.46 483.01 176.29Z" fill="#60BCF4"/>
<path d="M111.59 140.55H77.11C77.11 90.69 51.78 46.23 51.78 46.23H69.11C70.99 46.23 72.81 46.94 74.2 48.22C75.69 49.61 109.42 81.45 111.59 140.55Z" fill="#B55C4D"/>
</svg>
