<svg width="19" height="19" viewBox="0 0 19 19" fill="none" xmlns="http://www.w3.org/2000/svg">
<path d="M9.325 18.65C14.4751 18.65 18.65 14.4751 18.65 9.325C18.65 4.17494 14.4751 0 9.325 0C4.17494 0 0 4.17494 0 9.325C0 14.4751 4.17494 18.65 9.325 18.65Z" fill="#E1EFFB"/>
<path d="M9.32495 0C9.04396 0 8.76611 0.0131497 8.49146 0.0374821C13.2509 0.459183 16.9829 4.45593 16.9829 9.325C16.9829 14.1941 13.2509 18.1908 8.49146 18.6125C8.76611 18.6369 9.04396 18.65 9.32495 18.65C14.475 18.65 18.65 14.4751 18.65 9.325C18.65 4.17494 14.475 0 9.32495 0Z" fill="#CCDFED"/>
<path d="M12.8641 8.37512L15.7006 7.27011L18.6485 9.44692C18.649 9.40627 18.65 9.36576 18.65 9.325C18.65 7.07269 17.8515 5.00691 16.5221 3.39528L15.5683 6.71721L12.7426 7.81799L9.60668 5.63933V2.74945L12.6725 0.61953C11.6334 0.21972 10.5049 0 9.325 0C8.14506 0 7.01663 0.21972 5.97754 0.61953L9.04336 2.74945V5.63933L5.91067 7.81573L3.08064 6.71327L2.12789 3.39528C0.798526 5.00691 0 7.07269 0 9.325C0 9.36576 0.00101992 9.40627 0.00152988 9.44692L2.95253 7.26782L5.78456 8.37105L6.94206 11.7775L5.05269 14.4332L1.45547 14.3292C2.65606 16.2133 4.51468 17.6369 6.70759 18.277L5.51217 14.7589L7.38325 12.1289H11.2661L13.1377 14.7595L11.9424 18.277C14.1354 17.6369 15.9939 16.2133 17.1946 14.3292L13.5968 14.4331L11.7078 11.7779L12.8641 8.37512Z" fill="#2C5871"/>
<path d="M15.4954 14.3782C14.672 15.6523 13.5469 16.7129 12.2205 17.4584L11.9424 18.2769C12.5559 18.0978 13.1432 17.8573 13.6973 17.5626C13.7015 17.5603 13.7058 17.5582 13.71 17.5559C13.7659 17.5261 13.8215 17.4955 13.8767 17.4646C13.8841 17.4605 13.8915 17.4564 13.8988 17.4523C13.952 17.4223 14.0048 17.3918 14.0573 17.3608C14.0663 17.3554 14.0754 17.35 14.0845 17.3447C14.1358 17.3141 14.1868 17.2831 14.2375 17.2517C14.2472 17.2456 14.257 17.2395 14.2666 17.2334C14.3168 17.2021 14.3667 17.1702 14.4162 17.1379C14.4258 17.1316 14.4354 17.1252 14.4451 17.1189C14.4947 17.0862 14.5441 17.0531 14.5931 17.0196C14.6017 17.0137 14.6102 17.0077 14.6187 17.0018C14.6688 16.9672 14.7185 16.9324 14.7678 16.8969C14.774 16.8924 14.7801 16.8878 14.7863 16.8834C14.8378 16.846 14.8891 16.8084 14.9399 16.77C14.9412 16.769 14.9425 16.768 14.9438 16.767C15.2694 16.5208 15.5783 16.2536 15.8686 15.9676C15.8757 15.9606 15.8829 15.9537 15.89 15.9467C15.9295 15.9076 15.9684 15.8679 16.0073 15.828C16.0186 15.8164 16.03 15.8049 16.0412 15.7932C16.0775 15.7555 16.1133 15.7174 16.149 15.6791C16.1623 15.6649 16.1755 15.6508 16.1887 15.6365C16.2228 15.5994 16.2566 15.5619 16.2901 15.5242C16.3042 15.5084 16.3184 15.4925 16.3324 15.4766C16.3649 15.4395 16.3971 15.4022 16.429 15.3647C16.4435 15.3477 16.4579 15.3307 16.4722 15.3136C16.5035 15.2763 16.5346 15.2387 16.5653 15.2009C16.5796 15.1833 16.5938 15.1657 16.608 15.148C16.6383 15.11 16.6685 15.0718 16.6983 15.0334C16.7121 15.0157 16.7257 14.9978 16.7393 14.98C16.7691 14.9409 16.7988 14.9018 16.828 14.8622C16.8407 14.845 16.8533 14.8277 16.8659 14.8103C16.8955 14.7697 16.925 14.7289 16.954 14.6878C16.965 14.6721 16.9759 14.6562 16.9868 14.6404C17.0169 14.5971 17.0469 14.5538 17.0762 14.51C17.0842 14.4982 17.0918 14.4862 17.0997 14.4743C17.1317 14.4262 17.1635 14.3779 17.1945 14.3291C17.1945 14.3291 17.1945 14.3291 17.1945 14.3291L15.4954 14.3782Z" fill="#204E63"/>
<path d="M8.49146 0.0374823C9.75438 0.149383 10.945 0.513023 12.0126 1.07788L12.6724 0.619496C12.6723 0.619459 12.6721 0.619386 12.672 0.61935C12.2279 0.448476 11.7673 0.310822 11.2935 0.208866C11.2791 0.20577 11.2647 0.202492 11.2502 0.199468C11.1993 0.188759 11.1481 0.178742 11.0969 0.168871C11.0743 0.164536 11.0519 0.160092 11.0293 0.155939C10.9827 0.147306 10.936 0.139256 10.8892 0.131315C10.8615 0.126653 10.8339 0.12199 10.8061 0.117546C10.7625 0.110589 10.7189 0.103996 10.6751 0.0976579C10.6436 0.0931047 10.612 0.0886607 10.5804 0.0843989C10.5394 0.0788621 10.4982 0.0735804 10.457 0.0685536C10.4221 0.0643282 10.3871 0.0603942 10.352 0.0565695C10.3132 0.0523076 10.2744 0.0481187 10.2355 0.0443304C10.1971 0.0406149 10.1587 0.0373366 10.1202 0.0340947C10.084 0.0309985 10.0477 0.0278658 10.0113 0.0252067C9.96893 0.0221105 9.92635 0.0196336 9.88376 0.0171202C9.85073 0.0151532 9.81772 0.0129676 9.78458 0.0113649C9.73536 0.00896078 9.68597 0.00735804 9.63658 0.00571887C9.60966 0.00484465 9.58281 0.00356974 9.55582 0.00291407C9.47907 0.00105635 9.40214 0 9.32495 0C9.25461 0 9.1845 0.000874222 9.11452 0.00244054C8.90504 0.00728519 8.69733 0.0192693 8.49146 0.0374823Z" fill="#204E63"/>
<path d="M18.6471 9.09797C18.6465 9.07338 18.6454 9.04891 18.6446 9.02439C18.643 8.97354 18.6413 8.92276 18.6388 8.87213C18.6375 8.84317 18.6357 8.81429 18.634 8.7854C18.6314 8.73921 18.6286 8.69306 18.6252 8.64705C18.6231 8.61689 18.6207 8.58677 18.6182 8.55668C18.6145 8.51173 18.6106 8.46686 18.6063 8.42205C18.6034 8.39211 18.6005 8.36217 18.5973 8.3323C18.5925 8.28669 18.5872 8.2412 18.5817 8.19578C18.5783 8.16744 18.575 8.13902 18.5713 8.11076C18.5649 8.0614 18.5579 8.01222 18.5507 7.96309C18.5472 7.93919 18.544 7.91522 18.5403 7.89144C18.5291 7.81888 18.5172 7.74653 18.5044 7.67456C18.504 7.67244 18.5036 7.67037 18.5032 7.66825C18.4906 7.59828 18.4772 7.52863 18.4631 7.45921C18.4582 7.43516 18.4529 7.41134 18.4478 7.38737C18.4378 7.33991 18.4276 7.29245 18.4169 7.24524C18.4105 7.21745 18.4039 7.1898 18.3973 7.16208C18.387 7.11877 18.3765 7.07553 18.3656 7.03248C18.3584 7.00363 18.3509 6.97489 18.3433 6.94615C18.3323 6.90422 18.3209 6.8624 18.3094 6.8207C18.3014 6.79203 18.2934 6.7634 18.2851 6.73488C18.2729 6.69251 18.2603 6.65037 18.2475 6.60826C18.2392 6.58112 18.2311 6.55391 18.2226 6.52685C18.2082 6.48121 18.1933 6.43582 18.1783 6.39047C18.1707 6.36745 18.1634 6.34432 18.1556 6.32141C18.1326 6.25384 18.109 6.18652 18.0845 6.11964C18.0825 6.11418 18.0804 6.10879 18.0784 6.10332C18.0556 6.04158 18.0323 5.98017 18.0083 5.91904C17.9992 5.89573 17.9896 5.87267 17.9803 5.84947C17.9629 5.80631 17.9455 5.76318 17.9275 5.72034C17.9164 5.6939 17.905 5.66763 17.8937 5.64133C17.8767 5.60192 17.8596 5.56258 17.8421 5.52346C17.83 5.49625 17.8176 5.46915 17.8052 5.44208C17.7877 5.40391 17.7699 5.36588 17.7519 5.328C17.7392 5.30112 17.7263 5.27423 17.7133 5.2475C17.6946 5.20907 17.6755 5.17089 17.6563 5.13275C17.6435 5.10726 17.6307 5.08172 17.6176 5.05637C17.5964 5.01528 17.5748 4.97452 17.553 4.9338C17.5413 4.91194 17.5298 4.88994 17.518 4.86819C17.4847 4.80711 17.4508 4.74635 17.4162 4.6861C17.4115 4.67801 17.4067 4.67007 17.402 4.66202C17.371 4.60848 17.3396 4.55522 17.3076 4.50233C17.2944 4.48044 17.2807 4.45884 17.2673 4.43706C17.2436 4.3987 17.2199 4.36038 17.1957 4.32239C17.1801 4.29791 17.1642 4.27361 17.1484 4.24924C17.1257 4.21428 17.1028 4.17934 17.0796 4.1447C17.0629 4.11971 17.046 4.09487 17.029 4.07006C17.0059 4.03619 16.9825 4.00246 16.9589 3.96887C16.9416 3.94436 16.9244 3.91988 16.9069 3.89555C16.8826 3.86156 16.8579 3.82787 16.833 3.79421C16.8159 3.77097 16.7989 3.7477 16.7815 3.72464C16.7543 3.68843 16.7265 3.65255 16.6988 3.61674C16.6834 3.59693 16.6683 3.57689 16.6527 3.55722C16.6101 3.5031 16.5669 3.4494 16.5231 3.39626C16.5228 3.39586 16.5225 3.39542 16.5221 3.39502L16.0107 5.17596C16.4687 6.09589 16.7791 7.10201 16.911 8.16372L18.6485 9.44671C18.649 9.40606 18.65 9.36556 18.65 9.3248C18.6499 9.24899 18.6489 9.17341 18.6471 9.09797Z" fill="#204E63"/>
</svg>
