<svg width="19" height="16" viewBox="0 0 19 16" fill="none" xmlns="http://www.w3.org/2000/svg">
<path d="M1.94849 13.4458V14.6433C1.94849 15.124 2.33817 15.5136 2.81881 15.5136H4.17988C4.66057 15.5136 5.05021 15.1239 5.05021 14.6433V13.4458H1.94849Z" fill="#64798A"/>
<path d="M11.303 0H4.32256C2.68195 0 1.35205 1.32995 1.35205 2.97051V13.963H13.8384V2.53536C13.8383 1.13513 12.7032 0 11.303 0Z" fill="#44C4A1"/>
<path d="M10.8953 1.31787H4.73145V2.55065H10.8953V1.31787Z" fill="#D5D6DB"/>
<path d="M4.33416 12.4256C4.99306 12.4256 5.5272 11.8915 5.5272 11.2326C5.5272 10.5737 4.99306 10.0396 4.33416 10.0396C3.67526 10.0396 3.14111 10.5737 3.14111 11.2326C3.14111 11.8915 3.67526 12.4256 4.33416 12.4256Z" fill="#FCD462"/>
<path d="M0.761531 4.91362C0.340989 4.91362 0 5.25461 0 5.67515V7.65141C0 8.07199 0.340989 8.41294 0.761531 8.41294H1.47131V4.91357H0.761531V4.91362Z" fill="#3EA69B"/>
<path d="M14.5482 4.91357H13.8384V8.41294H14.5482C14.9687 8.41294 15.3097 8.07199 15.3097 7.65141V5.67511C15.3097 5.25456 14.9688 4.91357 14.5482 4.91357Z" fill="#3EA69B"/>
<path d="M12.3265 4.18066H3.14136V9.15125H12.3265V4.18066Z" fill="#F6C358"/>
<path d="M3.14136 9.15134V4.18066H12.3272L3.14136 9.15134Z" fill="#FCD462"/>
<path d="M9.62329 14.48V15.095C9.62329 15.546 9.98889 15.9115 10.4399 15.9115H11.0337C11.4846 15.9115 11.8502 15.5459 11.8502 15.095V14.48H9.62329Z" fill="#64798A"/>
<path d="M15.0579 14.48V15.095C15.0579 15.546 15.4235 15.9115 15.8744 15.9115H16.4682C16.9192 15.9115 17.2848 15.5459 17.2848 15.095V14.48H15.0579Z" fill="#64798A"/>
<path d="M18.347 11.3184H17.4373V12.1535H18.347C18.5144 12.1535 18.6501 12.0178 18.6501 11.8504V11.6214C18.6501 11.454 18.5144 11.3184 18.347 11.3184Z" fill="#D15241"/>
<path d="M8.71345 11.3184C8.54608 11.3184 8.4104 11.4541 8.4104 11.6215V11.8504C8.4104 12.0178 8.54608 12.1535 8.71345 12.1535H9.62325V11.3184H8.71345V11.3184Z" fill="#D15241"/>
<path d="M15.2139 8.59473H11.8264C10.5217 8.59473 9.46411 9.6524 9.46411 10.957V14.7186H17.5762V10.957C17.5762 9.65236 16.5186 8.59473 15.2139 8.59473Z" fill="#E56353"/>
<path d="M10.3655 11.6566H16.6882C16.6882 11.6566 16.9462 10.2931 15.7237 9.26886C15.6298 9.19018 15.508 9.15137 15.3855 9.15137H11.731C11.5872 9.15137 11.4505 9.20824 11.3482 9.30925C10.9774 9.67533 10.1476 10.6295 10.3655 11.6566Z" fill="#2D93BA"/>
<path d="M10.8955 1.31787H7.73413V2.55065H10.8955V1.31787Z" fill="#E1E6E9"/>
<path d="M10.3655 11.6566C10.1476 10.6294 10.9774 9.67533 11.3482 9.30925C11.4506 9.20824 11.5873 9.15137 11.731 9.15137H15.3856C15.5081 9.15137 15.6298 9.19018 15.7238 9.26886L10.3655 11.6566Z" fill="#27A2DB"/>
<path d="M11.2908 13.7002C11.673 13.7002 11.9829 13.3903 11.9829 13.008C11.9829 12.6258 11.673 12.3159 11.2908 12.3159C10.9085 12.3159 10.5986 12.6258 10.5986 13.008C10.5986 13.3903 10.9085 13.7002 11.2908 13.7002Z" fill="#FCD462"/>
<path d="M15.4795 13.7002C15.8617 13.7002 16.1716 13.3903 16.1716 13.008C16.1716 12.6258 15.8617 12.3159 15.4795 12.3159C15.0972 12.3159 14.7874 12.6258 14.7874 13.008C14.7874 13.3903 15.0972 13.7002 15.4795 13.7002Z" fill="#FCD462"/>
</svg>
