<svg width="512" height="310" viewBox="0 0 512 310" fill="none" xmlns="http://www.w3.org/2000/svg">
<path d="M251.713 33.0955C249.372 33.0965 247.059 32.0365 245.54 30.0235C242.969 26.6167 243.647 21.7717 247.053 19.2014L269.769 2.06026C271.692 0.610798 274.181 0.138975 276.502 0.786959L326.569 14.7696C330.679 15.9172 333.08 20.1801 331.933 24.2895C330.785 28.3989 326.526 30.8054 322.413 29.6526L276.027 16.6981L256.362 31.5368C254.968 32.5876 253.334 33.0955 251.713 33.0955Z" fill="#C8EFFE"/>
<path d="M91.4234 134.359L83.7486 124.269C78.0754 116.809 78.3484 106.409 84.4068 99.2589L118.926 58.1979C122.773 53.6579 129.616 53.32 133.952 57.3954C145.989 68.7099 172.084 87.0481 209.065 79.1879L293.178 62.0364L292.715 91.5737L192.793 117.467L91.4234 134.359Z" fill="#D78878"/>
<path d="M292.716 91.5717L192.794 117.467L91.4286 134.355L86.9885 128.514L235.654 96.9183C245.08 94.9095 253.322 89.2229 258.545 81.1153L267.159 67.3418L293.179 62.0364L292.716 91.5717Z" fill="#CA6E59"/>
<path d="M85.8759 167.2L81.9849 148.894C80.5777 142.274 84.8035 135.767 91.4235 134.36L249.579 100.743C261.967 98.1101 273.434 92.1547 277.328 86.4475L288.1 69.8585L322.354 57.522L372.98 51.8169L466.049 86.3929L283.852 139.125L85.8759 167.2Z" fill="#FE646F"/>
<path d="M466.044 86.3898L283.852 139.125L85.8759 167.197L84.5057 160.748L418.499 89.7554C423.103 88.7767 423.57 82.3906 419.158 80.7516L352.806 56.1025L355.807 53.7516L372.977 51.8169L466.044 86.3898Z" fill="#FD4755"/>
<path d="M409.621 44.0287L288.1 69.8553L293.179 62.0363L326.155 11.2483C327.134 9.73398 328.288 8.38444 329.565 7.21003C335.54 1.70887 344.338 0.00907028 352.116 3.31595L379.035 14.7407L385.782 23.2912L403.965 25.3206L412.577 28.9778C418.645 33.1088 416.801 42.504 409.621 44.0287Z" fill="#FE646F"/>
<path d="M409.621 44.0287L288.1 69.8553L293.179 62.0363L377.901 44.0287C385.092 42.504 386.936 33.1088 380.868 28.9778L329.565 7.21003C335.54 1.70887 344.338 0.00907028 352.116 3.31595L379.035 14.7407L385.782 23.2912L403.965 25.3206L412.577 28.9778C418.645 33.1088 416.801 42.504 409.621 44.0287Z" fill="#FD4755"/>
<path d="M403.965 25.3207L382.012 29.905L351.209 36.3436C350.674 36.4569 350.128 36.5084 349.602 36.5084C346.028 36.5084 342.824 34.0154 342.051 30.3892C341.165 26.2169 343.823 22.1168 348.005 21.2206L357.772 19.1808L379.035 14.7407L403.965 25.3207Z" fill="#EAF6FF"/>
<path d="M403.965 25.3207L382.012 29.905C381.672 29.5753 381.291 29.2663 380.868 28.9778L357.772 19.1808L379.035 14.7407L403.965 25.3207Z" fill="#C8EFFE"/>
<path d="M347.996 240.173L112.048 290.326L93.766 204.316L275.275 155.567L473.938 123.507L468.876 136.76C460.853 157.761 448.659 176.92 433.03 193.081C410.003 216.89 380.395 233.287 347.996 240.173Z" fill="#EAF6FF"/>
<path d="M473.935 123.507L468.877 136.755C460.851 157.761 448.664 176.922 433.026 193.086C421.509 204.995 408.353 215.039 394.024 222.971C379.694 230.914 364.19 236.724 347.995 240.175L336.807 242.555C344.235 238.754 351.621 234.242 358.781 229.307C374.883 218.202 389.8 204.995 401.317 193.086C416.945 176.922 429.143 157.761 437.157 136.755L439.424 130.842L446.374 127.956L473.935 123.507Z" fill="#C8EFFE"/>
<path d="M482.73 121.638L73.5333 208.616C63.284 210.794 53.2098 204.252 51.031 194.002C48.8522 183.753 55.3949 173.679 65.6441 171.5L474.841 84.5231C485.091 82.3442 495.165 88.8869 497.344 99.1362C499.522 109.385 492.98 119.46 482.73 121.638Z" fill="#7CA1B1"/>
<path d="M497.763 103.11C497.763 111.866 491.654 119.747 482.733 121.643L73.5344 208.621C67.9096 209.816 62.3466 208.384 58.1125 205.159L451.013 121.643C459.935 119.737 466.044 111.856 466.044 103.089C466.044 101.781 465.91 100.462 465.632 99.1331C464.653 94.5076 462.057 90.6341 458.565 87.9865L474.841 84.5251C485.092 82.3411 495.167 88.8828 497.341 99.1331C497.629 100.462 497.763 101.791 497.763 103.11Z" fill="#678D98"/>
<path d="M8.94918 253.052C27.819 250.546 44.2246 240.222 54.8005 225.446C59.3271 219.12 68.6554 219.12 73.183 225.446C85.401 242.516 105.399 253.643 128 253.643C150.588 253.643 170.584 242.516 182.8 225.446C187.327 219.12 196.655 219.12 201.183 225.446C213.401 242.516 233.399 253.643 256 253.643C278.588 253.643 298.584 242.516 310.8 225.446C315.327 219.12 324.655 219.12 329.183 225.446C341.401 242.516 361.399 253.643 384 253.643C406.588 253.643 426.584 242.516 438.8 225.446C443.327 219.12 452.655 219.12 457.183 225.446C467.76 240.224 484.17 250.548 503.051 253.053C508.201 253.736 512 258.217 512 263.412V301.519C512 305.925 508.427 309.498 504.021 309.498H7.97875C3.57164 309.498 0 305.925 0 301.519V263.412C0 258.217 3.79931 253.736 8.94918 253.052Z" fill="#99E6FC"/>
<path d="M512 263.416V301.523C512 305.921 508.425 309.496 504.016 309.496H480.239C484.638 309.496 488.213 305.921 488.213 301.523V263.416C488.213 258.214 484.412 253.732 479.261 253.053C461.923 250.755 446.666 241.854 436.096 228.957C437.044 227.813 437.94 226.649 438.795 225.444C443.328 219.118 452.651 219.118 457.184 225.444C467.764 240.227 484.164 250.549 503.048 253.053C508.199 253.732 512 258.214 512 263.416Z" fill="#62DBFB"/>
</svg>
